<?xml version="1.0" encoding="UTF-8"?>
<!DOCTYPE svg PUBLIC "-//W3C//DTD SVG 1.1//EN" "http://www.w3.org/Graphics/SVG/1.1/DTD/svg11.dtd">
<!-- Creator: CorelDRAW (Versão de avaliação) -->
<svg xmlns="http://www.w3.org/2000/svg" xml:space="preserve" width="3510px" height="4963px" version="1.1" style="shape-rendering:geometricPrecision; text-rendering:geometricPrecision; image-rendering:optimizeQuality; fill-rule:evenodd; clip-rule:evenodd"
viewBox="0 0 3509.87 4962.48"
 xmlns:xlink="http://www.w3.org/1999/xlink"
 xmlns:xodm="http://www.corel.com/coreldraw/odm/2003">
 <defs>
  <style type="text/css">
   <![CDATA[
    .str0 {stroke:#2D2A2B;stroke-width:2.36;stroke-miterlimit:22.9256}
    .fil0 {fill:none}
    .fil1 {fill:#352B14}
    .fil2 {fill:#AC710F}
   ]]>
  </style>
 </defs>
 <g id="Camada_x0020_1">
  <metadata id="CorelCorpID_0Corel-Layer"/>
  <rect class="fil0 str0" x="1.18" y="1.18" width="3507.51" height="4960.12"/>
  <path class="fil1" d="M720.3 517.21c6.53,29.88 13.84,10.9 25.62,36.27 7.35,15.82 14.84,19.12 29.4,28.82l-14.93 6.38c7.16,24.2 24.07,7.1 28.3,28.94l12.68 1.18 1.06 -10.6 9.03 12.39c1.25,-1.52 1.95,-3.86 2.25,-3.32l5.53 -8.92c2.28,-3.91 4.52,-1.76 2.67,-10.08 -2.28,-10.24 -11.58,-12.22 -16.13,-18.94l33.38 -5.12c13.25,3.12 29.46,4.22 32.48,-10.38l-10.02 -5.76 -22.8 -4.73c6.22,-13.24 15.38,-14.39 22.41,-30.34 12.35,-28.04 -14.12,-11.86 6.12,-34.19 5.23,-14.26 7.45,-8.26 7.76,-25.97 -27.12,-4.56 -51.23,11.45 -65.71,30.74 -9.92,-12.73 -2.54,-28.7 -12.11,-43.77 -31.32,16.99 -27.18,47.78 -30.97,78.83 -15.03,-1.33 -21.82,-21.66 -44.68,-27.26 -5.78,8.61 -6.34,6.35 -1.34,15.83z"/>
  <path class="fil2" d="M2621.82 589.93c-17.29,-11.89 -39.85,-24.67 -61.75,-16.37 0.69,13.11 14.92,12.51 20.68,26.95 3.87,-4.13 -1.37,-3.97 -6.93,7.26 5.58,8.56 18.95,19.21 25.14,23.27 -3.46,7.64 -9.56,11.86 -2.41,20.32 6.24,7.37 15.64,6.11 25.14,4.15 6.62,-1.37 12.95,-5.53 20.11,-7.29 14.11,-3.46 15.01,2.39 26.21,-6.69 0.86,-12.56 3.04,-4.27 -5.47,-11.15 -5.26,-4.24 -6.3,-1.71 -7.5,-1.1 13.18,-1.69 11.33,1.52 22.49,-5.95 -5.02,-12.7 -10.13,-10.18 -23.79,-13.61 4.15,-15.39 6.91,-6.26 4.5,-24.5 -1.25,-9.49 -1.67,-21.74 -4.69,-30.54 -20.4,-1.35 -23.02,21.94 -31.73,35.25z"/>
 </g>
</svg>
