<?xml version="1.0" encoding="UTF-8"?>
<!DOCTYPE svg PUBLIC "-//W3C//DTD SVG 1.1//EN" "http://www.w3.org/Graphics/SVG/1.1/DTD/svg11.dtd">
<!-- Creator: CorelDRAW (Versão de avaliação) -->
<svg xmlns="http://www.w3.org/2000/svg" xml:space="preserve" width="3510px" height="4963px" version="1.1" style="shape-rendering:geometricPrecision; text-rendering:geometricPrecision; image-rendering:optimizeQuality; fill-rule:evenodd; clip-rule:evenodd"
viewBox="0 0 3509.87 4962.48"
 xmlns:xlink="http://www.w3.org/1999/xlink"
 xmlns:xodm="http://www.corel.com/coreldraw/odm/2003">
 <defs>
  <style type="text/css">
   <![CDATA[
    .str0 {stroke:#2D2A2B;stroke-width:2.36;stroke-miterlimit:22.9256}
    .fil0 {fill:none}
    .fil1 {fill:#383608}
    .fil7 {fill:#574806}
    .fil4 {fill:#775807}
    .fil6 {fill:#875906}
    .fil5 {fill:#886608}
    .fil11 {fill:#896429}
    .fil8 {fill:#8E7412}
    .fil9 {fill:#9A7239}
    .fil3 {fill:#B88637}
    .fil10 {fill:#D18C13}
    .fil2 {fill:#D4A868}
   ]]>
  </style>
 </defs>
 <g id="Camada_x0020_1">
  <metadata id="CorelCorpID_0Corel-Layer"/>
  <rect class="fil0 str0" x="1.18" y="1.18" width="3507.51" height="4960.12"/>
  <path class="fil1" d="M2352.24 2149.94c14.24,3.58 13.48,-8.31 23.31,-10.47 25.35,33.53 22.18,60.73 23.62,101.24 -7.69,-6.86 -34.92,-26.67 -37.56,-32.67 -3.08,-6.98 -9.72,-49.88 -9.37,-58.1zm-85.93 -241.44c9.26,15.12 -2.28,20.96 15.19,31.65 -5.68,1.08 -6.43,-2.43 -14.31,1.52 -6.24,44.23 29.16,94.47 32.07,104.22l3.52 10.16c-15.62,13.91 -7.87,3.93 -7.75,11.63 0.07,3.72 2.12,3.41 -3.24,9.45l-20 -8.88 -10.51 2.71c1.72,9.52 -4.5,4.52 4.42,8.46 -0.23,3.65 1.27,0.43 -6.15,3.98 5.66,13.3 7.24,25.4 12.16,38.04 4.42,11.34 10.32,17.16 14.35,30.34 -7.75,1.32 -18.72,-15.64 -37.99,-30.81l14.32 21.79 -15.49 -10.78c-3.91,7.51 -4.47,4.08 5.94,11.96 -16.79,-2.99 -25.02,-7.43 -39.47,-16.82 -5.88,5.34 2.64,3.93 -0.03,-4.7 -15.54,-0.8 -18.53,-0.31 -23.17,-13.83 -3.13,7.01 -2.75,2.79 4.7,11.85 -13.45,-1.99 -19.66,-6.69 -31.78,-11.59 0.17,-11.27 4.75,5.12 2.77,-15.26l-7.25 11.42 -21.88 -2.08 40.7 22.29c-8.82,5.87 -31.46,1.26 -28.43,13.68 3.02,-2.02 23.13,-4.79 29.15,-6.44 18.91,-5.17 9.36,-8.16 30.75,1.16 16.1,7.01 34.52,18.01 50.54,23.6 -12.24,10.22 -16.61,-0.73 -39.75,12.68 23.58,-4.42 32.44,-8.8 58.63,-7.37 -32.05,32.52 -23.03,18.42 -41.75,30.58 -24.23,15.76 -23.95,18.36 -53.08,5.58l8.77 -12.18 -11.72 -0.27c4.99,15.24 -2.97,13.27 8.27,24.72 19.47,19.85 24.45,25.52 55.16,41.88 9.51,5.05 44.74,1.92 54.38,-1.23 5.93,-1.94 16.24,-8.45 21.25,-12.04 14.43,-10.35 8.51,-0.59 9.1,-20.61l10.89 -0.15c13,5.4 16.6,7.91 24.88,19.63 12.59,17.83 11.84,5.79 22.88,22.67 12.93,19.76 17.89,47.82 6.23,69.58 0.89,25.47 -14.19,67.24 -23.88,92.28 -5.2,13.45 -11.23,20.27 -5.85,28.32 9.74,-16.25 20.05,-47.7 25.85,-66.33 9.76,-31.31 2.26,-52.05 29.18,-59.01 10.99,36.71 -6.45,68.28 -1.9,104.89 17.81,-7.65 69.69,-28.59 80.78,-38.48 -5.78,-16.65 22.15,-67.88 32.19,-81.75 20.26,-0.87 17.39,4.7 15.93,19.3 31.62,3.12 28.84,10.35 61.53,0.7 18.22,-5.38 39.78,-22.62 42.27,-32.23 9.72,-37.48 9.6,-11.31 19.47,-38.35 0.34,-0.94 6.9,-11.63 4.05,-16.32 -10.22,-16.83 9.32,9.26 -2.69,-3.08 -6.17,-6.35 -0.11,5.67 -8.06,-8.33l7.75 -9.05 18.61 -29.56c-16.41,-4.57 -62.46,-1.53 -77.08,9.95l-10.33 -9.27c-18.01,5.7 -24.85,14.18 -27.85,32.93 -7.91,-7.37 -3.22,-7.24 -13.84,-12.52 -12.77,9.98 -20.67,21.51 -27.13,37.37 -9.03,22.2 -2.35,38.03 -7.76,52.98 -10.53,16.72 -8.53,1.27 -18.57,17.91 -19.28,31.96 -21.59,50.37 -31.27,71.86 -12.46,-40.7 -18.82,-92.73 -19.99,-135.23 19.19,-12.39 6.23,-5.72 12.4,-13.02 5.05,-5.98 15.47,-5.04 21.07,-1.86 7.04,-12.93 -4.52,1.85 3.18,-12 10.43,0.3 6.78,0.6 9.07,5.72 6.57,-11.84 11.4,-14.43 20.96,-24.24 16.97,-17.4 6.31,-14.87 24.42,-12.21 0.77,-33.96 10.28,-21.92 13.72,-46.71 0.19,-1.34 0.57,-8.29 0.58,-8.36 1.89,-8.82 -0.93,0.74 7.93,-11.56l-9.95 -8.14 17.67 -3.13c-12.31,-11.14 -13.07,-9.53 -7.53,-27.29 2.68,-8.63 4.9,-23.55 9.8,-29.01l-2.82 -14.02 -18.84 -1.96c22.79,-12.54 20.18,-8.27 17.63,-37.47l2.02 -52.36 -24.34 8.86c-22.48,23.27 -43.99,6.21 -58.38,47.91 -8.99,-11.38 -17.12,-5.87 -20.29,4.64 -4.1,9.48 -4.06,12.19 -13.12,17.29l-3.1 -17.03c-22.75,33.75 -29.65,11.18 -45.22,4.76 -0.18,12.67 0,19.86 13.6,23.29 10.23,2.58 6.04,-1.55 17.21,3.73l4.75 2.24c3.17,-9.7 -0.56,-7 7.36,-13.04 -27.01,42.49 -13.57,62.56 -18.51,88.37 -2.27,11.83 -6.01,18.36 -5.4,29.82 -12.7,-6.23 -11.27,-6.24 -14.49,-23.11 -8.84,-46.26 -15.16,-50.57 -18.14,-64.36 -5.49,-25.35 20.51,-13.76 10.51,-94.38 -8.06,-2.01 -1.42,6.65 -10.58,0.02 11.64,-16.16 0.89,-31.44 -3.74,-48.48 -8.81,-7.13 -4.43,-14.66 -18.1,-21.82 -15.96,7.82 -6.46,14.13 -18.95,25.32 -0.75,-13.33 2.53,-26.28 -3.39,-38.69l-14.26 -15.71c-2.96,-1.61 -3.49,-1.2 -4.98,-1.7l-11.48 -6.15c-18.4,-13.54 -15.4,-4.55 -35.27,-26.71 -12.95,-5.16 -1.55,-7.89 -16.11,-4.07 -0.61,23.82 -0.47,42.19 -5.57,65.45z"/>
  <path class="fil2" d="M1514.18 2344.62c12.53,31.36 -4.64,22.69 11.17,50.81 8.91,15.84 15.89,37.21 15.67,55.39 -0.48,40.14 8.14,82.62 16.27,122.37 2.78,13.55 5.85,54.67 8.27,60.87 3.71,9.5 19.08,33.13 24.74,45.26 12.51,26.78 -2.22,25.59 24.94,44.75 9.82,6.94 9.67,8.84 13.69,19.87 6.36,17.45 6.33,11.63 -1.22,24.63 27.13,19.83 45.44,19.05 61.46,48.1 12.21,22.15 2.16,24.74 -1.68,41.74 -0.73,3.24 3.54,40.22 4.17,45.79 13.78,-10.53 12.46,-12.72 22.75,-27.17 11.57,-16.23 19.24,-5.48 22.48,-33.88 -10.47,-2.25 8.76,-29.31 12.69,-36.94 6.29,-12.17 11.55,-29.4 16.91,-43.22 -5.46,-9.88 -12.61,-5.2 -16.19,-22.64 -2.69,-13.11 2.98,-19.63 10.23,-29.43 13.87,-18.74 20.14,-33.31 31.57,-52.73 -6.58,-19.04 5.66,-6.07 -5.11,-15.36 -11.03,-9.53 -5.67,1.32 -14.43,-9.44 -9.07,-11.16 -4.58,-17.34 -25.91,-15.5l8.67 -5.95c-10.43,-4.2 -11.54,-8.35 -22.07,-10.74 -7.52,17.05 2.11,-2.08 0.26,9.26 -13.9,-4.76 -2.78,-9.38 -14.32,-9.63 -0.38,-0.01 -1.6,1.15 -2.53,1.37 6.38,-14.61 -16.04,-21.5 -16.05,-21.5 -0.15,-0.31 0.22,-0.91 0.23,-1.02 0.95,-7.31 0.1,-4.72 -3.95,-15.13l-11.59 -15.84c-14.94,-9.86 2.39,3.37 -9.19,-0.93 10.33,-14.71 -1.86,-4.83 14.37,-10.76 -7.54,-7.33 -15.54,-9.56 -19.23,-19.37 -1.61,-4.26 -1.69,-1.03 0.41,-8.08 4.87,-16.34 -3.9,-16.89 8.56,-36.01l2.34 -6.29c14.45,-0.34 29.55,0.52 43.38,0.34 19.44,-0.25 5.23,-5.07 31.69,0.94 8.22,-8.21 -4.14,-5.47 -11.82,-11.12l14.74 -10.88 -17.99 -3.07 9.02 -7.55 -11.76 -3.42c1.57,-24.02 -3.23,-22.31 -10.24,-31.94 -8.55,-11.74 -3.7,-8.79 -3.99,-11.51l-3.22 -14.15 -10.91 7.98c0.67,-1.4 4.5,-7.34 4.56,-7.54l-15.44 -101.28c-0.2,-0.45 -2.65,-2.4 -3.36,-3.12 -25.41,18.49 16.38,-0.7 -15.52,24.89 -11.6,9.31 -16.2,24.48 -30.51,10.75 -21.25,33.55 -10.99,22.51 -38.01,19.92 -23.18,-2.23 3.1,16.82 -24.6,-3.34 -11.47,9.93 -5.22,6.6 -19.67,10.92 -0.14,32.88 -14.97,12.41 -38.4,10.56 -1.82,4.9 1.76,3.15 -6.33,7.2 -1.22,-8.07 6.12,-0.49 -2.71,-7.95l1.97 -3.01c7.37,-8.97 -8.18,8.26 2.51,-2.81 1.31,-1.36 1.39,-0.31 4.63,-3.86 -13.32,-2.94 -9.37,-2.8 -16.4,10.4z"/>
  <path class="fil3" d="M1697.22 2270.95c0.71,0.72 3.16,2.67 3.36,3.12l15.44 101.28c-0.06,0.2 -3.89,6.14 -4.56,7.54l10.91 -7.98 3.22 14.15c0.29,2.72 -4.56,-0.23 3.99,11.51 7.01,9.63 11.81,7.92 10.24,31.94l11.76 3.42 -9.02 7.55 17.99 3.07 -14.74 10.88c7.68,5.65 20.04,2.91 11.82,11.12 14.75,17.82 28.44,20.59 36.37,49.2 9.3,33.51 17.17,21.57 39.92,41.9 -2.39,-13.39 -15.4,-34.62 -1.39,-46.3 9,-7.51 21.47,10.52 28.37,13.74 8.99,13.81 2.87,7 27.16,18.47 26.66,12.59 5.28,-7.91 48.87,14.03 11.19,5.63 7.21,2.43 17.2,-2.7l1.81 -9.66c8.76,12.28 28.31,16.65 39.11,39.68 8.2,17.49 9.26,40.36 30.15,52.31 -0.9,-20.54 2.69,-48.47 -5.22,-66.4 -12.85,-29.07 6.1,-11.91 -19.67,-52.33 -29.4,-46.13 -12.64,-53.55 -37.99,-67.79 -11.9,-6.68 -9.36,-10.03 -19.03,-18.3 -5.08,5.29 -0.49,3.22 -7.66,-0.59 -2.78,-1.48 -6,-4.8 -8.39,-6.83 -11.08,10.56 -38.02,-23.61 -58.67,-23.03 -10.29,0.29 -3.97,6.02 -17.12,-3.65 -17.42,-12.82 1.64,-3.92 -7.84,-11.41 -5.76,-4.55 -24.49,-1.63 -30.85,2.6 -15.53,-21.12 9.32,16.55 -2.71,-6.22 -5.74,-10.86 8.91,5.46 -2.58,-4.04 -4.58,-3.78 -6.61,-0.7 -7.72,-0.11 11.14,13.54 22.08,31.2 15.9,43.57 -17.61,-15.12 -1.77,-16.98 -24.25,-19.22 -12.54,19.31 2.27,16.85 -6.06,18.09 -0.96,6.83 2.84,0 -15.19,-0.01 21.95,0.01 9.91,-7.37 10.82,-11.01l-24.27 -4.13c3.15,11.81 14.7,27.64 21.16,37.6l7.45 10.78c4.03,6.36 5.13,9.66 9.09,18.27 -15.1,-4.38 -10.77,-1.55 -19.75,-14.24l-36.61 -63.41c-5.15,-8.12 -26.66,-48.82 -15.07,-56.82 -9.28,-45.77 -19.24,-65.17 -13.92,-116.08 -3.52,9.68 -6.25,30.15 -4.19,42.41l-7.64 4.03z"/>
  <path class="fil4" d="M1943.29 2434.4c9.67,8.27 7.13,11.62 19.03,18.3 25.35,14.24 8.59,21.66 37.99,67.79 25.77,40.42 6.82,23.26 19.67,52.33 7.91,17.93 4.32,45.86 5.22,66.4 -20.89,-11.95 -21.95,-34.82 -30.15,-52.31 -10.8,-23.03 -30.35,-27.4 -39.11,-39.68l-1.81 9.66c-2.94,10.85 2.5,13.56 12.55,15.95 -0.31,0.43 -1.06,0.37 -1.17,1.08 -0.11,0.76 -0.99,0.99 -1.13,1.27l-3.03 8.82c20.63,20.62 12.92,-3.67 34.67,41.34l19.64 41.33c7.21,-8.51 -2.09,-14.21 -8.09,-23.07 -7.81,-11.54 -10.4,-20.62 -12.27,-34.15 12.66,5.05 8.38,2.42 24.23,28.91 12.01,20.07 -0.65,22.8 5.74,32.2l-12.87 1.82 23.58 3.66c5.42,-4.9 2.23,-2.8 10.07,-4.58 4.74,-1.08 6.62,0.3 14.19,-1.05 -6.08,-14.06 8.09,-24.98 21.2,-41.86 5.85,-7.52 9.01,-17.02 12.33,-21.07 8.06,-9.84 24.1,-7.69 9.77,-20.27 -8.89,-3.27 -18.33,26.6 -20.43,30.87 -5.96,12.12 -13.95,27.9 -25.02,32.49 -8.42,-14.8 -0.89,-64.67 13.12,-92.1 9.39,-18.36 -1.92,-10.01 15.86,-30.33 6.47,-7.4 9.15,-8.46 4.29,-12.56 -10.39,5.17 -22.08,19 -29.19,28.76 -4.13,-17.03 3.9,-35.64 10.06,-52.19 13.03,-35.04 7.88,-30.08 24.41,-41.98 28.82,-20.75 32.82,-69.43 9.95,-98.23 -28.53,11.67 -48.14,42.42 -39.13,74.72 6.09,21.85 2.71,24.52 -5.84,45.71 -7.34,18.21 -9.45,36.04 -16.64,43.25 0.2,-29.01 -2.76,-62.55 -4.31,-92.07 -5.91,-112.84 2.34,-68.66 16.04,-104.2 16.45,-42.64 -1.97,-66.84 -6.17,-82.29 -1.8,-6.62 -3.41,-11.52 -6.13,-17.97 -5.23,-12.39 -9.38,-21.56 -21.03,-26.87 -3.41,13.68 -10.38,24.63 -13.43,37.61 -1.65,7.01 -0.5,15.27 -2.3,19.52 -3.37,7.97 -6.54,3 -9.58,14.2 -1.64,6.03 1.81,39.95 3.55,46.38 3.66,13.52 15,21.15 19.81,32.08 10.93,24.83 2.13,156.06 3.12,194.31 -8.76,-11.71 -14.32,-30.47 -22.76,-44.13 -10.96,-17.74 -16.79,-25.83 -16.84,-47.32 -0.07,-31.75 -7.44,-72.83 -38.88,-86.88 -19.53,15.81 -13.32,54.67 -2.78,76.4z"/>
  <path class="fil5" d="M2141.91 2458.66l-0.59 22.77c-8.45,3.32 -14.47,3.38 -7.43,0.01 -4.28,20.81 -0.19,16 2.78,33.62 2.82,16.79 -4.33,19.09 11.14,24.86l-13.96 14.17 12.22 14.6c6.34,15.65 0.66,18.12 22.35,48.83 -8.34,3.72 -15.77,8.03 -23.7,12.3 -12.1,6.5 -12.93,-1.84 -30.87,2.91 -5.81,38.11 -13.24,21.3 -19.66,48.42 2.59,-2.53 -3.66,-4.45 7.36,-0.75 3.57,11.9 4.93,12.73 5.04,28.06l4.21 -17c3.99,2.04 1.42,0.77 6.33,4.67l5.04 4.02c2.95,-10.06 10.22,-25.83 21.22,-19.68 1.64,0.92 4.23,4.17 4.46,4.64l0.04 7.21c-0.91,9.37 -2.65,-1.74 5.37,13.07l-12.35 22.51c0.36,1.58 1.34,4.08 1.79,5.2 5.99,14.77 7.42,-0.68 3.3,10.84 17.89,1.44 19.97,31.03 20.71,46.66 0.85,17.85 -7.52,0.76 0.49,18.88 5.61,-7.02 2.4,-0.03 5.01,-11.5 0.41,-1.78 1.21,-12.55 1.26,-12.71 4.06,-15.11 0.46,-0.79 6.31,-9.29l5.91 -13.54c23.49,24.88 34.13,-29.05 53.77,-33.27 -3.26,-9.63 -13.59,-11.72 -23.97,-15.4l-9.01 10.89c-30.4,-23.59 -25.11,-19.02 -38.69,-16.79 7.94,-8.07 6.64,-2.44 9.86,-12.65 -72.41,-8.04 34.73,-112.14 49.98,-129.45 0.75,-30.52 -4.15,-20.04 -14.45,-38.95 8.15,9.89 3.16,8.06 14.81,9.74 -0.2,-11.56 -1.31,-35.05 -2.77,-45.97 -4.32,-32.29 -20.04,-26.52 -10.91,-30.35 -11.56,-12.7 -22.03,-17.71 -39.17,-13.83l-17.03 -25.28c-7.21,5.89 -1.52,0.78 -5.38,6.02l-10.82 31.51z"/>
  <path class="fil6" d="M2181.37 2240.27c6.14,6.56 4.51,3.54 9.35,8.28 1.96,1.92 3.7,3.95 4.59,4.83 6.79,6.68 -6.62,-1.34 5.18,4.74 11.37,-1.93 6.32,-0.77 19.41,2.15 20.96,4.68 24.15,32.91 50.5,14.92 22.16,-15.11 -4.83,11.83 48.71,-13.75 8.8,-4.21 8.64,6.36 9.99,-8.96 6.08,22.54 0.91,17.65 -5.25,33.36 -2.37,6.02 -0.65,0.07 -1.03,7.98 -0.15,3.1 1.14,2.06 -0.59,9.18 -1.83,7.48 -2.89,9.53 -9.15,12.98 5.33,14.31 -2.85,14.6 -8.98,32.62 -3.62,10.65 -7.44,23.43 -13.26,32.55l-11.34 -13.02c-13.81,8.65 -26.4,34.15 -32.7,50.23 -5.27,13.45 -1.63,12.84 -11.11,18.15l16.7 95.41c2.23,11.58 -3.44,-0.51 2.31,6.47 10.35,-11.94 24.83,-21.01 37.13,-32.62 11.76,-11.09 29.91,-23.57 39.82,-34 -26.36,-28.59 -5.96,-33.44 -10.53,-65.08 -10.67,-7.84 -7.51,-5.5 -20.48,-4.83 2.1,-10.63 1.13,-16.18 3.65,-26.79 2.43,-10.25 6.96,-16.53 9.57,-26.29 8.49,-31.67 15.59,-85.92 51.3,-53.93l21.87 27.35c5.22,7.51 2.8,-3.75 6.55,8.49 11.66,-21.76 6.7,-49.82 -6.23,-69.58 -11.04,-16.88 -10.29,-4.84 -22.88,-22.67 -8.28,-11.72 -11.88,-14.23 -24.88,-19.63l-6.64 3.25c4.95,11.39 3.98,8.96 2.68,20.7 -20.81,6.26 -16.79,6.53 -34.31,15.39 -7.92,4.01 -24.17,4.48 -38.07,6.58 -0.31,0.04 -13.83,-0.95 -17.66,-2.28 -16.23,-5.67 0.32,-5.43 -31.43,-17.05 -17.97,-6.57 -5.77,-1.84 -12.43,-7.91 -10.14,-9.24 -23.89,-11.48 -28.62,-26.39 -7.57,-23.9 -4.75,-22.9 -16.66,-34.67 -34.03,-33.64 7.94,-32.36 -23.79,-51.54 -2.07,13.58 -4.67,7.84 -4.7,21.97 -0.05,31.22 1.75,21.89 19.09,48.34 0.09,0.13 4.85,8.74 4.96,8.98 4.67,9.5 6.79,6.95 8.88,8.63 14.72,11.84 -0.76,11.51 11.87,21.28 1.12,0.86 15.41,6.57 8.61,6.18z"/>
  <path class="fil7" d="M2146 2743.94c-18.68,36.3 -0.27,19.97 0.96,46.75 -14.64,9.54 -0.8,2.54 -25.73,-2.41l-3.56 16.83c-21.54,-9.84 -10.69,13.51 -23.71,28.55l-18.17 -11.16c-10.29,6.83 -15.17,6.15 -16.78,18.95 0.63,9.81 4.52,12.22 11.13,21.34 24.51,-4.35 29.73,-3.41 41.91,16.46l140 -46.64c14.64,-14.18 56.16,-19.66 42.58,-55.16 -6.88,-17.96 -37.73,-39.35 -55.17,-48.28 -19.64,4.22 -30.28,58.15 -53.77,33.27l-5.91 13.54c-5.85,8.5 -2.25,-5.82 -6.31,9.29 -0.05,0.16 -0.85,10.93 -1.26,12.71 -2.61,11.47 0.6,4.48 -5.01,11.5 -8.01,-18.12 0.36,-1.03 -0.49,-18.88 -0.74,-15.63 -2.82,-45.22 -20.71,-46.66z"/>
  <path class="fil8" d="M2082.35 2685.57c3.02,17.4 -2.4,13.07 -10.63,51.8 -5.09,23.97 -14.8,20.65 -21.22,39.92 -6.64,19.9 -17.61,16.29 -36.79,23.38 -18.35,6.77 -32.45,10.64 -49.43,4.78 -7.75,11.32 -11.95,12.73 -11.03,27.68 0.36,0.16 1.06,-0.49 1.18,-0.1l4.53 -0.04c0.49,0.04 1.43,0.07 1.98,0.14 6.53,0.75 2.97,1.35 12.44,2.64l8.66 -11.71c6.44,8.19 3.07,-0.09 -2.83,11.2l39.15 6.86c0.78,0.25 1.69,0.64 2.4,0.9l4.89 2.1c0.95,-34.96 -7.1,-19.5 4.96,-30.59l1.85 35.09 7.02 -12.09c15.38,10.25 5.93,9.72 19.53,3.92 1.61,-12.8 6.49,-12.12 16.78,-18.95l18.17 11.16c13.02,-15.04 2.17,-38.39 23.71,-28.55l3.56 -16.83c24.93,4.95 11.09,11.95 25.73,2.41 -1.23,-26.78 -19.64,-10.45 -0.96,-46.75 4.12,-11.52 2.69,3.93 -3.3,-10.84 -0.45,-1.12 -1.43,-3.62 -1.79,-5.2l12.35 -22.51c-8.02,-14.81 -6.28,-3.7 -5.37,-13.07l-0.04 -7.21c-0.23,-0.47 -2.82,-3.72 -4.46,-4.64 -11,-6.15 -18.27,9.62 -21.22,19.68l-5.04 -4.02c-4.91,-3.9 -2.34,-2.63 -6.33,-4.67l-4.21 17c-0.11,-15.33 -1.47,-16.16 -5.04,-28.06 -11.02,-3.7 -4.77,-1.78 -7.36,0.75 -4.45,3.34 -2.34,-4.71 -4.86,11.79l-6.98 -7.37z"/>
  <path class="fil9" d="M2559.71 2214.78c22.99,-20.53 -0.81,-12.64 14.2,-39.92 5.15,-9.37 11.78,-6.93 14.3,-24.81 1.1,-7.79 -0.13,-8.26 -2.48,-10.96 -0.23,-0.27 -5.52,-3.76 -5.58,-3.79l8.31 -2.24c0.8,-0.49 1.77,-1.45 2.46,-1.92 0.76,-0.52 1.77,-1.45 2.57,-2.26l-8.17 -9.05c-0.15,-0.39 -0.4,-1.28 -0.55,-1.7l-2.45 -7.91c-2.31,-8.76 -2.02,-8.06 -1.79,-10.91 0.97,-12.15 -1.85,-0.47 7.67,-8.71 -11.11,-15.15 -6.53,-2.74 -9.89,-22.74 -4.9,5.46 -7.12,20.38 -9.8,29.01 -5.54,17.76 -4.78,16.15 7.53,27.29l-17.67 3.13 9.95 8.14c-8.86,12.3 -6.04,2.74 -7.93,11.56 -0.01,0.07 -0.39,7.02 -0.58,8.36 -3.44,24.79 -12.95,12.75 -13.72,46.71 -18.11,-2.66 -7.45,-5.19 -24.42,12.21 -9.56,9.81 -14.39,12.4 -20.96,24.24 -2.29,-5.12 1.36,-5.42 -9.07,-5.72 -7.7,13.85 3.86,-0.93 -3.18,12 -5.6,-3.18 -16.02,-4.12 -21.07,1.86 -6.17,7.3 6.79,0.63 -12.4,13.02 1.17,42.5 7.53,94.53 19.99,135.23 9.68,-21.49 11.99,-39.9 31.27,-71.86 10.04,-16.64 8.04,-1.19 18.57,-17.91 5.41,-14.95 -1.27,-30.78 7.76,-52.98 6.46,-15.86 14.36,-27.39 27.13,-37.37z"/>
  <path class="fil10" d="M2331.65 2471.77l32.2 -20.48c-5.38,-8.05 0.65,-14.87 5.85,-28.32 9.69,-25.04 24.77,-66.81 23.88,-92.28 -3.75,-12.24 -1.33,-0.98 -6.55,-8.49l-21.87 -27.35c-35.71,-31.99 -42.81,22.26 -51.3,53.93 -2.61,9.76 -7.14,16.04 -9.57,26.29 -2.52,10.61 -1.55,16.16 -3.65,26.79 12.97,-0.67 9.81,-3.01 20.48,4.83 4.57,31.64 -15.83,36.49 10.53,65.08z"/>
  <path class="fil4" d="M1953.25 2833.13c-17.92,22.93 12.78,46.91 -4.72,68.96 -10.37,13.06 -7.82,5.05 -23.49,6.4 1.32,10.92 4.14,11.09 -2.4,19.86 16.25,2.25 11.74,-3.61 17.27,6.43 14.49,-3.09 27.53,-10.37 42.3,-16.53 17.86,-7.45 32.08,-5.78 45.92,-11.96 13.78,-6.14 26.1,-11.81 41.23,-15.03 16.01,-3.4 29.2,-9.81 42.69,-12.01 -12.18,-19.87 -17.4,-20.81 -41.91,-16.46 -6.61,-9.12 -10.5,-11.53 -11.13,-21.34 -13.6,5.8 -4.15,6.33 -19.53,-3.92l-7.02 12.09 -1.85 -35.09c-12.06,11.09 -4.01,-4.37 -4.96,30.59l-4.89 -2.1c-0.71,-0.26 -1.62,-0.65 -2.4,-0.9l-39.15 -6.86c5.9,-11.29 9.27,-3.01 2.83,-11.2l-8.66 11.71c-9.47,-1.29 -5.91,-1.89 -12.44,-2.64 -0.55,-0.07 -1.49,-0.1 -1.98,-0.14l-4.53 0.04c-0.12,-0.39 -0.82,0.26 -1.18,0.1z"/>
  <path class="fil11" d="M2497.76 2392.36c16.33,-5.58 154.77,-71.52 158.99,-76.33l-4.25 -0.12c11.13,-8.36 1.45,-12.89 11.5,-25.43l16.57 -16.18c5.88,-7.15 -1.79,3.19 3.59,-5.36l1.7 -2.79c0.18,-0.29 0.7,-1.05 0.88,-1.32 6.59,-9.83 20.75,-33.3 -2.65,-37.95 -20.71,-4.11 -2.79,6.7 -13.89,-3.63l-7.75 9.05c7.95,14 1.89,1.98 8.06,8.33 12.01,12.34 -7.53,-13.75 2.69,3.08 2.85,4.69 -3.71,15.38 -4.05,16.32 -9.87,27.04 -9.75,0.87 -19.47,38.35 -2.49,9.61 -24.05,26.85 -42.27,32.23 -32.69,9.65 -29.91,2.42 -61.53,-0.7 1.46,-14.6 4.33,-20.17 -15.93,-19.3 -10.04,13.87 -37.97,65.1 -32.19,81.75z"/>
 </g>
</svg>
