<?xml version="1.0" encoding="UTF-8"?>
<!DOCTYPE svg PUBLIC "-//W3C//DTD SVG 1.1//EN" "http://www.w3.org/Graphics/SVG/1.1/DTD/svg11.dtd">
<!-- Creator: CorelDRAW (Versão de avaliação) -->
<svg xmlns="http://www.w3.org/2000/svg" xml:space="preserve" width="3510px" height="4963px" version="1.1" style="shape-rendering:geometricPrecision; text-rendering:geometricPrecision; image-rendering:optimizeQuality; fill-rule:evenodd; clip-rule:evenodd"
viewBox="0 0 3509.87 4962.48"
 xmlns:xlink="http://www.w3.org/1999/xlink"
 xmlns:xodm="http://www.corel.com/coreldraw/odm/2003">
 <defs>
  <style type="text/css">
   <![CDATA[
    .str0 {stroke:#2D2A2B;stroke-width:2.36;stroke-miterlimit:22.9256}
    .fil0 {fill:none}
    .fil6 {fill:#193517}
    .fil2 {fill:#263926}
    .fil3 {fill:#2B3C1A}
    .fil5 {fill:#32451B}
    .fil4 {fill:#383608}
    .fil1 {fill:#576628}
   ]]>
  </style>
 </defs>
 <g id="Camada_x0020_1">
  <metadata id="CorelCorpID_0Corel-Layer"/>
  <rect class="fil0 str0" x="1.18" y="1.18" width="3507.51" height="4960.12"/>
  <path class="fil1" d="M838.03 2031.23c-10.94,9.39 -21.62,43.08 -28.45,51.57l13.37 33.6c6.68,29.11 -24.64,-2.65 -25.15,-3.03 -4.76,6.2 -11.38,22.84 -9.62,31.07 -10.06,36.88 3.22,3.8 -4.13,34.46 -2.25,9.4 -2.37,8.03 -2.14,17.24 8.93,2.45 5.69,-1.65 -4.13,5.36 3.31,13.62 -0.12,22.17 2.44,33.32 3.2,13.98 11.95,9.44 24.47,11.66 0.75,25.36 -13.12,16.15 -9.98,43.52 2.1,18.29 10.21,25.21 13.58,40.77l28.98 -7.86c-5.47,1.55 -2.5,1.64 -6.09,-1.62l1.01 -18.3c11.87,2.69 3.46,-1.15 11.49,7.46 24.03,25.78 11.45,10.31 32.54,25.32 17.36,12.35 20.86,34.55 18.41,53.26 27.32,-4.25 20.81,-47.83 41.07,-55.53 -4.53,-7.98 -1.82,-4.3 -7.56,-8.9 9.3,-9.2 9.27,-6.38 6.19,-20.46 -0.1,-0.45 -0.27,-1.33 -0.38,-1.78l-4.95 -10.17c-3.02,-3.85 -1.79,-1.13 -3.1,-3.44l-1.67 -5.88c-2.14,-3.08 -5.27,-3.45 -7.91,-6.79 -0.24,-0.29 -0.66,-1.08 -0.87,-1.4l-3.11 -6.31c-11.26,-15.31 -17.15,-9.18 -27.36,-57.82 -3.75,-17.89 4.9,-40.78 7.54,-59.76 21.51,6.72 19.42,12.99 29.98,26.27 7.21,9.08 7.09,3.46 13.95,13.55 7.52,11.07 1.03,10.89 12.38,14.95 6.38,-14.14 2.12,-20.01 -4.4,-32.18 -9.34,-17.45 1.3,-17.46 -3.15,-33.05l7.22 0.08c-1.78,-27.67 4.15,-26.9 11.32,-49.99 6.23,28.11 11.96,7.67 14.01,33.69l9.13 -5.67c3.37,16.81 5.58,3.18 -4.76,17.61l7.51 10.9c-2.82,-1.44 -0.5,-4.18 -4.64,0.29l-2.38 5.37c-10.18,22.77 -16.6,33.39 -13.77,73.15l11.49 7.12c16.45,-21.44 27.86,-47.17 54.25,-56.47 0.5,0.76 1.03,1.08 1.23,2.44l6.01 20.49c3.6,24.66 -1.98,33.82 -5.13,52.47 -2.19,12.91 -0.85,30 -14.38,44.22 -0.46,0.48 -1.14,1.06 -1.6,1.52l-13.07 14.26c-6.08,5.26 -12.16,6.13 -18.49,11.74 -26.25,23.25 -19.1,59.58 -22.54,100.04 -1.72,20.27 -5.51,30.53 -5.18,54.46 0.22,15.56 -0.23,38.91 -4.92,51.14 1.56,-2.17 29.21,-46.46 29.64,-47.51 6.78,-16.88 2.07,-60.02 50.09,-89.77 17.44,-10.8 64.27,-17.66 84.81,-18.13l19.11 -32.93c-2.72,8.26 -4.48,8.73 -3.42,17.56 1.38,11.48 4.46,2.75 -0.77,17.6l-9.01 18.4c-6.98,9.54 -6.77,8.7 -10.14,22.19l-10.29 -13.01c2.61,20.63 15.61,21.9 -3.51,39.83 -5.84,5.47 -6.74,5.09 -11.73,18.01 -6.9,17.89 -22.67,45.13 -38.81,53.37 -15.84,8.07 -32.96,13.29 -51.18,6.18 -0.03,0.05 -3.28,4.67 -3.62,5.06 -0.34,0.38 -1.02,1.15 -1.41,1.56l-3.09 2.97c-4.24,4.09 -6.34,5.95 -10.57,10.73 -16.81,19.02 -28.97,65.38 -30.19,91.18 10.89,-6.18 3.47,-10.69 13.76,-4.77l-7.88 -6.38c4.25,-17.07 4.7,1.14 4.09,-20.27 -0.38,-13.17 -0.73,-9.7 5.77,-21.83 0.22,-0.39 0.66,-1.15 0.86,-1.53 10.97,-21.48 5.93,-5.71 11.93,-19.73 1.42,-3.33 3.16,-6.18 5.05,-10.26 11.14,-2.53 2.9,-5.16 14.71,1.27l1.66 -15.51c9.81,1.88 8.82,2.24 13.77,8.38 0.41,-10.58 -1.09,-8.37 0.24,-11.37 27.56,-1.05 44.88,-8.1 58.93,-29.47 7.46,-11.33 -5.62,-7.18 13.21,-8.6 -3.74,-11.57 -4.61,-4.38 0.13,-14.5 12.57,-26.84 5.32,-17.27 24.1,-29.66 10.3,-6.8 2.07,-3.87 5.87,-12.36l1.64 -2.5c9.66,-11.26 -3.66,7.41 4.13,-2.66 5.43,-7.01 -4.07,-2.72 3.42,-13.48 0.43,-0.6 6.28,-7.28 7.21,-8.26 20.28,-21.47 16.26,-8.74 29.63,-15.64 -3.27,-6.64 -2.16,-2.81 -2.18,-13.99 -18.58,-7.73 -18.6,-4.9 -16.94,-26.88 1.74,-22.94 18.42,-42.75 10.69,-68.62 -3.84,-12.85 3.95,-27.08 -3.01,-78.42 -0.92,-6.79 -6.15,-40.23 -7.36,-44.17 -2.94,-9.6 -10.36,-22.37 -14.45,-34.61 -4.76,-14.21 -7.14,-28.45 -11.53,-41.37l-12.41 -22.5c-7.67,3.17 -0.59,-1.5 -5.75,3.83l-26.68 34.4c3.61,-24.99 2.38,-40.9 -3.94,-61.38 -16.47,-53.35 3.89,-40.84 -44.31,-132.19 -9.79,-18.56 -24.4,-41.27 -29.72,-60.71l-4.57 -4.6 -117.17 137.21 -33.37 51.88z"/>
  <path class="fil2" d="M194.17 1311.61c6.66,3.08 41.17,36.89 32.33,62.22 6.2,0.27 3.92,-1.69 8.05,5.83l20.6 29.53c0.62,-0.63 1.21,-1.61 1.51,-2.18 0.28,-0.54 1.04,-1.51 1.35,-2.2 6.06,-13.18 -1.6,-16.74 8.67,-29.92 15.49,16.47 20.51,8.59 26.96,33.91 6.08,23.86 1.46,34.31 1.84,57.27 1.91,31.97 -18.9,90.16 -28.49,129.98 -9.02,37.47 -8.21,27.59 -17.28,33.38l3.03 18.52c0.11,11.43 5.32,18.65 9.1,28.61 4.68,12.31 4.51,19.4 15.82,21.05 7.9,-16.99 12.35,-23.82 21.61,-38.84 2.37,-3.83 25.81,-27.32 29.98,-30.59 35.63,-27.9 60.76,-15.68 98.93,-10.11 37.36,7.56 75.61,-0.09 111.88,-9.35 15.77,-4.03 32.11,-9.09 44.55,-19.27 13.83,-11.3 24.54,-12.78 39.69,-24.46l13.57 -9.17 31.66 -33.68 -7.77 -6.75c16.05,4.7 8.7,1.71 20.11,-7.87 7.37,-10.07 21.02,-23.71 31.68,-29.87l34.67 -26.72 -96.33 -48.65c-15.24,-3.36 -27.01,-2.17 -40.35,5.74 -5.01,-11.72 4.21,-2.42 -2.15,-14.32l-71.67 -6.51c-24.1,10.81 -45.24,9.9 -70.73,27.42 -18.92,13.02 -36.87,23.82 -52.56,41.09 -23.74,26.12 -59.42,82.66 -68.49,119.02 -0.31,0.66 -48.1,46.13 -51.69,48.69 14.62,-19.05 17.02,-17.91 22.13,-44.77 6.93,-36.45 28.79,-96.92 45.45,-128.45l-5.52 19.4c0.55,-22.05 18.1,-28.93 21.18,-39.91 8.61,-30.76 20.79,-29.97 21.46,-38.58 1.25,-16.11 -4.37,-2.01 5.5,-20.71 10.03,-18.98 28.3,-40.27 47.94,-51.01l-10.23 -4.57c3.76,0.82 0.69,4.5 13.4,-8.72 19.56,-20.37 35.2,-23.99 41.67,-46.34 -16.26,17.15 -6.98,5.34 -19.47,11.31 -13.51,6.45 -4.12,5.46 -9.61,13.96 -7.18,11.13 -8.24,4.71 -15.78,8.7 -12.47,6.6 -1.61,2.45 -11.36,15.1 -5.43,-2.13 -3.75,-2.66 -5.11,-6.72l-23.52 16.74c2.2,11.49 3.88,0.08 -1.7,11.44 -4,8.14 -16.44,13.49 -22.13,17.54 -10.18,7.25 -20.1,20.33 -25.94,24.4 0.86,15.81 1.47,-7.39 5.75,16.34 -14.84,2.56 -14.57,4.9 -23.04,12.86l-8.62 6.14c-0.51,0.15 -1.45,0.47 -1.96,0.51 -8.37,0.71 -2.93,4.06 -8.83,-5.1 1.5,17.68 1.57,13.33 -1.46,20.93l-4.89 -27.75c-4.39,-15.27 -4.19,-8.72 -0.88,-16.1 27,-60.16 15.43,-31.66 24.5,-84.45 3,-17.46 0.75,-34.81 3.88,-49.53 1.45,-51.03 -22.65,-84.88 -49.72,-122.83 -15.77,-22.1 -74.79,-61.87 -103.17,-70.81l0 259.18z"/>
  <path class="fil3" d="M3269.72 1171.17c-15.27,24.14 -20.82,36.63 -31.05,65.01l-8.66 -22.87 -9.86 8.46c-3.46,23.29 -6.16,49.3 1.24,72.53 6.42,20.14 6.5,1.69 3.64,28.95 -1.37,12.96 -0.35,26.16 -1,39.13l-5.21 -10.49c-17.47,-26.99 -23.34,-39.96 -48.06,-59.27 -22.05,-17.22 -39.18,-32.16 -66.69,-42.34 -30,-11.11 -58.18,-17.07 -89.19,-19.37 -18.19,-1.34 -35.53,-0.21 -53.75,-1.3 -18.29,-1.09 -34.66,-4.66 -51.68,-6.03 -0.79,14.82 50.2,93.4 58.5,132.47l18.3 31.39 24.67 38.44c9.24,2.76 15.63,19.21 24.66,26.79 11.2,8.99 36.88,32.76 48.6,35.53 19.38,6.81 32.54,23.66 54.39,22.92l56.66 5.66c33.75,0.92 36.29,2.84 66.45,42.41 16.53,21.69 8.11,-1.95 21.76,18.26 6.65,-19.28 -5,-2.44 2.17,-20.06 13.11,12.78 0.62,10.29 21.27,14.63l-7.81 9.22 20.45 -3.74c-5.96,21.28 -15.37,0.39 -11.8,31.16 0.63,-3.6 -2.38,-6.81 2.11,-13.86 18.2,9.93 12,3.5 23.62,6.06 -7.62,-29.37 -10.37,-68.71 -12.68,-101.65l0.62 -16.87c0.05,-0.35 0.2,-1.19 0.25,-1.54l2.35 -11.58c-7.4,-1.48 -6.65,3.23 -7.1,-5.27 8.34,-8.3 1.42,-4.53 14.13,-6.02 5.07,8.47 10.34,28.02 4.11,36.88 15.8,12.72 4.06,-0.91 4.34,-13.88 0.37,-17.74 15.78,-14.99 -1.43,-31.54 9.86,-2.54 5,5.21 7.78,-4.57 -7.13,-12.09 -5.96,-10.31 -13.82,-12.19 1.7,-2.49 4.8,-7.19 6.96,-10.29 0.36,-0.53 4.08,-5.47 4.18,-5.56 0.53,-0.51 1.21,-1.08 1.79,-1.53 16.17,-12.62 -6.76,3.26 10.03,-5.08 0.51,-0.26 1.24,-0.72 1.75,-0.97 10.15,-4.97 10.35,-4.14 25.56,-3.59 -2.64,-3.99 -7.64,-13.04 -9.48,-16.5 9.29,-16.28 4.79,1.75 15.81,-15.83l0 -185.89c-13.2,-16.07 -39.31,-101.65 -48.49,-124.9 -10.95,7.2 -25.48,42.32 -35.22,55.85 -12.87,17.89 -26.65,31.02 -35.17,52.83z"/>
  <path class="fil4" d="M2352.24 2149.94c14.24,3.58 13.48,-8.31 23.31,-10.47 25.35,33.53 22.18,60.73 23.62,101.24 -7.69,-6.86 -34.92,-26.67 -37.56,-32.67 -3.08,-6.98 -9.72,-49.88 -9.37,-58.1zm-85.93 -241.44c9.26,15.12 -2.28,20.96 15.19,31.65 -5.68,1.08 -6.43,-2.43 -14.31,1.52 -6.24,44.23 29.16,94.47 32.07,104.22l3.52 10.16c-15.62,13.91 -7.87,3.93 -7.75,11.63 0.07,3.72 2.12,3.41 -3.24,9.45l-20 -8.88 -10.51 2.71c1.72,9.52 -4.5,4.52 4.42,8.46 -0.23,3.65 1.27,0.43 -6.15,3.98 5.66,13.3 7.24,25.4 12.16,38.04 4.42,11.34 10.32,17.16 14.35,30.34 -7.75,1.32 -18.72,-15.64 -37.99,-30.81l14.32 21.79 -15.49 -10.78c-3.91,7.51 -4.47,4.08 5.94,11.96 -16.79,-2.99 -25.02,-7.43 -39.47,-16.82 -5.88,5.34 2.64,3.93 -0.03,-4.7 -15.54,-0.8 -18.53,-0.31 -23.17,-13.83 -3.13,7.01 -2.75,2.79 4.7,11.85 -13.45,-1.99 -19.66,-6.69 -31.78,-11.59 0.17,-11.27 4.75,5.12 2.77,-15.26l-7.25 11.42 -21.88 -2.08 40.7 22.29c-8.82,5.87 -31.46,1.26 -28.43,13.68 3.02,-2.02 23.13,-4.79 29.15,-6.44 18.91,-5.17 9.36,-8.16 30.75,1.16 16.1,7.01 34.52,18.01 50.54,23.6 -12.24,10.22 -16.61,-0.73 -39.75,12.68 23.58,-4.42 32.44,-8.8 58.63,-7.37 -32.05,32.52 -23.03,18.42 -41.75,30.58 -24.23,15.76 -23.95,18.36 -53.08,5.58l8.77 -12.18 -11.72 -0.27c4.99,15.24 -2.97,13.27 8.27,24.72 19.47,19.85 24.45,25.52 55.16,41.88 9.51,5.05 44.74,1.92 54.38,-1.23 5.93,-1.94 16.24,-8.45 21.25,-12.04 14.43,-10.35 8.51,-0.59 9.1,-20.61l10.89 -0.15c13,5.4 16.6,7.91 24.88,19.63 12.59,17.83 11.84,5.79 22.88,22.67 12.93,19.76 17.89,47.82 6.23,69.58 0.89,25.47 -14.19,67.24 -23.88,92.28 -5.2,13.45 -11.23,20.27 -5.85,28.32 9.74,-16.25 20.05,-47.7 25.85,-66.33 9.76,-31.31 2.26,-52.05 29.18,-59.01 10.99,36.71 -6.45,68.28 -1.9,104.89 17.81,-7.65 69.69,-28.59 80.78,-38.48 -5.78,-16.65 22.15,-67.88 32.19,-81.75 20.26,-0.87 17.39,4.7 15.93,19.3 31.62,3.12 28.84,10.35 61.53,0.7 18.22,-5.38 39.78,-22.62 42.27,-32.23 9.72,-37.48 9.6,-11.31 19.47,-38.35 0.34,-0.94 6.9,-11.63 4.05,-16.32 -10.22,-16.83 9.32,9.26 -2.69,-3.08 -6.17,-6.35 -0.11,5.67 -8.06,-8.33l7.75 -9.05 18.61 -29.56c-16.41,-4.57 -62.46,-1.53 -77.08,9.95l-10.33 -9.27c-18.01,5.7 -24.85,14.18 -27.85,32.93 -7.91,-7.37 -3.22,-7.24 -13.84,-12.52 -12.77,9.98 -20.67,21.51 -27.13,37.37 -9.03,22.2 -2.35,38.03 -7.76,52.98 -10.53,16.72 -8.53,1.27 -18.57,17.91 -19.28,31.96 -21.59,50.37 -31.27,71.86 -12.46,-40.7 -18.82,-92.73 -19.99,-135.23 19.19,-12.39 6.23,-5.72 12.4,-13.02 5.05,-5.98 15.47,-5.04 21.07,-1.86 7.04,-12.93 -4.52,1.85 3.18,-12 10.43,0.3 6.78,0.6 9.07,5.72 6.57,-11.84 11.4,-14.43 20.96,-24.24 16.97,-17.4 6.31,-14.87 24.42,-12.21 0.77,-33.96 10.28,-21.92 13.72,-46.71 0.19,-1.34 0.57,-8.29 0.58,-8.36 1.89,-8.82 -0.93,0.74 7.93,-11.56l-9.95 -8.14 17.67 -3.13c-12.31,-11.14 -13.07,-9.53 -7.53,-27.29 2.68,-8.63 4.9,-23.55 9.8,-29.01l-2.82 -14.02 -18.84 -1.96c22.79,-12.54 20.18,-8.27 17.63,-37.47l2.02 -52.36 -24.34 8.86c-22.48,23.27 -43.99,6.21 -58.38,47.91 -8.99,-11.38 -17.12,-5.87 -20.29,4.64 -4.1,9.48 -4.06,12.19 -13.12,17.29l-3.1 -17.03c-22.75,33.75 -29.65,11.18 -45.22,4.76 -0.18,12.67 0,19.86 13.6,23.29 10.23,2.58 6.04,-1.55 17.21,3.73l4.75 2.24c3.17,-9.7 -0.56,-7 7.36,-13.04 -27.01,42.49 -13.57,62.56 -18.51,88.37 -2.27,11.83 -6.01,18.36 -5.4,29.82 -12.7,-6.23 -11.27,-6.24 -14.49,-23.11 -8.84,-46.26 -15.16,-50.57 -18.14,-64.36 -5.49,-25.35 20.51,-13.76 10.51,-94.38 -8.06,-2.01 -1.42,6.65 -10.58,0.02 11.64,-16.16 0.89,-31.44 -3.74,-48.48 -8.81,-7.13 -4.43,-14.66 -18.1,-21.82 -15.96,7.82 -6.46,14.13 -18.95,25.32 -0.75,-13.33 2.53,-26.28 -3.39,-38.69l-14.26 -15.71c-2.96,-1.61 -3.49,-1.2 -4.98,-1.7l-11.48 -6.15c-18.4,-13.54 -15.4,-4.55 -35.27,-26.71 -12.95,-5.16 -1.55,-7.89 -16.11,-4.07 -0.61,23.82 -0.47,42.19 -5.57,65.45z"/>
  <path class="fil4" d="M447.12 3241.79l-5.43 11.33 -25.38 -87.53c-1.66,-8.41 1.25,-15.87 -3.24,-29.02 -12.76,3.3 -5.64,-2.53 -8.45,9.47 -4.69,10.56 -16.92,34.82 -18.54,45.43 -2.13,13.88 21.94,86.65 28.05,103.91 10.3,29.1 9,24.01 1.92,54.51l-30.94 -23.81 -4.27 72.2c0.59,10.09 6.02,19.89 9.76,29.58 5.87,15.25 8.23,11.21 10.95,11.87 23.4,5.68 -13.65,-8.06 7.16,1.24 -8.54,12.78 -13.97,32.1 -21.35,46.05 -5.74,10.84 -4.38,1.8 -11.1,18.18 -3.23,7.86 -6.01,8.74 -9.03,18.46 0.88,-5.8 3.42,-12.78 3.82,-14.6l-0.11 -9.22c-1.94,-10.73 -2.75,-16.35 -3.31,-27.68 -0.92,-18.66 -3.64,-38 -10.94,-54.5 -5.65,6.5 0.01,17.56 -11.44,-5.95 -8.25,-16.92 -7.53,-7.68 -36.06,-11.57 -17.27,-2.35 -3,-0.88 -14.59,-5.33 -5.9,9.96 -2.31,4.22 -3.62,16.6l19.76 22.19c3.82,-7.75 5.7,-7.23 13.76,-11.88 17.54,11.81 21.42,22.83 12.24,40.67 -4.56,8.85 -3.98,3.66 -11.72,11.8 10.14,36.43 7.02,49.7 -7.55,82.94 -10.28,23.43 11.68,58.73 19.13,78.71 -19.94,-10.99 -8.45,-11.31 -19.74,-41.37l-9.29 1.57c-0.81,24.47 2.47,23.96 -3.16,49.94 2.01,26.33 -13.16,93.21 -27.29,113.79 4.27,6.48 2.02,7.64 8.72,7.33 -20.27,-1.99 -13.86,5.55 -19.14,17.35 -5.42,12.13 -12.82,7.2 -16.22,32.82 23.52,-16.25 -5.62,-14.26 33.58,-23.26 13.13,-3.01 8.64,2.74 15.4,-6.63 -9.45,6.1 -3.69,8.82 -3.52,13.87l7.1 -2.97c4.44,-21.95 22.17,-66.02 33.57,-83.29l50.29 -83.39c0.42,-0.42 1.12,-0.96 1.56,-1.38 10.12,-9.77 8.37,1.76 8.86,-13.8l14.38 -8.77c-7.68,-3.63 -21.09,-5.09 -14.91,-13.63 -4.49,5.87 -10.35,6.98 -17.73,1.8 10.91,-12.32 9.21,-7.84 18.88,-14.01l16.64 -16.24c13.08,-20.03 -4.45,-22.35 34.71,-68.28l4.24 -4.96c6.44,-6.77 15.46,-13.46 21.79,-20.85 7.55,-8.79 4.6,-8.88 11.97,-15.19 28.55,-24.44 42.01,-25.64 68.84,-39.28 8.84,-11.15 15.22,-10.27 21.91,-24.58 9.38,-20.08 15.18,-56.52 -29.48,-26.83l35.86 -24.76c6.54,-5.8 1.39,-3.42 9.53,-11.62 22.71,-22.85 14.97,-9.91 31.89,-49.5 23.56,-55.11 15.5,-49.05 25.12,-96.42 2.27,-11.17 6.57,-22.94 9.13,-35.52 9.79,0.87 4.74,0.23 18.38,-6.73 -2.19,-16.17 19.36,-7.84 2.8,-31.48 -9.65,-13.76 -11.62,-13.07 -3.52,-32.77 5.28,-1.79 -2.3,-3.98 9.4,0.48l-0.02 -15.96c-32.79,-2.08 -20.08,19.85 -42.61,6.58 -0.29,-0.17 -0.96,-0.72 -1.26,-0.91 -0.35,-0.21 -1.01,-0.87 -1.38,-1.09 -0.41,-0.25 -1.12,-0.93 -1.58,-1.15 -7.28,-3.56 -2.23,-6.11 -10.29,-0.38l-5.71 10.28c6.21,-3.46 -0.62,-11.82 -8.68,1.14 -6.48,10.42 2.37,17.32 2.61,17.14l-1.99 -2.34c-4.1,3.6 -71.69,36.14 -89.86,52.62 -0.54,0.49 -4.25,4.39 -4.44,4.61 -0.59,0.66 -2.23,2.59 -2.8,3.29 -18.42,22.42 -9.87,3.75 -23.75,19.9l-18.34 20.31c-11.52,15.15 -25.7,33.27 -29.93,50.47z"/>
  <path class="fil5" d="M2679.86 3518.51l-1.43 8.8c16.2,3.39 32.56,3.97 47.22,9.9l39.99 18.38c20.87,0.88 29.46,0.1 48.63,5.84 13.45,4.03 9.79,2.02 21.24,9.21 15.43,9.67 5.81,3.95 13.08,15.05 13.62,9.47 5.59,14.81 29.83,51.32 8.15,12.27 21.93,37.07 36.43,40.27 16.01,20.53 45.8,33.72 70.56,41.14 23.67,7.09 70.53,12.7 88.88,22.74 3.32,12.47 -6.88,1.61 3.54,13.47 5.97,-9.75 2.49,-7.16 12.06,0.41 0.1,0.08 8.86,10.85 9.94,11.96 11.16,11.51 9.27,13.05 18.41,24.25 9.19,11.26 26.96,51.06 29.56,52.5 12.42,28.99 41.3,127.02 43.8,129.98 11.69,-2.87 17.5,-13.47 23.22,-24.29 -0.54,17.33 7.47,34.73 -4.15,42.42 9.85,3.14 9.73,-4.09 14.17,41.03 0.77,7.8 1.71,14.21 5.62,21.89 3.12,6.14 1.61,4.2 6.49,8.22l3.62 2.41c0.53,0.36 1.4,0.9 1.89,1.22 0.49,0.32 1.51,0.98 1.91,1.24 0.41,0.27 1.37,0.74 1.93,1.26 -8.91,12.42 -5.39,-0.76 -13.66,12.32 27.23,-4.19 11.43,-10.08 18.12,-68.79 1.64,-14.34 10.93,-49.5 -0.78,-68.25 -1.47,-2.89 -6.25,1.9 -12.06,7.3 -10.68,9.94 -5.66,11.25 -11.47,22.65 -7.07,-6.78 -3.09,5.45 -7.29,-14.01l2.14 -45.51c2.91,-16.85 8.31,-36.01 17.22,-49.43 -4.85,-12.53 6.34,-17.32 14.9,-22.71 -11.69,-4.59 -13.57,-7.75 -23.02,8.19 -2.6,4.38 -7.14,12.49 -8.49,17.45 -3.82,-3.46 -1.76,4.69 -3.26,-11.49 -0.58,-6.31 -1.68,-14.39 -2.82,-20.95 -16.63,7.59 -13.31,-2.45 -8.09,18.77 -9.22,-8.53 -13.84,10.34 -16.16,18.45l-8.96 -24.99c-0.27,-16.85 -7.89,-14.54 -11.35,-34.15 -2.2,-12.45 -5.54,-25.36 -5.27,-37.36l-0.6 -36.93 4.93 -36.18 -9.1 -0.68 13.04 -64.74c-4.95,-0.71 -3.06,-13.49 -9.93,8.39 -1.76,-14.03 -2.15,-8.85 -10.23,-18.59 -10.99,-13.24 -1.01,-15.22 -16.57,-10.6 -3.14,12.83 -2.5,24.98 2.06,36.93l14.62 27.36c-3.87,2.27 -3.89,0.48 -7.87,8.35 5.8,11.51 1.94,21.22 -0.03,33.8 -16.77,-12.82 -36.81,-12.14 -55.09,-22.68 -4.41,-18.17 -4.48,-28.96 -6.14,-46.61 -1.56,-16.54 -8.96,-30.03 -10.6,-44.76 -8.63,-14.77 -13.89,-29.83 -21.92,-43.75 -9.19,-15.95 -21.39,-22.31 -31.46,-37.26 -6.77,-3.23 -11.51,-5.95 -17.6,-10.57 -0.29,-0.22 -8.45,-6.52 -8.55,-6.62 -6.71,-6.22 -6.26,7.95 -9.44,-11.99 -10.74,-9.81 -87.54,-34.97 -105.45,-38.47 -8.99,-0.13 -67.8,-11.68 -53.69,-13.29l-30 -11.89c5.45,11.76 10.1,18.97 15.77,31.04 6.65,14.19 4.05,17.29 8.74,29.95 4.08,11.02 12.16,17.41 14.83,29.73 2.2,10.11 1.45,17.05 4.33,28.97 -10.12,1.46 -72.99,-11.84 -83.7,-16.04 -12.57,-4.92 -25.52,-7.18 -40.64,-10.99 -39.47,-9.95 -12.47,-11.27 -35.85,-9.99z"/>
  <path class="fil6" d="M2891.21 2340.02c-13.7,40.03 -18.15,66.06 -8.45,105.92l3.88 14.08c-12.82,10.75 -19.67,16.85 -21.71,33.81 23.72,9.18 46.64,23.87 62.79,42.13 9.36,10.57 15.86,24.82 16.01,39.01 0.45,42.04 -2.7,13.67 12.31,40.73l27.55 41.39c3.84,-17.46 -1.22,-28.47 -0.59,-45.6 0.53,-14.22 5.42,-30.57 6.31,-45.43 2.95,-49.43 -1.67,-21.99 9.08,-62.86 3.23,-12.28 -0.38,-13.97 4.63,-22.05l-18.65 -100.97c12.88,0.82 20.05,6.48 30.08,13.84l8.1 -3.38c-1.2,-10.87 -5.52,-18.74 -8.53,-26.08 -8.71,-21.19 -7.91,-8.68 -18.16,-21.23 -5.1,-6.26 -2.11,-5.39 -8.37,-12.88 -13.32,-15.92 -9.3,-6.25 -25.76,-31.48 -1.69,-5.57 -32.5,-53.41 -36.84,-56.34l-30.01 86.89c-1.17,3.47 -2.38,4.65 -3.67,10.5z"/>
  <path class="fil2" d="M1117.59 1962.57l4.22 12.37c13.44,1.29 10.03,-2.65 24.23,-7.34 15.53,4.6 7.13,9.95 30.02,10.33 13.82,0.23 21.57,-1.42 32.27,-9.94 20.03,-15.97 20.26,-40.99 29.64,-50.11l6.11 -9.46c2.89,-16.66 14.61,-4.46 12.24,-22.75 -11.52,-2.06 -11.23,2.19 -22.33,2.92 -20.48,1.33 -44.16,-14.13 -63.86,13.43 -6.35,-0.66 -2.54,-0.26 -6.71,-1.8 -0.61,-0.23 -3,-1.91 -3.94,-2.29 -19.63,21.61 -18.3,26.04 -20.72,55.55l-21.17 9.09z"/>
 </g>
</svg>
