<?xml version="1.0" encoding="UTF-8"?>
<!DOCTYPE svg PUBLIC "-//W3C//DTD SVG 1.1//EN" "http://www.w3.org/Graphics/SVG/1.1/DTD/svg11.dtd">
<!-- Creator: CorelDRAW (Versão de avaliação) -->
<svg xmlns="http://www.w3.org/2000/svg" xml:space="preserve" width="3510px" height="4963px" version="1.1" style="shape-rendering:geometricPrecision; text-rendering:geometricPrecision; image-rendering:optimizeQuality; fill-rule:evenodd; clip-rule:evenodd"
viewBox="0 0 3509.87 4962.48"
 xmlns:xlink="http://www.w3.org/1999/xlink"
 xmlns:xodm="http://www.corel.com/coreldraw/odm/2003">
 <defs>
  <style type="text/css">
   <![CDATA[
    .str0 {stroke:#2D2A2B;stroke-width:2.36;stroke-miterlimit:22.9256}
    .fil0 {fill:none}
    .fil2 {fill:#181B04}
    .fil6 {fill:#875906}
    .fil1 {fill:#914F0E}
    .fil4 {fill:#984608}
    .fil3 {fill:#A33B03}
    .fil5 {fill:#AC550C}
   ]]>
  </style>
 </defs>
 <g id="Camada_x0020_1">
  <metadata id="CorelCorpID_0Corel-Layer"/>
  <rect class="fil0 str0" x="1.18" y="1.18" width="3507.51" height="4960.12"/>
  <path class="fil1" d="M2949.99 2796.35l0.24 13.2 93.02 8.69c4.73,13.06 -8.34,20.56 -15.73,29.24 -7.97,9.35 -1.81,6.72 -9.78,14.33 -4.52,4.32 -9.01,5.9 -15.37,12.72 2.42,8.1 1.39,5.39 6.31,13.03 10.85,-0.18 20.06,12.48 29.93,18.76 11.42,7.26 20.44,8.4 33.81,17.85 18.76,13.26 53.86,18.25 72.84,33.58 23.14,18.69 46.66,136.69 62.08,150l11.83 -33.58c1.44,-10.3 1,-13.44 7.1,-20.64 -9.81,-34.97 -31.8,-66.31 -49.82,-96.73 -42.79,-72.25 0.89,-122.97 -81.91,-214.99 -46.77,-51.98 -79.17,-43.62 -88.75,-59.53l-14.88 -3.61c-9.87,1.31 -4.62,-2.36 -10.76,4.44 16.18,4.62 28.66,7.82 40.52,17.33 -10.25,0.37 -11.48,1.33 -19.92,-4.36 -2.84,10.16 0.69,7.46 2.17,10.69 5.77,12.59 2.37,36.93 0.73,41.89 -14.69,1.31 -0.15,0.75 -15.45,-6.06 0.39,0.82 1.21,1 1.49,2.28l21.6 28.69c12.67,16.87 18.88,3.31 27.11,30.3 -11.46,-4.4 -57.47,-7.07 -67.35,-5.86 -14.42,1.77 -3.7,3.69 -21.06,-1.66z"/>
  <path class="fil2" d="M270.12 2465.45l16.64 22.02c9.98,-27.91 8.23,-39.63 3.69,-61.08 0.69,0.37 1.56,0.93 2.03,1.15l4.24 1.98c0.68,0.25 1.5,0.54 2.24,0.77 14.58,4.52 7.91,-1.34 23.12,7.82l18.2 8.97c2.09,1.47 0.65,1.27 5.01,4.1 -0.17,-14.98 5.37,-26.73 10.6,-39.61 3.17,3.75 1.09,-2.27 1.77,6.23l-0.16 4.66c-0.06,1.1 -1.05,7.66 -1.24,10.36 -0.5,7.29 -0.91,16.81 -1.11,24.09 -0.43,16.3 0.82,32.57 -1.7,48.72 -1.92,12.3 -4.26,11.87 -6.48,22.29 -1.12,5.29 -2.33,14.9 -3.42,20.81 -1.21,6.58 -2.74,13.3 -4.2,19.87 -2.22,10.02 1.41,16.29 -10.07,17.27 4.72,69.96 21.2,44.3 -0.11,157.73 -3.16,16.84 -15.89,62.18 -12.63,75.62 2.49,10.26 20.99,56.53 26.93,63.08 2.5,-2.95 42.38,-150.38 44.8,-164.59 17.5,-102.72 6.27,-196.45 -15.62,-293.59 -10.23,-45.43 -14.07,-36.9 -48,-58.39 -56.6,-35.86 -61.07,-102.24 -64.97,-151.98l0.86 -15.92c-9.54,12.1 -7.81,27.06 -8.65,43.9 -1.34,26.71 -14.92,13.17 -1.29,31.85l-11.49 7.84c11.92,7.43 4.71,-1.87 8.98,8.84 -12.13,19.67 -2.11,10.64 3.47,30.05 3.26,11.34 -1.11,8.35 2.2,19.99 0.05,0.18 0.39,0.83 0.44,1l0.56 1.97c2.96,13.05 1.18,7.89 12.58,15.52l-2.23 6.29c1.46,14.91 -0.4,-7.12 3.45,8.04l1.56 92.33z"/>
  <path class="fil3" d="M580.17 2133.88l-32.61 13.65c-29.1,10.9 -56.89,50.42 -69.8,77.85 -8.89,18.87 -14.17,38.48 -16.22,59.37 -1.79,18.18 1.3,51.49 -8.7,63.12 12.55,9.96 8.89,12.16 0.77,22.77 9.36,-1.45 5.28,-0.08 9.58,1.08 12.29,-9.22 14.87,-17.32 32.07,-22.95 15.97,-5.23 28.61,-5.71 44.95,-13.11 9.5,-5.46 34.13,-22.29 40.82,-28.35 11.24,-10.17 20.56,-33.28 32.28,-41.06 0.94,-14.56 26.04,-63.75 31.04,-82.92 15.62,-59.77 11.06,-39.95 29.65,-78.86 -12.21,-4.37 -92.07,28.21 -93.83,29.41z"/>
  <path class="fil4" d="M687.15 3077.28c-11.7,-4.46 -4.12,-2.27 -9.4,-0.48 -8.1,19.7 -6.13,19.01 3.52,32.77 16.56,23.64 -4.99,15.31 -2.8,31.48 7,28.19 23.16,26.08 45.38,28.7 7.99,9.8 19.06,39.99 23.04,53.17 10.01,33.18 6.35,39.39 3.85,71.33l13.58 3.21c8.65,-8.66 2.11,0.93 5.89,-10.8 0.57,-1.77 1.78,-8.43 2.8,-11.76 8.55,-28.07 34.58,-39.09 44.34,-54.64 30.25,9.54 47.22,22.01 70.01,-14.55l16.36 -28.06c0.53,-0.77 2.18,-2.89 2.63,-3.64 3.59,-6.03 1.56,5.13 2.75,-6.21 -20.36,-2.31 -33.87,-8.67 -52.74,-5.2 -35.73,21.4 -3.99,3.75 -28.07,10.5 -3.42,8.63 -7.9,13.45 -10.71,22.8 -4.65,15.51 -1.13,12.02 -12.39,23.43 -7.31,7.41 -11.69,9.08 -18.35,15.05 -7.65,6.84 -8.63,12.25 -18,19.69 4.49,-44.38 11.73,-103.75 38.91,-139.51 17.64,-8.21 43.01,0.16 52.46,-26.28 3.39,-11.06 -0.06,-10.32 5.75,-20.48 11.7,-0.78 22.28,3.6 28.15,0.72l-26.56 -6.69c-4.51,-24.74 1.03,-12.67 1.67,-31.52 -12.98,-0.25 -23.37,11.45 -33.5,16.55 -18.64,9.4 -14.68,1.91 -25.92,22.86 -10.9,20.33 0.91,24.47 -8.83,42.38 -4.82,8.87 -12.99,19.14 -18.98,29.15 -1.48,-5.94 -10.64,-79.77 -11.27,-90.86 15.04,-18.04 21.99,-28.27 10.07,-52.78 -2.37,-4.9 -25.73,-34.97 -28.96,-36.99 -8.38,7.91 -6.65,17.45 -10.52,28.62 -1.61,4.66 -40.11,39.44 23.47,66.33 0.96,28.62 4.57,57.48 5.03,86.33 0.18,11.48 -2.74,57.85 -7.83,69.89 -3.04,7.2 0.02,2.05 -3.83,5.86 -5.23,-14.88 -9.26,-24.09 -16.33,-38.47 -13.16,-26.74 -3.66,-19.06 -6.37,-45.38 -0.74,-7.19 -1.9,-14.86 -5.56,-21.41 -9.76,-17.49 -2.22,6.61 -42.74,-35.11z"/>
  <path class="fil5" d="M3064.14 2276.24c6.37,17.61 5.04,28.48 15.64,47.06 5.28,9.26 20.4,32.06 26.54,37.52 23.02,7.63 29.47,17.4 58.79,18.47l-16.62 -33.54c8.1,10.25 19.43,31.53 30.06,34.76l-3.41 -7.72c6.99,-41.26 7.35,-69.67 -14.11,-106.51 -8.34,-14.33 -16.28,-24.81 -30.21,-33.89 -8.8,-5.74 -32.05,-17.77 -36.22,-25.1 -14.26,-6.22 -26.23,-19.52 -39.73,-21.39 10.32,34.8 10.34,53.86 9.27,90.34z"/>
  <path class="fil6" d="M3163.6 2056.94c-4.27,24.59 -13.78,38.44 -6.62,64.75 8.7,31.97 18.8,28.27 42.89,40.82 1.21,19.33 -6.12,103.55 3.86,112.56 12.28,-6.29 4.94,-37.54 4.36,-51.55 -0.84,-20.51 -1.13,-41.77 0.86,-62 25.05,-9.92 41.32,-24.34 45.39,-54.64 7.79,-33.97 -14.54,-73.98 -31.01,-103.29 -10.63,-18.91 -5.6,-13.5 2.82,-28.71l-12.06 2.37c-14.59,-1.85 -3.44,-5.53 -11.93,-0.67 -1.78,16.32 -8.13,29.86 -17.73,42.99 -10.74,14.68 -7.19,24.28 -20.83,37.37z"/>
 </g>
</svg>
