<?xml version="1.0" encoding="UTF-8"?>
<!DOCTYPE svg PUBLIC "-//W3C//DTD SVG 1.1//EN" "http://www.w3.org/Graphics/SVG/1.1/DTD/svg11.dtd">
<!-- Creator: CorelDRAW (Versão de avaliação) -->
<svg xmlns="http://www.w3.org/2000/svg" xml:space="preserve" width="3510px" height="4963px" version="1.1" style="shape-rendering:geometricPrecision; text-rendering:geometricPrecision; image-rendering:optimizeQuality; fill-rule:evenodd; clip-rule:evenodd"
viewBox="0 0 3509.87 4962.48"
 xmlns:xlink="http://www.w3.org/1999/xlink"
 xmlns:xodm="http://www.corel.com/coreldraw/odm/2003">
 <defs>
  <style type="text/css">
   <![CDATA[
    .str0 {stroke:#2D2A2B;stroke-width:2.36;stroke-miterlimit:22.9256}
    .fil0 {fill:none}
    .fil2 {fill:#121105}
    .fil1 {fill:#151305}
    .fil3 {fill:#663906}
    .fil4 {fill:#723308}
   ]]>
  </style>
 </defs>
 <g id="Camada_x0020_1">
  <metadata id="CorelCorpID_0Corel-Layer"/>
  <rect class="fil0 str0" x="1.18" y="1.18" width="3507.51" height="4960.12"/>
  <path class="fil1" d="M1839.67 3222.52l16.49 -9.13c-35.49,6.36 -29.96,68.41 -25.27,95 4.53,25.71 16.6,69.77 16,82.05 -2.65,53.77 12.25,14.84 19.37,46.46 1.94,8.61 4.82,28.73 5.56,37.51 -13.63,-3.63 -14.03,-10.22 -32.4,-16.53 -14.57,-5 -19.02,-12.28 -20.14,-28.51 -2.05,-29.8 -1.18,-66.57 0.76,-96.49 2.15,-33.14 7.47,-92.81 19.21,-122.72 3.32,-8.48 13.95,-24.3 13.62,-29.44 -7.21,10.58 -14.14,26.91 -13.2,41.8zm-435.44 10.51l5.3 65.54c0.34,15.96 -14.84,53.26 -22.81,67.52 -21.05,45.79 -82.44,94.27 -120.87,37 9.98,-23.53 12.23,-20.9 -9.78,-33.2l4.38 -12.22 22.62 -55.21c6.47,-17.24 29.59,-70.91 40.75,-79.64 5.43,-33.61 20.63,-31.35 47.46,-79.63 11.32,-20.37 19.25,-85.6 35.2,-95.2 6.36,8.15 6.91,32.5 9.59,44.88 5.65,26.03 7.77,19.28 1.82,45.14 -5.71,24.76 -13.96,70.47 -13.66,95.02zm227.74 -243.94c20.31,11.29 59.14,54.08 65.47,77.76l-24.25 13.41c-7.3,-12.98 -18.83,-30.24 -28.1,-40.65 -8.3,-9.33 -27.51,-22.19 -34.63,-34.15 23.19,-21.59 16.65,-12.32 14.48,-23.6l27.16 -12.91c-8.64,8.16 -13.92,10.75 -20.13,20.14zm-381.21 149.73c-11.21,27.08 -28.31,51.32 -34.98,80.07 -2.46,15.66 -13.37,75.25 -19.9,82.7l-10.26 45.59 -1.87 17.69c-37.95,-1.33 -8.63,12.01 -40.95,84.89 -51.91,-8.04 -23.72,1.09 -50.22,-2.02 -16.47,-1.94 -29.97,-11.34 -45.81,-12.35 4.58,-24.45 20.6,-61.26 31.79,-83.64l18.82 -47.53c10.4,-38.59 37.77,-81.72 47.77,-120.26 9.93,-22.26 22.13,-64.35 35.47,-80.89 -0.35,-16.17 32.33,-83.93 40.47,-104.12 7.71,-19.11 35.32,-94.95 46.81,-103.22l-17.66 134.05 25.67 6.66c2.55,26.34 -3.91,87.43 -25.15,102.38zm368.31 -171c-5.96,-31.82 -41.12,-17.28 -23.42,-55.02 3.81,-8.13 10.56,-20.01 16.41,-26.13 18.48,-19.35 8.8,1.32 12.51,-25.2 18.15,6.17 3.42,4.76 7.52,21 17.75,6.24 13.42,-0.2 27.88,-2.58 5.37,8.45 11.05,40.3 9.84,50.37 -10.86,13.93 -35.38,30.99 -50.74,37.56zm-61.62 -161.85c11.34,3.8 9.12,6.8 15.6,15.2l13.86 -5.04 20.23 25.37c-2.63,11.03 -3.92,5.91 -6.67,17.69 -2.36,10.13 1.23,7.47 -3.13,18.54 -3.54,8.95 -39.55,53.72 -18.13,73.13 2.72,2.47 15.8,7.04 32.58,24.29 -7.81,14.61 -11.09,6.48 -18.7,25.57l9.92 13.28c-36.55,32.22 -58.13,72 -74.92,84.16l2.69 -63.25c13.43,-0.23 21.88,-1.35 32.03,-9.15 6.28,-47.36 -11.34,-117.03 -13.7,-165.74l15.72 -7.93 -7.38 -46.12zm-269.69 -724.88c-8.48,18.44 -7.47,23.93 -1.68,42.55 4.61,-11.9 -2.26,-20.51 13.01,-26.37 -6.84,23.27 -3.32,60.98 9.27,78.85 -0.76,-10.23 -3.48,-12.8 0.55,-22.17 4.95,20.44 14.93,28.98 7.88,50.73 11.29,-1.53 4.34,-2.45 12.9,-12.83 2.05,8.56 1.99,20.8 6.2,26.6 7.91,10.91 1.65,-1.18 11.28,-2.76 8.39,17.21 7.2,13.25 22.2,14.17 -0.2,12.88 -2.5,20.56 -9.34,31.6 -33.21,1.03 -46.46,-10.57 -86.4,-3.38 -60.98,10.99 -16.08,48.14 -44.66,56.31 -3.63,13.08 -16.71,10.61 -14.46,36.42 1.38,15.75 11.25,23.18 15.32,36.37 -20.25,19.8 -68.85,6.49 -93.08,97 -15.23,41.93 -18.13,48.2 -8.74,69.86 -15.07,18.53 -17.73,34.6 -22.62,57.98 10.38,6.97 4.89,1.81 17.39,5.58 -0.69,22.83 -5.73,45.61 -5.19,69.78 0.46,20.68 0.93,14.33 9.14,27.91 12.66,20.96 -21.19,16.4 30.74,42.07 37.41,18.5 64.86,14.99 102.77,12.87 0.77,6.22 -8.58,88.87 -9.27,91.16 -2.37,7.99 -13.61,24.67 -18.31,36.87 -20.87,54.25 -63.45,126.57 -83.24,186.28l-34.7 92.04c-14.32,26.41 -48.1,131.86 -58.26,143.65l-19.39 46.22c-1.04,4.45 -17.04,51.48 -18.52,54.24 -5.77,10.76 -9.98,6.28 -10.37,23.89l2.32 30.62c-5.26,3.8 1.45,2.08 -9.23,4.81l98.6 16.94c10.62,1.68 10.3,4.64 21.92,5.35 13.02,0.8 13.04,-2.93 24.34,-0.02 19.39,5.01 36.78,4.34 57.29,5.13 53.35,2.07 109.9,-3.21 161.55,-13.1 39.54,-7.56 26.08,7.01 39.15,14.29 18.22,3.43 38.54,5.9 57.13,4.26 29.55,-2.6 10.1,-13.35 44.46,-2.83 22.62,6.93 60.52,2.16 84.35,-1.39 18.1,-2.7 12.86,0.52 19.79,-13.77 44.94,4.44 97.3,3.11 140.68,-5.79l-1.47 -27.49c-9.12,-11.16 -6.35,-16.77 -20.92,-26.01 -14.75,-9.35 -31.11,-6.33 -48.06,-3.88 13.41,-56.01 56.7,-74.93 33.59,-125.37l31.75 -18.15c0.77,38.28 9.51,81.81 9.6,93.12 0.1,13.39 -7.57,34.43 -3.2,43 7.5,14.69 19.63,4.79 16.8,38.71 7.44,11.32 -5.72,42.35 34.77,46.06 24.17,2.21 54.68,1.49 75.09,-7.39 -5.63,-13.69 -2.22,4.6 -7.91,-11.05 16.27,-1.25 101.88,11.54 95.38,-15.42 -5.34,-46.73 -38.33,-20.35 -52.01,-43.78 -10.67,-18.28 -8.63,-63.52 -14.42,-84.85 3.03,-37.19 -3.34,-78.68 2.55,-113.22l1.74 -21.52c3.44,-44.31 15.93,-49.15 36.35,-100.06 9.64,-24.03 16.09,-2.04 4.89,-61.98l-0.39 -5.83c-50.91,-8.69 -78.62,-11.99 -129.4,3.51 -62.05,18.94 -66.33,33.27 -96.61,45.39 -5,-14.32 -2.77,-15.23 -14.42,-26.44 21.24,-19.45 119.4,-70.07 142.91,-65.04 -29.87,-4.56 -1.82,15.41 -79.2,-27.34 -25.98,-14.35 -76.48,-20.29 -82.95,-32.13 12.61,-15.26 95.2,25.23 112.12,33.39 38.55,18.57 83.21,30.58 126.11,37.4l-17.63 -43.8 6.27 -2.14 -3.76 -35.33c-21.86,3.3 -8.39,4.32 -8.39,4.32 1.67,-9.28 -2.08,-5.51 6.1,-8.03l-27.78 -10.47c0.09,-3.76 -0.65,-9.67 1.37,-14.01 4.4,-9.45 -3.39,-8.71 11.99,-9.34l-10.04 -2.68 -6.99 24.1c-19.92,-1.6 -39.13,-14.31 -58.6,-19.14l7.43 -22.52c3.24,-7.23 1.51,-2.75 -1.51,-4.58 -3.66,12.65 -5.67,14.29 -12.1,24.55l-58.86 -23.22c-12.24,-4.85 -9.92,-1.72 -16.29,-11.66l7.88 -13.92c1.66,-5.39 0.39,-1.21 -5.42,-1.69 -3.24,28.4 -10.91,17.65 -22.48,33.88 -10.29,14.45 -8.97,16.64 -22.75,27.17 -0.63,-5.57 -4.9,-42.55 -4.17,-45.79 3.84,-17 13.89,-19.59 1.68,-41.74 -16.02,-29.05 -34.33,-28.27 -61.46,-48.1 7.55,-13 7.58,-7.18 1.22,-24.63 -4.02,-11.03 -3.87,-12.93 -13.69,-19.87 -27.16,-19.16 -12.43,-17.97 -24.94,-44.75 -5.66,-12.13 -21.03,-35.76 -24.74,-45.26 -2.42,-6.2 -5.49,-47.32 -8.27,-60.87 -8.13,-39.75 -16.75,-82.23 -16.27,-122.37 0.22,-18.18 -6.76,-39.55 -15.67,-55.39 -15.81,-28.12 1.36,-19.45 -11.17,-50.81 -10.16,-19.16 -1.77,6.93 -25.31,-27.8 -9.47,-13.98 -18.43,-16.73 -28.88,-27.15l10.54 -26.69c24.28,-0.96 50.13,24.54 61.57,-12.72 5.27,-17.16 1.25,-3.98 8.29,-13.96l12.39 -22.15c2.55,-8.86 -7.08,-1.95 3.59,-13.4l14.06 -7.59c-0.16,-20.15 -17.26,-19.43 -16.31,-42.28 0.35,-8.5 11.25,-34.68 16.22,-41.55 3.8,11.59 -3.02,6.23 1.79,16.88 9.57,-8.23 22.13,-27.12 20.79,-41.28 -1.73,-18.42 -10.2,-27.88 -17.18,-43.27 11.86,5.13 12,10.23 17.84,21.43 0.54,-19.33 -10.83,-26.85 -20.06,-39.48l-50.62 -24.37c13.04,-4.46 19.14,-1.42 22.23,-2.74 -12.42,-15.75 -15.94,-9.04 -35.33,-10.16 -16.14,-0.93 -19.91,-6.67 -33.16,-12.16 -22.96,-9.52 -49.25,-2.89 -71.84,4.93 4.17,-9.54 8.25,-6.38 15.75,-12.49 -22.95,-3.46 -32.22,12.45 -45.07,25.37 -18.98,-5.52 -21.86,-1.52 -37.57,5.19 -0.95,7.11 0.47,3.22 1.81,7.26 7.47,22.63 -0.22,-12.98 2.32,5.88 -8.25,4.26 -19.78,8.19 -26.54,13.08 -3.67,2.66 -6.54,5.76 -9.52,8.73l-8.48 9.38c18.83,-0.56 9.6,-3.27 23.87,-8.82 -1.45,7.59 -27.41,43.25 -33.61,48.4z"/>
  <path class="fil2" d="M1860.97 2618.26c-28.92,4.47 -51.58,19.6 -68.87,39.93 -11.43,19.42 -17.7,33.99 -31.57,52.73 -7.25,9.8 -12.92,16.32 -10.23,29.43 3.58,17.44 10.73,12.76 16.19,22.64 -5.36,13.82 -10.62,31.05 -16.91,43.22 -3.93,7.63 -23.16,34.69 -12.69,36.94 5.81,0.48 7.08,-3.7 5.42,1.69l79.37 24.25c3.02,1.83 4.75,-2.65 1.51,4.58l58.16 17.56 10.04 2.68 29.39 13.22 -2.76 19.07 -12.21 1.53c-8.18,2.52 -4.43,-1.25 -6.1,8.03 0,0 -13.47,-1.02 8.39,-4.32l3.76 35.33c2.21,11.55 10.57,36.4 13.97,46.75l22.45 4.01c3.07,-15.29 11.7,-26.26 10.68,-40.65 -1.36,-19.14 -7.68,-23.04 -12.93,-38.91 -7.32,0.95 -6.12,3.06 -6.12,-3.19 -5.53,-10.04 -1.02,-4.18 -17.27,-6.43 6.54,-8.77 3.72,-8.94 2.4,-19.86 15.67,-1.35 13.12,6.66 23.49,-6.4 17.5,-22.05 -13.2,-46.03 4.72,-68.96 -0.92,-14.95 3.28,-16.36 11.03,-27.68 16.98,5.86 31.08,1.99 49.43,-4.78 19.18,-7.09 30.15,-3.48 36.79,-23.38 6.42,-19.27 16.13,-15.95 21.22,-39.92 8.23,-38.73 13.65,-34.4 10.63,-51.8 -10.68,-11.37 -31.51,-8.56 -46.37,-9.52l-23.58 -3.66c-12.26,-0.83 -26.44,-1.96 -36.12,-9.57 -12.45,-28.09 1.4,-30.79 -38.07,-40.37 -29.69,-7.21 -36.46,-11.05 -68.48,-7.79l-8.76 3.6z"/>
  <path class="fil3" d="M1945.05 3049.8c6.96,-11.08 15.05,-20.45 3.23,-32.27l-22.45 -4.01c-3.4,-10.35 -11.76,-35.2 -13.97,-46.75l-6.27 2.14 17.63 43.8c-42.9,-6.82 -87.56,-18.83 -126.11,-37.4 -16.92,-8.16 -99.51,-48.65 -112.12,-33.39 6.47,11.84 56.97,17.78 82.95,32.13 77.38,42.75 49.33,22.78 79.2,27.34 -23.51,-5.03 -121.67,45.59 -142.91,65.04 11.65,11.21 9.42,12.12 14.42,26.44 30.28,-12.12 34.56,-26.45 96.61,-45.39 50.78,-15.5 78.49,-12.2 129.4,-3.51l0.39 5.83z"/>
  <path class="fil3" d="M1631.97 2989.09c6.21,-9.39 11.49,-11.98 20.13,-20.14l-27.16 12.91c2.17,11.28 8.71,2.01 -14.48,23.6 7.12,11.96 26.33,24.82 34.63,34.15 9.27,10.41 20.8,27.67 28.1,40.65l24.25 -13.41c-6.33,-23.68 -45.16,-66.47 -65.47,-77.76z"/>
  <path class="fil4" d="M1821.68 2869.09l-79.37 -24.25 -7.88 13.92c6.37,9.94 4.05,6.81 16.29,11.66l58.86 23.22c6.43,-10.26 8.44,-11.9 12.1,-24.55z"/>
  <path class="fil3" d="M1881.35 2891.23l-58.16 -17.56 -7.43 22.52c19.47,4.83 38.68,17.54 58.6,19.14l6.99 -24.1z"/>
 </g>
</svg>
