<?xml version="1.0" encoding="UTF-8"?>
<!DOCTYPE svg PUBLIC "-//W3C//DTD SVG 1.1//EN" "http://www.w3.org/Graphics/SVG/1.1/DTD/svg11.dtd">
<!-- Creator: CorelDRAW (Versão de avaliação) -->
<svg xmlns="http://www.w3.org/2000/svg" xml:space="preserve" width="3510px" height="4963px" version="1.1" style="shape-rendering:geometricPrecision; text-rendering:geometricPrecision; image-rendering:optimizeQuality; fill-rule:evenodd; clip-rule:evenodd"
viewBox="0 0 3509.87 4962.48"
 xmlns:xlink="http://www.w3.org/1999/xlink"
 xmlns:xodm="http://www.corel.com/coreldraw/odm/2003">
 <defs>
  <style type="text/css">
   <![CDATA[
    .str0 {stroke:#2D2A2B;stroke-width:2.36;stroke-miterlimit:22.9256}
    .fil0 {fill:none}
    .fil5 {fill:#B9A474}
    .fil6 {fill:#CCB27A}
    .fil2 {fill:#D4A868}
    .fil3 {fill:#D4B88B}
    .fil4 {fill:#D8BD93}
    .fil1 {fill:#DDC294}
    .fil7 {fill:#DDC39B}
   ]]>
  </style>
 </defs>
 <g id="Camada_x0020_1">
  <metadata id="CorelCorpID_0Corel-Layer"/>
  <rect class="fil0 str0" x="1.18" y="1.18" width="3507.51" height="4960.12"/>
  <path class="fil1" d="M1573.52 2023.61c9.23,12.63 20.6,20.15 20.06,39.48 -5.84,-11.2 -5.98,-16.3 -17.84,-21.43 6.98,15.39 15.45,24.85 17.18,43.27 1.34,14.16 -11.22,33.05 -20.79,41.28 -4.81,-10.65 2.01,-5.29 -1.79,-16.88 -4.97,6.87 -15.87,33.05 -16.22,41.55 -0.95,22.85 16.15,22.13 16.31,42.28l-14.06 7.59c2.05,5.18 2.05,13.74 28.23,5.22l-6.11 -19.75c20.01,0.98 1.84,-0.66 15.94,9.06l21.08 -7.78c-6.58,7.58 -13.42,13.94 -26.42,15.82 0.59,6.19 2.72,5.38 0.7,8.39 -4.45,6.63 -13.91,-8.15 -4.64,8.96 5.66,6.42 12.72,-3.43 18.53,-12.42 13.39,-0.45 11.73,4.8 23.22,0.16 14.32,-5.78 -0.8,-10.05 18.28,-9.83l-5.53 6.1c-0.27,0.64 -0.75,1.56 -0.96,2.28 -0.2,0.71 -0.25,1.74 -0.36,2.43 -0.12,0.73 0.19,1.99 0.15,2.6 -0.04,0.65 0.09,1.87 0.45,2.71 10.01,-0.38 6.94,2.07 14.35,-4.68 2.78,-2.54 6.88,-10.2 14.72,-11.78 -4.99,14.91 -0.82,5.96 -15.63,12.27 4.97,2.56 0.94,1.46 8.61,2.94 3.85,0.74 8.29,0.75 12.05,0.96 12.88,-14.02 -8.33,-2.28 27.18,-34.2l16.37 3.07c9.81,-20.85 3.7,-28.2 31.95,-81.01 54.82,-102.47 184.12,-177.02 297.61,-159.86 84.22,12.72 98.99,22.09 166.69,65.53 18.5,11.87 45.64,41.81 58.96,60.31l20 8.88c5.36,-6.04 3.31,-5.73 3.24,-9.45 -0.12,-7.7 -7.87,2.28 7.75,-11.63l-3.52 -10.16c-2.91,-9.75 -38.31,-59.99 -32.07,-104.22 7.88,-3.95 8.63,-0.44 14.31,-1.52 -17.47,-10.69 -5.93,-16.53 -15.19,-31.65l-2.5 -24.54c-13.16,1.49 -17.12,0.92 -28.17,7.73 -11.82,7.29 -6.68,-0.44 -14.8,5.86l-2.47 6.54c-12.38,-6.11 -6.01,-5.72 -8.57,-11.47 -5.63,-12.65 -3.55,-3.86 -13.42,-13.98 2.95,-0.51 4.68,-1.25 8.1,-5.42 9.49,-11.54 2.91,-0.98 5.8,-11.28 -12.79,1.96 -8.12,1.96 -17.34,8.8 2.67,-7.94 4.02,-1.71 -0.62,-9.2 -8.16,-13.18 -6.56,-4.33 -8.9,-4.72l-14.22 -6.68c-0.34,-1.25 -1.17,-1.54 -2,-1.97 -0.6,0.9 -1.02,2.17 -1.25,2.98 -2.96,10.92 -4.48,10.49 2.67,13.07 -8.75,-1.32 -8.47,-2.24 -16.04,-0.78 -12.34,2.38 0.89,6.1 -10.02,2.43 0.43,-10.36 10.91,-8.83 21.6,-15.31 -8.31,-7.81 -9.96,-5.03 -21.66,-2.77 -2.08,-6.71 0.13,1 0.88,-5.73l0.26 -5.67c-9.75,0.17 -7.86,-1.25 -18,-6.98 0.86,-0.39 2.06,-0.43 2.77,-0.64 0.71,-0.2 1.87,-0.42 2.73,-0.69 0.91,-0.3 4.25,-1.32 5.19,-1.73 6.53,-2.89 4.2,0.18 8.47,-5.97 -19.32,-12.09 -14.59,-6.16 -39.25,-0.92l20.19 7.33c-9.64,1.69 -16.7,0.63 -25.03,2.71 -19.33,4.83 -0.02,6.14 -20.38,4.54l17.27 -10.63c-0.05,-0.03 2.26,-11.62 -12.82,2.81l-8.68 -12.23c-0.74,10.38 -3.38,4.69 2.96,14.57 -19.19,2.76 -14.04,6.39 -37.59,5.88 13.09,-5.7 5.95,2.32 10.42,-7.44 -12.41,-6.2 -5.97,-5.59 -8.95,-12.28 -14.14,12.76 -6.45,8.12 -11.37,16.66l-12.35 0.1 3.6 -14.27c3.99,-13.49 0.24,1.64 9.68,-13.32 -13.77,-0.58 -6,2.13 -15.98,-4.51 -7.35,3.51 -3.21,2.87 -6.7,5.66 -13.04,10.46 -17.19,-4.09 -36.03,-3.12 2.66,21.59 12.67,12.4 28.64,15.73l-14.19 12.34c-6.49,-3.02 -7.56,-5.51 -11.28,-10.8 -7.05,9.3 -14.97,14.83 -25.26,18.78 -4.05,-3.78 -5.69,-7.9 -7.61,-9.05l-11.31 -2.3c-27.64,-5.11 -20.4,0.1 -24.16,3.06 6.68,11.58 7.01,6.94 15.47,14.83l3.84 3.87c3.4,1.71 2.9,1.38 8.73,1.74 -0.42,-14.92 -0.48,-2.24 -4.3,-12.99 12.35,-3.39 5.29,-3.89 13.4,2.24 -0.38,9.9 -4.28,17.05 -9.08,22.02 -6.49,-2.8 -5.96,-4.29 -11.87,-4.24 -8.09,0.07 -2.14,0.15 -7.61,1.56l4.95 -13.85c-15.01,-5.67 -36.19,-5.22 -47.6,6.78 -0.34,0.36 -7.46,10.14 -8.04,11.04 15.96,2.45 7.99,-3.39 20.91,2.72 -6.62,4.37 6.23,3.96 -10.99,3.77 -14.15,-0.15 -4.74,-6.95 -26.03,-11.42l-11.58 -0.91c-0.68,0 -1.56,0.12 -2.29,0.12l-24.77 -2.35c4.92,-13.7 10.1,-7.63 2.28,-15.07 -6.54,-6.23 -8.29,0.52 -11.97,-8.29 -9.69,7.83 -9.56,11.21 -18.62,12.64 -0.82,0.13 0.65,-0.97 -5.65,0.04 -9.94,1.59 -16.82,10.76 -19.98,20.38l15.27 -9.54c24.64,17.82 5.99,1.69 32.69,5.96l-8.61 3.87c-10.56,4.02 -11.08,2.47 -17.33,14.17l-5.67 -4.82c-0.31,-0.46 -0.4,-3.35 -0.86,-4.36l-10.12 9.91c-10.33,-5.49 -11.78,-8.27 -20.94,-9.07 -11.7,-1.02 -14.85,-4.34 -24.34,1.69 15.08,9.26 7.86,9.18 28.37,1.61 -1.18,5.47 2.43,7.38 -7.7,12.61 -9.82,5.07 -26.7,4.96 -34,-4.2l11.59 -13.06c-14.83,-1.84 -21.15,-5.07 -32.26,4.41l4.81 17c-19.67,-1.09 -3.96,-7.36 -19.39,1.77l-12.98 8.54c-0.28,-0.55 -1.27,0.83 -1.78,1.38l27.28 -7.32c0.83,1.39 4.79,7.54 5.33,8.3l4.06 4.89c-20.55,1.95 -10.38,-9.8 -23.44,4.01 6.46,10.41 2.8,8.44 13.57,7.57l-8.16 -8.14c20.33,-1.97 3.67,6.71 21.76,-2.65 13.27,-6.87 10.46,-5.31 26.39,-2.97 -9.27,4.15 -29.38,9.41 -37.42,16.57 3.53,12.32 4.74,-3.42 11.24,13.82 -10.59,-0.55 -11.47,-3.35 -18.96,-8.12 -8.56,15.21 -8.91,10.94 -21.5,19.17 20.13,11.43 3.43,-15.56 34.62,-9.36 -5.86,17.43 -18.54,13.03 -30.53,20.8l20.71 5.04c0.82,0.34 1.84,0.94 2.51,1.24l5 2.84c-0.66,0.28 -11.92,4.58 -11.93,4.59 -15.54,12.34 4.48,-10.39 -2.85,4.06l-1.37 4.25c-0.12,-0.51 -0.27,1.68 -0.67,2.42 -14.12,-11.38 -8.53,-8.07 -27.35,-7.93 -21.01,0.15 -8.84,-2.04 -25.13,-9.79 4.1,11.99 4.91,4.49 6.47,15.21 -12.2,4.03 -5.94,3.19 -12.49,8.88 -9.68,8.4 -1.58,1.78 -12.27,6.65 13.17,6.6 16.99,-7.42 19.92,13.91 -9.94,4.4 -8.14,4.25 -16.4,-4.22l-2.3 6.77c-0.4,0.35 -6.8,2.89 -7.52,2.97l-11.1 -1.63c-2.64,-0.2 -7.19,0.81 -10.52,1.35l2 8.25z"/>
  <path class="fil2" d="M1514.18 2344.62c12.53,31.36 -4.64,22.69 11.17,50.81 8.91,15.84 15.89,37.21 15.67,55.39 -0.48,40.14 8.14,82.62 16.27,122.37 2.78,13.55 5.85,54.67 8.27,60.87 3.71,9.5 19.08,33.13 24.74,45.26 12.51,26.78 -2.22,25.59 24.94,44.75 9.82,6.94 9.67,8.84 13.69,19.87 6.36,17.45 6.33,11.63 -1.22,24.63 27.13,19.83 45.44,19.05 61.46,48.1 12.21,22.15 2.16,24.74 -1.68,41.74 -0.73,3.24 3.54,40.22 4.17,45.79 13.78,-10.53 12.46,-12.72 22.75,-27.17 11.57,-16.23 19.24,-5.48 22.48,-33.88 -10.47,-2.25 8.76,-29.31 12.69,-36.94 6.29,-12.17 11.55,-29.4 16.91,-43.22 -5.46,-9.88 -12.61,-5.2 -16.19,-22.64 -2.69,-13.11 2.98,-19.63 10.23,-29.43 13.87,-18.74 20.14,-33.31 31.57,-52.73 -6.58,-19.04 5.66,-6.07 -5.11,-15.36 -11.03,-9.53 -5.67,1.32 -14.43,-9.44 -9.07,-11.16 -4.58,-17.34 -25.91,-15.5l8.67 -5.95c-10.43,-4.2 -11.54,-8.35 -22.07,-10.74 -7.52,17.05 2.11,-2.08 0.26,9.26 -13.9,-4.76 -2.78,-9.38 -14.32,-9.63 -0.38,-0.01 -1.6,1.15 -2.53,1.37 6.38,-14.61 -16.04,-21.5 -16.05,-21.5 -0.15,-0.31 0.22,-0.91 0.23,-1.02 0.95,-7.31 0.1,-4.72 -3.95,-15.13l-11.59 -15.84c-14.94,-9.86 2.39,3.37 -9.19,-0.93 10.33,-14.71 -1.86,-4.83 14.37,-10.76 -7.54,-7.33 -15.54,-9.56 -19.23,-19.37 -1.61,-4.26 -1.69,-1.03 0.41,-8.08 4.87,-16.34 -3.9,-16.89 8.56,-36.01l2.34 -6.29c14.45,-0.34 29.55,0.52 43.38,0.34 19.44,-0.25 5.23,-5.07 31.69,0.94 8.22,-8.21 -4.14,-5.47 -11.82,-11.12l14.74 -10.88 -17.99 -3.07 9.02 -7.55 -11.76 -3.42c1.57,-24.02 -3.23,-22.31 -10.24,-31.94 -8.55,-11.74 -3.7,-8.79 -3.99,-11.51l-3.22 -14.15 -10.91 7.98c0.67,-1.4 4.5,-7.34 4.56,-7.54l-15.44 -101.28c-0.2,-0.45 -2.65,-2.4 -3.36,-3.12 -25.41,18.49 16.38,-0.7 -15.52,24.89 -11.6,9.31 -16.2,24.48 -30.51,10.75 -21.25,33.55 -10.99,22.51 -38.01,19.92 -23.18,-2.23 3.1,16.82 -24.6,-3.34 -11.47,9.93 -5.22,6.6 -19.67,10.92 -0.14,32.88 -14.97,12.41 -38.4,10.56 -1.82,4.9 1.76,3.15 -6.33,7.2 -1.22,-8.07 6.12,-0.49 -2.71,-7.95l1.97 -3.01c7.37,-8.97 -8.18,8.26 2.51,-2.81 1.31,-1.36 1.39,-0.31 4.63,-3.86 -13.32,-2.94 -9.37,-2.8 -16.4,10.4z"/>
  <path class="fil3" d="M2287.99 1847.12c19.87,22.16 16.87,13.17 35.27,26.71l11.48 6.15c1.49,0.5 2.02,0.09 4.98,1.7l14.26 15.71c5.92,12.41 2.64,25.36 3.39,38.69 12.49,-11.19 2.99,-17.5 18.95,-25.32 13.67,7.16 9.29,14.69 18.1,21.82 23.04,-8.9 -6.6,6.2 23.87,3.5 -1.7,14.04 -11.29,26.6 5.97,39.78 -1.4,-12.21 -5.69,-22.53 0.09,-34.59 3.17,-6.61 12.47,-17.52 18.85,-14.75l13.56 -1.75c-26.92,6.43 25.25,23.93 25.26,23.93 8.63,5.11 -1.5,6.52 10.57,3.41 -0.75,0.68 -2.81,2.43 -3.09,3.11l-2.15 8.21 34.8 5.56c12.87,3.15 16.92,2.95 29.81,1.92l24.34 -8.86 -2.02 52.36c11.98,3.81 -0.41,1.1 13.18,1.01 0.36,3.86 9.81,25.49 4.32,38.14 13.56,-3.23 10.56,-4.2 25.82,1.85 12.31,4.89 5.4,2.28 7.95,4.99 0.43,0.46 5.54,6.01 9.21,8.78 5.26,-8.49 -0.02,-14.55 -0.74,-6.8 18.33,0.46 14.4,0.77 24.73,-4.36 15.7,-7.8 -3.65,9.94 14.36,-3.74 -3.13,23.47 -2.8,0.72 1.86,25.48l-37.47 29.27c39.32,18.45 35.48,3.45 54.48,5.38 -30.15,10.21 -28.95,2.97 -39.6,12.12l13.49 5.39c12.67,2.15 0.21,-5.26 14.16,2.6 10.89,6.13 4.82,14.03 18.92,9.1 -2.81,9.06 -3.88,-0.46 -1.68,8.64l15.66 3.81c3.15,-7.73 -5.69,-9.16 28.89,-16.75 -7.47,-6.47 -11.48,-4.1 -17.66,-7.35 4.46,-8.38 4.64,4.99 12.98,-10.03 -7.19,19.64 19.29,3.39 19.31,3.53 12.03,4.34 -0.45,-2.7 5.71,5.3l4.36 6.6c0.41,0.63 0.9,1.77 1.57,2.48l10.37 -44.43c8.85,4.62 18.86,26.08 26.82,35.58 10.14,12.1 16.56,25.13 25.73,37.22l11.48 -82.3c2.6,-49.13 19.33,-89.79 34.74,-135.61 -4.68,-7.86 6.09,-37.25 -23.39,-9.18l8.34 7.72c5.19,2.67 -0.82,1.67 6.41,2.39 -21.24,10.47 -7.25,-4.33 -23.2,1.65 2.43,12.37 2.33,12.21 17.3,10.88 -17.3,-1.4 -7.37,-1.81 -16.46,6.32l7.35 5.75c-0.06,-0.04 1.09,-7.81 -5.41,0.98 -0.11,0.16 -0.41,1 -0.48,1.21 -4.72,13.69 2.83,-6.67 0.5,5.95 -1.37,7.38 -3.14,1.47 -10.12,10.97 -10.07,13.71 13.48,6.67 -16.91,21.32 -2.49,-17.9 8.41,-2.77 -2.58,-16.73 -13.42,5.36 -5.92,7.54 -20.56,5.04 5.04,-10.01 6.59,-3.53 13.81,-15.21 3.18,-5.15 9.76,-16.41 11.7,-21.45 -13.71,0.96 -11.51,4.8 -18.3,11.82 -6.25,6.45 -11.36,5.56 -19.15,8.07 -41.17,13.25 3.38,-7.08 -28.15,-9.03 9.07,7.33 6.6,1.41 12.9,-2.5 -2.03,-14.12 0.77,-5.4 -5.96,-10.36 1.49,11.82 4.7,4.58 -2.55,11.94l-17.03 -1.37c7.32,-0.11 16.45,13.41 3.36,19.01 -0.79,0.34 -31.81,7.24 -33.05,7.25 -18.5,0.21 -38.62,-18.46 -45.01,-36.47 5.06,-9.76 0.49,-3.1 11.23,-9.56 -3.85,-8.64 -7.83,-25.48 -12.75,-32.48 -23.4,1.1 -30.91,3.74 -34.35,13.35 12.9,8 14.11,-0.87 25.84,6.6 -15.2,6.91 -22.91,5.99 -32.49,-5.5 -18.36,7.77 5.18,5.4 -12.89,8.32 -9.69,1.56 -6.13,-1.9 -17.36,-1.83l-6.53 10.52c-2.28,-6.26 1.64,-9.51 -11.71,-10.75 -8.31,-0.78 -11.91,-1.15 -19.8,6.2 8.5,-15.65 12.89,0.12 32.07,-16.48 -12.79,-8.94 -4.71,0.14 -16.38,-2.25 11.1,-11.72 14.91,1.4 27,-5.35 -12.8,-8.77 -7.46,-10.08 -25.76,-6.85 -15.19,2.68 -5.35,8.16 -20.81,-0.45 1.5,-8.96 0.35,-7.75 8.5,-11.13 3.17,10.61 -6.96,-3.06 -0.13,7.55l19.34 -3.93c-0.7,-6.17 -1.67,-2.32 -9.69,-9.39l25.2 -4.84c-50.01,-11.3 -41.44,14.46 -52.57,27.09 11.99,10.25 2.9,0.57 14.57,6.72 -13.33,12.6 -5.1,-2.7 -29.08,-5.28 0.8,-0.54 1.96,-0.99 2.55,-1.37l4.41 -2.82c5.71,-4.32 1.09,1.54 4.1,-4.81 -4.39,-0.74 -14.42,-2.36 -18.3,-3.36 -6.94,-1.8 -9.86,-4.14 -13.34,-4.84 -13.47,-2.72 -12.05,6.85 -25.25,4.93l12.88 -6.63 -9.57 -4.57c14.08,1.49 8.6,4.97 17.81,-0.59 -11.55,-11.15 -10.3,-3.96 -23.6,-11.92 -14.61,-8.73 -1.63,-0.39 1.55,-8.8l-12.22 -13.36c-7.64,17.65 -11.07,19.21 -29.53,12.54 14.18,-4.14 11.24,-6.42 12.16,-9.33 -8.22,0.43 -16.18,2.49 -24.11,3.57 -18.11,2.45 0.42,1.27 -19.43,-3.49 -1.88,3 -7.77,3.15 -0.13,8.86 -7.13,-6.76 -16.97,-8.02 -27.14,-8.86 -1.82,-9.46 -2.97,7.12 0.71,-3.4 0.08,-0.23 0.52,0.77 2.53,-5.65l-14.26 -2.9c16.66,-1.48 9.86,4.89 29.63,-0.46 -3.07,-9.87 -1.28,-12.46 -13.42,-15.98 -12.79,-3.7 -3.5,5.41 -14.29,-7.32 0.69,-0.11 7.41,-0.87 7.53,-0.91 6.42,-2.6 1.93,-0.52 5.68,-6.68 0.19,-0.31 0.64,-1.11 0.83,-1.42 13.06,-20.91 -1.1,10.7 4.45,-6.28 -7.5,-5.74 -7.51,-6.5 -15.16,-2.52 -2.1,1.09 -1.43,3.46 -5.83,7.67 -11.84,-12 -27.7,-4.32 -13.16,11.69 -15.48,-5.13 -3.36,2.18 -14.77,-1.51 -8.29,-21.02 11.06,5 0.56,-13.18 -3.89,-6.73 -6.53,-2.47 -21.14,-0.09l-4.52 0.62c-13.59,0.58 -1.65,-6.13 -12.66,0.5 3.49,10.88 11.68,2.43 26.35,23.68 -32.42,-10.77 -2.97,1.15 -40.96,-7.45l-4.99 7z"/>
  <path class="fil4" d="M993.14 1846.74c5.32,19.44 19.93,42.15 29.72,60.71 48.2,91.35 27.84,78.84 44.31,132.19 6.32,20.48 7.55,36.39 3.94,61.38l26.68 -34.4c5.16,-5.33 -1.92,-0.66 5.75,-3.83l12.41 22.5c41.81,10.48 28.62,3.14 31.22,28.15 1.68,16.13 0.52,-3.86 -5.58,15.48 5.63,8.56 7.45,6.73 11.77,8.25 -10.67,8.21 -6.85,0.49 -9.38,10.13 11.06,16.77 8.5,-0.01 8.21,17.41l9.82 -3.4c-6.7,19.54 -6.22,20.81 -2.56,30.72 10.68,28.93 -8.28,4.14 12.37,15.32 -3.29,7.65 -7.16,4.66 -4.07,10.26 2.49,4.49 5.82,8.76 8.75,12.66 -5.85,2.71 -7.28,12.01 -7.57,12.98 22.42,13.88 15.48,13.19 28.34,31.72 17.59,2.45 10.49,-1.8 14.88,-1.72l14 2.26c-1.3,-9.31 -4.27,-9.62 0.12,-12.15 6.62,-3.81 2.63,1.69 13.76,-2.75 -8.58,-6.72 3.01,-6.52 -14.09,-5.39 15.89,-2.42 8.24,-4.58 8.48,-4.64 0.36,-0.09 3.41,1.57 3.95,2.36 7.81,11.28 -5.07,13.01 -8.45,22.83 -2.19,6.33 -0.52,-0.92 0.41,9.21 1.23,13.3 -1.08,18.63 -1.36,29.41 28.58,-8.17 -16.32,-45.32 44.66,-56.31 39.94,-7.19 53.19,4.41 86.4,3.38 6.84,-11.04 9.14,-18.72 9.34,-31.6 -15,-0.92 -13.81,3.04 -22.2,-14.17 -9.63,1.58 -3.37,13.67 -11.28,2.76 -4.21,-5.8 -4.15,-18.04 -6.2,-26.6 -8.56,10.38 -1.61,11.3 -12.9,12.83 7.05,-21.75 -2.93,-30.29 -7.88,-50.73 -4.03,9.37 -1.31,11.94 -0.55,22.17 -12.59,-17.87 -16.11,-55.58 -9.27,-78.85 -15.27,5.86 -8.4,14.47 -13.01,26.37 -5.79,-18.62 -6.8,-24.11 1.68,-42.55 -13.74,2.97 -7.95,1.29 -18.14,-3.44 -11.26,-5.23 -7.19,-0.94 -20.34,-5.76l-3.22 -5.18c-8.64,-11.62 -17.31,-15.77 -23.43,-14.63 -5.88,1.11 -0.93,3.04 -9.38,3.06 -9.8,0.02 2.1,-4.56 -16.68,-2.11 0.13,12.46 -2.73,1.22 2.57,7.4 10.55,12.32 1.18,-6.8 18.23,6.04 -7.83,5.71 0.76,8.6 -15.87,1.84 0.71,0.63 2.82,1.83 3.49,5.01 1.62,7.74 2.7,-0.7 -1.44,8.02l-21.44 -13.33c-7.6,4.47 -1.54,3.92 -4.98,12.41l-7.43 -7.88c-4.73,-4.25 -2.79,-2.05 -5.46,-4.18 -6.62,-5.28 -3.28,-1.56 -9.32,-9.19 -6.28,11.59 0.13,4.47 -9.11,11.66l-25.26 -6.68c2.5,-11.68 9.92,-4.29 0.25,-16.65 -0.3,-0.39 -1.42,-0.76 -1.66,-1.9 -0.26,-1.2 -1.43,-1.19 -1.77,-2.02 25.52,-2.01 6.12,9.81 29.97,15.78l-22.39 -32.47 27.73 -7.45c7.93,10.98 -1.07,1.7 8.68,9.83 0.93,21.15 -3.38,7.82 -4.96,19.01 10.94,4.41 -0.43,0.21 6.03,1.29 0.81,0.13 3.32,0.44 4.19,0.56 4,0.55 5.25,0.76 10.52,0.71l-8.31 -11.58 7.92 -14.63c9.79,7.1 3.6,7.96 13.28,0.89 14.65,-10.72 4.57,-2.42 22.26,-8.78 -0.8,-2.81 5.84,-8.56 -9.99,-6.58 13.08,-0.81 11.91,-0.74 20.62,-9.6 10.77,-10.95 5.27,-5.16 17.12,-13.71 2.21,-12.44 -0.51,-14.94 2.42,-19.78 0.47,-0.79 5.84,-5.14 8.91,-14.23l0.87 -3.89c2.49,-9.12 5.84,-11.32 20.9,-16.82 -21.11,-16.54 -0.25,-6.55 -12.69,-23.62 -4.85,-6.66 -12.14,-2.48 -16.37,-0.09l-6.11 9.46c2.52,12.4 -1.56,-6.8 8.26,8.14 -6.43,12.08 -12.16,23.22 -16.38,35.65 -8.34,24.63 -33.84,42.06 -59.62,40.73l-45.53 -3c-1.45,-25.83 10.18,-16.56 21.34,-31.8 -14.2,4.69 -10.79,8.63 -24.23,7.34l-4.22 -12.37c0.2,-0.8 1.01,-1.63 1.3,-2.09 9.4,-14.68 7.97,-5.55 7.08,-13.97l-22.04 -2.03c-6.87,-13.93 4.31,-0.22 -3.17,-15.98l-21.59 -4.34c9.65,15.85 20.14,8.49 13.21,24.64 -15.98,6.06 0.28,2.3 -13.1,-3.32 -10.15,-4.26 0.2,-1.2 -14.61,-1.27 5.22,-7.64 5.13,-6.25 -1.58,-13.84 -16.64,-18.86 -0.72,-11.81 -12.36,-21.8 -28.87,-24.77 -21.73,-8.78 -21.2,-40.43 0.57,-33.74 -0.46,-16.75 24.85,-26.5 -13.29,-0.88 -8.36,1.86 -19.16,-6.09 -5,11.83 -3.68,5.41 -22.52,12.21 -5.06,-8.43 3.62,-0.98 -6.31,-9.42l-13.25 8.4z"/>
  <path class="fil5" d="M2574.28 2014.41c2.55,29.2 5.16,24.93 -17.63,37.47l18.84 1.96 2.82 14.02c3.36,20 -1.22,7.59 9.89,22.74 -9.52,8.24 -6.7,-3.44 -7.67,8.71 -0.23,2.85 -0.52,2.15 1.79,10.91l2.45 7.91c0.15,0.42 0.4,1.31 0.55,1.7l8.17 9.05c-0.8,0.81 -1.81,1.74 -2.57,2.26 -0.69,0.47 -1.66,1.43 -2.46,1.92l-8.31 2.24c0.06,0.03 5.35,3.52 5.58,3.79 2.35,2.7 3.58,3.17 2.48,10.96 -2.52,17.88 -9.15,15.44 -14.3,24.81 -15.01,27.28 8.79,19.39 -14.2,39.92 10.62,5.28 5.93,5.15 13.84,12.52 3,-18.75 9.84,-27.23 27.85,-32.93l10.33 9.27c14.62,-11.48 60.67,-14.52 77.08,-9.95 12.99,5.05 9.52,2.63 15.89,16.02 5.78,-0.23 20.55,-2.82 22.75,-2.69 9.63,0.55 6.91,7.81 21.5,-3.29l19.14 -63.88c-0.67,-0.71 -1.16,-1.85 -1.57,-2.48l-4.36 -6.6c-6.16,-8 6.32,-0.96 -5.71,-5.3 -0.02,-0.14 -26.5,16.11 -19.31,-3.53 -8.34,15.02 -8.52,1.65 -12.98,10.03 6.18,3.25 10.19,0.88 17.66,7.35 -34.58,7.59 -25.74,9.02 -28.89,16.75l-15.66 -3.81c-2.2,-9.1 -1.13,0.42 1.68,-8.64 -14.1,4.93 -8.03,-2.97 -18.92,-9.1 -13.95,-7.86 -1.49,-0.45 -14.16,-2.6l-13.49 -5.39c10.65,-9.15 9.45,-1.91 39.6,-12.12 -19,-1.93 -15.16,13.07 -54.48,-5.38l37.47 -29.27c-4.66,-24.76 -4.99,-2.01 -1.86,-25.48 -18.01,13.68 1.34,-4.06 -14.36,3.74 -10.33,5.13 -6.4,4.82 -24.73,4.36 0.72,-7.75 6,-1.69 0.74,6.8 -3.67,-2.77 -8.78,-8.32 -9.21,-8.78 -2.55,-2.71 4.36,-0.1 -7.95,-4.99 -15.26,-6.05 -12.26,-5.08 -25.82,-1.85 5.49,-12.65 -3.96,-34.28 -4.32,-38.14 -13.59,0.09 -1.2,2.8 -13.18,-1.01z"/>
  <path class="fil6" d="M2977.77 1551.19c-6.35,9.74 -7.75,2.78 -17.63,16.2 -1.08,1.46 -4.12,6.23 -4.83,7.15 14.1,5.42 -13.53,-4.96 4.43,0.85 2.37,0.76 0.86,-0.64 7.07,2.78 -17.08,13.67 -6.05,5.81 -14.81,25.63 -7.87,-6.87 -6.93,-11.7 -17.17,-6.75 17.87,5.22 6.06,1.05 8.48,13.88 23.03,8.96 23.91,1.99 36.03,5.99 9.45,3.12 0.24,-4.31 8.38,4.73l32.6 -3.39c1.97,-1.94 -0.59,-6.53 4.6,-0.54 12.95,1.89 31.22,5.53 42.87,6.54 10.03,0.87 23.27,-0.34 32.9,12.38 16.47,-5.56 18.28,-14.79 32.03,-26.12 -0.73,-0.44 -8.35,-5.55 -9.54,-6.22 -10.89,-6.19 -4.01,-1.55 -13.41,-5.12 -16.27,-6.17 -4.88,-8.37 -12.77,-3.56 -19.26,11.75 15.59,-2.24 -5.19,3.64 -6.07,-7.98 -10.76,-14.15 -18.4,-17.53 -10.36,14.12 2.46,1.37 -5.73,14.9 -6.67,-10.36 -5.61,-11.36 -7.41,-23.76 -11.74,-4.34 -3.69,-4.95 -13.52,-1.06 0.55,-9.9 3.28,-7.99 -3.37,-17.12l6.02 -5.19c-17.48,-0.88 -10.68,2.07 -22.43,-8.9 -10.61,-9.91 -6.24,-7.46 -15.01,-1.7 -5.65,-14.42 -0.15,-4.55 -6.72,-10.63 -3.67,-3.4 -1.65,4.34 -10.36,-10.24l5.75 -2.33c8.86,-1.24 1.9,-0.71 10.5,3.01 6.19,-16.13 -2.59,-15.74 -15.2,-17.71l16.23 -9.22 -19.51 -11.05c0.31,-9.64 0.67,-2.11 1.53,-6.03 1.36,-6.23 2.14,-1.06 1.28,-7.57l-18.98 -10.17c10.85,7.59 8.27,0.3 12.97,-3.02 -8.09,-8.23 -6.97,-6.07 -13.35,-9.35 2.25,0.66 5.16,2.1 7.63,2.79 14.41,4.05 2.14,-1.99 10.5,2.46 5.67,-8.2 0.65,-2.87 1.11,-10.38l5.09 -12.98 10.49 -0.6 -24.67 -38.44c-11.34,0.29 -10.33,2.11 -19.65,7.55 3.42,-0.51 16.81,1.69 20.27,10.22 -7.28,3.88 0.47,0.09 -5.97,1.44 -0.53,0.11 -1.46,0.23 -2.01,0.35 -23.21,4.86 -12.06,8.1 -25.34,14.91l9.58 7.53c-24.56,9.41 -1.14,12.36 -18.08,22.79 8.01,-1.12 7.69,3.67 16.5,3.67 0.86,10.79 -3.93,14.31 0.02,18.4 8.04,8.33 -4.58,-1.5 15.33,-0.12 13.31,29.97 0.86,2.65 -1.51,31.93l12.54 7.01c-11.59,7.31 -8.26,1.81 -9.9,16.45 10.37,11.73 3.48,0.35 15.58,9.34l-15.53 7.12c0.5,0.16 6.98,2.41 7.22,2.5 0.56,0.21 1.88,1.73 2.28,1.05 0.39,-0.67 1.53,0.67 2.24,1.1 -5.65,2.38 2.51,3.55 -12.05,0.51z"/>
  <path class="fil4" d="M713.55 1477.65c-10.66,6.16 -24.31,19.8 -31.68,29.87 8.99,6.99 -4.41,0.77 5.39,1.5 7.23,0.54 7.04,-4.27 13.38,4.54 10.36,14.39 -10.65,7.62 3.63,17.12 -9.45,7.76 -3.04,0.15 -14,7.01 11.34,7.1 26.83,23.54 35.65,23.51 -12.65,-1.53 -22.05,-13.98 -34.7,-17.05 -3.96,10.12 -0.64,-0.43 0.42,10.16l2.97 18.67c2.45,16.36 -3.75,9.73 8.55,17.18 -10.97,8.23 -4.04,4.08 -17.86,3.12 1.12,17.8 1.19,5.5 -11.55,12.36 16.37,2.35 3.95,0.13 8.76,6.57l4.53 37.94c6.95,8.66 10.04,24.44 6.53,36.48 17.35,-4.28 21.6,58.77 22.36,73.23 0.29,5.43 -0.16,10.2 -0.1,15.4 0.17,16.04 -5.1,8.41 2.65,10.92 0.65,-2.89 27.57,-27.82 33.43,-36.45 -0.92,-9.46 -2.42,-6.16 4.75,-14.61l-1.27 -2.57c-0.51,-0.13 -1.35,-0.36 -1.46,-0.01 -2.35,7.46 1.99,-1.22 -9.52,-3.87 -13.67,-3.13 -0.17,2.34 -14.61,1.72 0.41,-9.92 3.29,-3.88 -7.33,-16.04 10.81,-7.82 4.59,2.88 18.66,-5.52 -0.67,-0.58 -1.79,-2.16 -2.2,-1.5l-17.22 -8.78c-13.48,-14.81 7.47,-3.42 -6.87,-17.31 8.08,-5.59 7.1,-2.32 11.63,-8.29 9.19,-12.09 5.23,-6.63 1.86,-15.72 9.59,-6.14 17.28,-0.64 5.83,-13.61 16.73,-1.22 -5.03,-0.82 14.52,4.96 -4.09,-19.57 -6.68,4.5 -6.77,-23.77l4.71 1.95c14.99,6.22 6.9,5.07 8.31,11.53l18.13 -3.07c-12.59,-7.62 -9.41,-7.9 -19.65,-17.88 5.14,-4.42 7.58,-5.56 9.6,-12.49l-10.48 8.31c-1.66,-2.18 -4.89,-6.44 -6.27,-8.12l-3.03 -3.51c-0.47,-0.55 -1.13,-1.3 -1.56,-1.81l13.67 -21.52c-13.2,3.58 -6.23,2.35 -16.83,-0.11 -11.1,-2.58 -8.22,4.4 -11.21,-9.13 12.52,-4.36 5.01,2.06 15.07,-0.79 9.2,-2.6 -1.21,1.38 6.09,-3.03l7.71 -5.52c-5.46,-8.66 -12.59,-10.01 -8.17,-26.5l1.19 -3.28c13.67,11.95 1.92,14.35 23.71,17.38l-13.43 -10.52c-0.2,-9.62 -1.57,-0.43 3.69,-8.97 -13.72,-3.2 -11.27,-2.8 -23.96,-0.84 2.6,-7.06 3.95,-12.53 0.33,-19.74 15.11,-5.21 8.35,5.86 11.61,-7.44l-13.39 2.89c0.73,-11.54 -2.54,-5.61 8.65,-10.96 -13.26,-0.1 -21.52,-0.38 -32.73,-5.14l19.36 -3.67c-7.94,-5.27 -11.27,-3.49 -19.48,-5.18z"/>
  <path class="fil7" d="M2977.77 1551.19c14.56,3.04 6.4,1.87 12.05,-0.51 -0.71,-0.43 -1.85,-1.77 -2.24,-1.1 -0.4,0.68 -1.72,-0.84 -2.28,-1.05 -0.24,-0.09 -6.72,-2.34 -7.22,-2.5l15.53 -7.12c-12.1,-8.99 -5.21,2.39 -15.58,-9.34 1.64,-14.64 -1.69,-9.14 9.9,-16.45l-12.54 -7.01c2.37,-29.28 14.82,-1.96 1.51,-31.93 -19.91,-1.38 -7.29,8.45 -15.33,0.12 -3.95,-4.09 0.84,-7.61 -0.02,-18.4 -8.81,0 -8.49,-4.79 -16.5,-3.67 16.94,-10.43 -6.48,-13.38 18.08,-22.79l-9.58 -7.53c13.28,-6.81 2.13,-10.05 25.34,-14.91 0.55,-0.12 1.48,-0.24 2.01,-0.35 6.44,-1.35 -1.31,2.44 5.97,-1.44 -3.46,-8.53 -16.85,-10.73 -20.27,-10.22 9.32,-5.44 8.31,-7.26 19.65,-7.55l-18.3 -31.39c-8.05,10.02 -0.43,4.78 -7.08,0.32 -4.28,-2.87 -1.71,-4.14 -1.5,-5.12 -4.66,11.14 -10.27,10.97 -19.82,14.56 18.19,7.86 11.56,-13.15 19.16,9.42 -12.99,9.23 -4.56,-2.04 -18.95,5.93 -8.81,4.88 -0.09,7.08 -15.23,8.75 8.82,22.21 16.27,5.7 21.09,27.21l-11.73 -8.31c-5.13,11.42 5.86,0.14 -6.52,12.46l-1.06 -3.09c-4.29,-5.67 -7.18,-5.69 -13.89,-3.58 -1.68,7.03 -1.46,5.98 3.18,9.02l16.28 7.17c-5.02,7.36 -3.09,12.69 -2.09,20.26 -9.64,-6.51 -4.07,5.66 -11.14,-6.53 -8.97,-15.46 3.66,-3 -2.38,-14.69 -9.99,6.12 -5.11,5.83 1.55,18.01l-9.83 9.2 8.71 1.96c0.26,0.04 1.14,0.12 1.4,0.15l-4.62 15.24c6.95,8.11 -2.08,1.32 5.93,2.18 5.99,0.64 -0.12,-7.19 12.39,12.85 -9.84,6.16 2.64,0.31 -3.87,0.09l-20.73 6.62c2.91,3.62 8.18,5.91 11.64,6.21 4.09,0.35 7.89,-3.25 15.15,-6.63l1 20.05c12.95,0.63 5.25,-3.27 13.65,4.85l-3.66 12.86c0.11,0.52 0.45,1.39 0.63,1.92l1.87 4.06c8.28,17.03 7.64,13.16 25.03,12.37 13.55,-0.61 -0.98,-0.53 5.26,-0.63z"/>
 </g>
</svg>
