<?xml version="1.0" encoding="UTF-8"?>
<!DOCTYPE svg PUBLIC "-//W3C//DTD SVG 1.1//EN" "http://www.w3.org/Graphics/SVG/1.1/DTD/svg11.dtd">
<!-- Creator: CorelDRAW (Versão de avaliação) -->
<svg xmlns="http://www.w3.org/2000/svg" xml:space="preserve" width="3510px" height="4963px" version="1.1" style="shape-rendering:geometricPrecision; text-rendering:geometricPrecision; image-rendering:optimizeQuality; fill-rule:evenodd; clip-rule:evenodd"
viewBox="0 0 3509.87 4962.48"
 xmlns:xlink="http://www.w3.org/1999/xlink"
 xmlns:xodm="http://www.corel.com/coreldraw/odm/2003">
 <defs>
  <style type="text/css">
   <![CDATA[
    .str0 {stroke:#2D2A2B;stroke-width:2.36;stroke-miterlimit:22.9256}
    .fil0 {fill:none}
    .fil2 {fill:#447C66}
    .fil1 {fill:#48846B}
    .fil3 {fill:#6B9065}
   ]]>
  </style>
 </defs>
 <g id="Camada_x0020_1">
  <metadata id="CorelCorpID_0Corel-Layer"/>
  <rect class="fil0 str0" x="1.18" y="1.18" width="3507.51" height="4960.12"/>
  <path class="fil1" d="M2609.68 2542.77c-10.32,7.75 -25.86,12.41 -38.31,11.99 -13.88,8.79 -28.65,8.59 -45.59,16.1 -48.63,21.56 -116.67,40.41 -133.17,99.02 -5.39,19.15 -3.53,25.37 8.49,40.95 9,11.67 21.4,17.18 34.29,23.66 20.53,10.34 4.97,2.89 23.02,0.27 10.56,-1.54 14.08,-0.44 20.92,7.42 -5.61,11.73 -5.3,4.25 -16.16,10.85 15.52,10.14 26.56,32.14 22.76,51.9 10.46,2.59 9.43,6.9 7.29,26.13 -1.21,10.9 -4.17,17.12 -10.66,26.65l-4.28 5.12c-5.66,4.97 -1.84,1.43 -9.46,6.19 31.84,9.75 44.28,-12.11 80.49,8.05 0.56,0.3 1.26,0.82 1.81,1.13 0.55,0.3 1.27,0.75 1.83,1.05 3,1.58 3.66,1.48 6.16,2.8 9.49,5.03 1.78,-3.01 11.17,7.81 -1.03,0.34 -2.53,-0.75 -3.21,0.44 -3.62,6.4 -3.99,-2.52 -16.74,4.03l-27.14 17.23c-15.17,7.97 -8.3,-0.13 -16.53,15.08 16.68,-3.33 23.95,-10.58 40.35,-9.94 16.55,0.64 21.39,4.67 41.73,3.36 4.22,-7.96 19.05,-31.66 24,-35.85 2.98,6.33 -4.53,11.19 -8.63,14.63 -19.31,-6.08 0.62,-3.15 -16.99,-6.79l-7.98 -2.28c6.69,-13.32 3.06,-5.12 12.39,-11.72 -11.68,-2.03 -13.13,-8.26 -15.68,-19.37l19.09 -4.56c16.89,-11.5 8.23,-12.28 38.89,-11.48 15.8,0.42 12.17,1.11 15.26,-7.92 1.67,12.33 3.43,1.9 -3.79,13.72l19.45 1.67c-7.42,14.87 -0.88,5.19 -26.68,20.9 -12.6,7.68 -11.31,12.99 -18.63,25.28 -5.79,9.72 -13.49,17.4 -19.71,26 -12.49,17.27 -9.64,21.81 -31.41,15.87 0.42,4.55 -0.59,5.43 -1.26,6.77l-6.51 8.05c-7.49,9.23 -2.24,6.69 -11.98,10.95 -14.68,6.42 -5.18,-2.09 -13.38,6.48 -0.12,0.13 -9.34,12.26 -10.37,13.82 -14.77,-5.8 -4.86,-1.82 -10.58,-5.86l-4.44 -4.11c4.03,9.31 2.16,3.16 0.07,6.48 -16.34,-6.25 -19.25,-12.12 -40.39,-14.8 -18.94,-2.4 -33.76,-3.78 -52.35,-7.37l20.78 39.72c28.18,1.74 55.2,-7.73 76.92,-8.08 -6.24,8.05 -65.88,22.54 -72.25,23.08 0.44,22.45 1.95,44.38 -8.72,64.65 -10.08,19.15 -4.38,46.32 -2.86,67.41l20.22 -3.98c2.3,-33.44 -3.07,-23.74 14.52,-52.65 9.15,-15.04 24.23,-23.42 40.94,-30.27 3.37,21.96 3.27,44.74 -5.84,64.21l74.39 -22.22c4.77,-12.44 10.08,-23.46 15.6,-35.53 13.22,-28.92 3.83,-15.14 4.17,-40.68l27.9 11.55c11.17,-5.36 8.85,-17.2 13.39,-27.66 5.02,-11.57 15.65,-14.63 22.12,-25.46 -17.71,-29.38 -7,-58.79 -3.95,-90.57 15.3,3.99 6.39,3.57 16.27,15.93 5.55,6.95 9.09,6.11 16.34,13.96 10.47,11.32 13.94,30.11 24.01,38.6 10.69,-15.62 17.81,-15.28 25.22,-31.49l-8.23 -1.41c-9.04,-4.15 -9.02,-18.69 -6.24,-24.08 8.83,2.16 10.67,10.45 14.64,17.49 7.15,-6.34 5.35,-8.94 10.44,-17.92 5.99,-10.55 7.01,-6.71 12.14,-15.13 7.69,-12.61 13.45,-22.21 21.58,-34.87 -4.62,-17.09 -5.08,-37.12 -27.48,-54.78 -7.02,-5.53 -1.5,-0.3 -5.96,-4.67 -19.51,-19.19 -29.66,13.87 -49.07,-20.71 16.98,9.24 7.31,13.92 29.98,8.34 -9.78,-19.55 -42.22,-29.68 -46.41,-32.75 -21.42,-15.67 -28.37,-14.9 -53.51,-25.53 -39.37,-16.65 -23.88,-20.77 -29.58,-36.31 -10.06,-27.42 9.92,-33.69 17.26,-53.5 -3.41,-4.06 -10.01,2.6 0.36,-11.64 6.38,-8.76 17.88,-7.2 22.54,-23.61 -11.2,-5.12 -4.8,-6.24 -15.61,0.25 7.98,10.92 7.17,-1.79 6.08,10.23 -6.24,2.43 -11.06,5.88 -19.64,6.66 -4.66,-8.67 -1.21,-16.29 -12.02,-19.62 -10,-0.66 -2.6,3.04 -12.63,8.38 -7.13,3.79 -17.33,2.34 -23.46,-1.97 5.84,-5.41 9.77,-8.6 14.47,-7.28 -3.98,-3.8 -3.63,-2.78 -6.03,-5.45l-4.34 -5.74c-5.18,-6.24 -8.08,-6.04 -17.15,-5.41l3.58 -6.02c5.48,5.33 23.65,4.02 33.88,-1.54l30.38 -15.28c15.73,-7.2 4.37,-2.86 11.83,-12.29 15.67,5.46 13.67,3.2 27.73,1.92l3.61 -10.33c-15.37,1.3 -37.43,-0.03 -49.76,8.25z"/>
  <path class="fil2" d="M2041.9 3040.97l3.7 8.33c20.29,2.36 69.69,13.03 89.42,18.7 14.1,4.05 28.99,9 25.83,27.21 -2.32,13.42 -38.23,29.25 -52.47,34.51 -10.59,3.91 -12.72,2.24 -22.51,4.99 -16.1,4.52 -27.71,9.82 -42.85,14.63l-90.99 25.19 28.14 19.01c-13.58,-2.57 -8.99,-11.02 -42.06,0.69 -8.51,3.02 -9.79,6.57 -17.29,8.26 -10.05,2.27 -8.07,-5.33 -17.01,9.35l-1.74 21.52c11.31,3.44 26.16,-1.04 38.85,-1.32 12.73,-7.02 44.95,-14.63 57.63,-11.24 0.05,19.85 -10.38,38.43 -17.41,56.4l23.96 7.49c19.96,-2.99 36.73,-27.87 56.62,-36.41l-38.68 -31.05c13.34,9.14 30.66,18.52 47.41,24.52 37.63,-17.51 73.1,-40.77 115.39,-48.76 22.99,-4.35 44.98,-11.32 67.56,-14.14 23.44,-2.94 45.03,-8.35 67.8,-13.59 7.71,-1.29 14,-1.43 18.56,-6.77 -11.88,-32.52 -22.75,-25.79 -18.28,-71.99 8.02,1.06 30.35,19.54 36.63,25.06 16.75,14.71 21.26,20.08 26.45,44.05l32.53 -3.4c-0.05,-16.54 1.03,-58.29 -6.63,-71.81 -16.54,-29.18 -15.42,-23.05 -19.04,-59.38 -45.29,5.11 -92.86,-14.33 -126.15,-10.23 6.05,-5.75 39.93,2.56 65.5,2.97 13.65,0.22 24.84,2.35 36.81,2.91 20.69,0.98 25.48,2.37 27.76,-14.61 -18.97,-10.44 -58.94,-1.54 -78.19,5.17 17.08,-17.02 56.29,-9.37 80.39,-11.24 8.27,-12.59 17.77,-46.24 12.12,-37.6l78.29 8.83c15.56,2.85 6.54,7.6 21.85,7.04l4.44 4.11c5.72,4.04 -4.19,0.06 10.58,5.86 1.03,-1.56 10.25,-13.69 10.37,-13.82 8.2,-8.57 -1.3,-0.06 13.38,-6.48 9.74,-4.26 4.49,-1.72 11.98,-10.95l6.51 -8.05c0.67,-1.34 1.68,-2.22 1.26,-6.77 21.77,5.94 18.92,1.4 31.41,-15.87 6.22,-8.6 13.92,-16.28 19.71,-26 7.32,-12.29 6.03,-17.6 18.63,-25.28 25.8,-15.71 19.26,-6.03 26.68,-20.9l-19.45 -1.67c7.22,-11.82 5.46,-1.39 3.79,-13.72 -3.09,9.03 0.54,8.34 -15.26,7.92 -30.66,-0.8 -22,-0.02 -38.89,11.48l-19.09 4.56c2.55,11.11 4,17.34 15.68,19.37 -9.33,6.6 -5.7,-1.6 -12.39,11.72l7.98 2.28c17.61,3.64 -2.32,0.71 16.99,6.79 4.1,-3.44 11.61,-8.3 8.63,-14.63 -4.95,4.19 -19.78,27.89 -24,35.85 -20.34,1.31 -25.18,-2.72 -41.73,-3.36 -16.4,-0.64 -23.67,6.61 -40.35,9.94 8.23,-15.21 1.36,-7.11 16.53,-15.08l27.14 -17.23c12.75,-6.55 13.12,2.37 16.74,-4.03 0.68,-1.19 2.18,-0.1 3.21,-0.44 -9.39,-10.82 -1.68,-2.78 -11.17,-7.81 -2.5,-1.32 -3.16,-1.22 -6.16,-2.8 -0.56,-0.3 -1.28,-0.75 -1.83,-1.05 -0.55,-0.31 -1.25,-0.83 -1.81,-1.13 -36.21,-20.16 -48.65,1.7 -80.49,-8.05 7.62,-4.76 3.8,-1.22 9.46,-6.19l4.28 -5.12c6.49,-9.53 9.45,-15.75 10.66,-26.65 2.14,-19.23 3.17,-23.54 -7.29,-26.13 -3.34,13.25 -3.39,27.12 -14.52,37.36 1.37,-6.67 8.49,-11.46 14.48,-14.33 2.25,22.52 -15.48,33.3 -31.98,43.46 -7.5,4.62 -9.74,9.95 -20.85,15.7 -18.13,9.4 -65.85,26.55 -74.53,34.17 -19.19,16.87 3.01,9.81 -19.16,12.99 -19.65,2.81 -11.44,4.52 -14.28,13.96 -38.9,-0.17 -65.12,11.36 -85.69,14.05 -39.25,5.14 -35.25,14.23 -82.75,23.35 -14.35,2.76 -45.97,8.56 -54,19.13 -11.34,-13.02 -24.91,-4.73 -39.55,3.44 -14.29,7.99 -23.1,15.91 -21.2,32.76z"/>
  <path class="fil3" d="M2659.44 2534.52l-3.61 10.33c-14.06,1.28 -12.06,3.54 -27.73,-1.92 -7.46,9.43 3.9,5.09 -11.83,12.29l-30.38 15.28c-10.23,5.56 -28.4,6.87 -33.88,1.54l-3.58 6.02c9.07,-0.63 11.97,-0.83 17.15,5.41l4.34 5.74c2.4,2.67 2.05,1.65 6.03,5.45 -4.7,-1.32 -8.63,1.87 -14.47,7.28 6.13,4.31 16.33,5.76 23.46,1.97 10.03,-5.34 2.63,-9.04 12.63,-8.38 10.81,3.33 7.36,10.95 12.02,19.62 8.58,-0.78 13.4,-4.23 19.64,-6.66 1.09,-12.02 1.9,0.69 -6.08,-10.23 10.81,-6.49 4.41,-5.37 15.61,-0.25 -4.66,16.41 -16.16,14.85 -22.54,23.61 -10.37,14.24 -3.77,7.58 -0.36,11.64 11.42,-11.02 32.1,-25.72 45.88,-33.28 7.71,-4.22 46.81,-26.46 50.34,-31.27 0.57,-4.17 5.37,-2.04 11.36,-13.53 -31.61,-11.75 -20.56,-5.76 -51.75,-2.18 8.8,-4.35 20.53,-9.65 26.5,-17.31 -19.4,-16.38 -21.89,-5.21 -38.75,-1.17z"/>
 </g>
</svg>
