<?xml version="1.0" encoding="UTF-8"?>
<!DOCTYPE svg PUBLIC "-//W3C//DTD SVG 1.1//EN" "http://www.w3.org/Graphics/SVG/1.1/DTD/svg11.dtd">
<!-- Creator: CorelDRAW (Versão de avaliação) -->
<svg xmlns="http://www.w3.org/2000/svg" xml:space="preserve" width="3510px" height="4963px" version="1.1" style="shape-rendering:geometricPrecision; text-rendering:geometricPrecision; image-rendering:optimizeQuality; fill-rule:evenodd; clip-rule:evenodd"
viewBox="0 0 3509.87 4962.48"
 xmlns:xlink="http://www.w3.org/1999/xlink"
 xmlns:xodm="http://www.corel.com/coreldraw/odm/2003">
 <defs>
  <style type="text/css">
   <![CDATA[
    .str0 {stroke:#2D2A2B;stroke-width:2.36;stroke-miterlimit:22.9256}
    .fil0 {fill:none}
    .fil1 {fill:#EFAB33}
   ]]>
  </style>
 </defs>
 <g id="Camada_x0020_1">
  <metadata id="CorelCorpID_0Corel-Layer"/>
  <rect class="fil0 str0" x="1.18" y="1.18" width="3507.51" height="4960.12"/>
  <path class="fil1" d="M1716.58 2183.28l-7.53 41.23c-5.32,50.91 4.64,70.31 13.92,116.08 41.94,5.58 129.05,30.18 161.66,56.07 15.95,12.67 38.54,23.71 42.61,30.32 2.39,2.03 5.61,5.35 8.39,6.83 7.17,3.81 2.58,5.88 7.66,0.59 -10.54,-21.73 -16.75,-60.59 2.78,-76.4 31.44,14.05 38.81,55.13 38.88,86.88 0.05,21.49 5.88,29.58 16.84,47.32 8.44,13.66 14,32.42 22.76,44.13 -0.99,-38.25 7.81,-169.48 -3.12,-194.31 -4.81,-10.93 -16.15,-18.56 -19.81,-32.08 -1.74,-6.43 -5.19,-40.35 -3.55,-46.38 3.04,-11.2 6.21,-6.23 9.58,-14.2 1.8,-4.25 0.65,-12.51 2.3,-19.52 3.05,-12.98 10.02,-23.93 13.43,-37.61 11.65,5.31 15.8,14.48 21.03,26.87 2.72,6.45 4.33,11.35 6.13,17.97 4.2,15.45 22.62,39.65 6.17,82.29 -13.7,35.54 -21.95,-8.64 -16.04,104.2 1.55,29.52 4.51,63.06 4.31,92.07 7.19,-7.21 9.3,-25.04 16.64,-43.25 8.55,-21.19 11.93,-23.86 5.84,-45.71 -9.01,-32.3 10.6,-63.05 39.13,-74.72 22.87,28.8 18.87,77.48 -9.95,98.23 -16.53,11.9 -11.38,6.94 -24.41,41.98 -6.16,16.55 -14.19,35.16 -10.06,52.19 7.11,-9.76 18.8,-23.59 29.19,-28.76 23.7,-19.28 7.21,-13.53 20.98,-31.41 9.02,-11.71 14.85,-7.67 23.52,-16.32 8.1,-8.08 -1.44,-0.92 6.05,-9.2l10.82 -31.51c3.86,-5.24 -1.83,-0.13 5.38,-6.02l17.03 25.28c17.14,-3.88 27.61,1.13 39.17,13.83l6.85 5.62c0.47,-13.46 -5.13,-62.51 -10.34,-74.27l-6.38 -8.43c-9.23,-9.48 -6.87,-8.29 -16.51,-10.36 -16.63,-3.57 -14.87,-0.65 -28.42,-14.3 -7.86,-7.93 -24.5,-49.16 -25.52,-60.12 -1.86,-20.25 5.35,-8.04 4.16,-22.11 -1.66,-19.69 -6.34,-17.03 -1.1,-56.46 9.26,1.3 15.16,4.53 23.19,10.58 16.49,12.43 6.52,2.74 21.13,9.88 6.8,0.39 -7.49,-5.32 -8.61,-6.18 -12.63,-9.77 2.85,-9.44 -11.87,-21.28 -2.09,-1.68 -4.21,0.87 -8.88,-8.63 -0.11,-0.24 -4.87,-8.85 -4.96,-8.98 -17.34,-26.45 -19.14,-17.12 -19.09,-48.34 0.03,-14.13 2.63,-8.39 4.7,-21.97 -6.38,-5.41 -8.25,-11.21 -13.12,-17.28 -7.43,-9.26 -10.73,-6.96 -16.85,-17.05l15.73 -6.56c6.3,-1.4 12.09,-2.07 18.42,-3.17 39.65,-6.89 30.99,-11.56 52.95,17.28 2.38,-2.54 12.17,-10.35 16.81,-14.3l-6.13 -34.04c15.43,-0.3 17.34,4.39 31.76,8.06 16.11,4.1 16.94,0.98 24.04,16.68l5.01 -3.55 10.51 -2.71c-13.32,-18.5 -40.46,-48.44 -58.96,-60.31 -67.7,-43.44 -82.47,-52.81 -166.69,-65.53 -113.49,-17.16 -242.79,57.39 -297.61,159.86 -28.25,52.81 -22.14,60.16 -31.95,81.01z"/>
 </g>
</svg>
