<?xml version="1.0" encoding="UTF-8"?>
<!DOCTYPE svg PUBLIC "-//W3C//DTD SVG 1.1//EN" "http://www.w3.org/Graphics/SVG/1.1/DTD/svg11.dtd">
<!-- Creator: CorelDRAW (Versão de avaliação) -->
<svg xmlns="http://www.w3.org/2000/svg" xml:space="preserve" width="3510px" height="4963px" version="1.1" style="shape-rendering:geometricPrecision; text-rendering:geometricPrecision; image-rendering:optimizeQuality; fill-rule:evenodd; clip-rule:evenodd"
viewBox="0 0 3509.87 4962.48"
 xmlns:xlink="http://www.w3.org/1999/xlink"
 xmlns:xodm="http://www.corel.com/coreldraw/odm/2003">
 <defs>
  <style type="text/css">
   <![CDATA[
    .str0 {stroke:#2D2A2B;stroke-width:2.36;stroke-miterlimit:22.9256}
    .fil0 {fill:none}
    .fil3 {fill:#194528}
    .fil8 {fill:#563707}
    .fil9 {fill:#875817}
    .fil11 {fill:#914F0E}
    .fil5 {fill:#986C34}
    .fil6 {fill:#A67739}
    .fil4 {fill:#AC8348}
    .fil7 {fill:#AE732E}
    .fil12 {fill:#B88637}
    .fil10 {fill:#CCA46B}
    .fil1 {fill:#D6B174}
    .fil2 {fill:#DCBB8B}
   ]]>
  </style>
 </defs>
 <g id="Camada_x0020_1">
  <metadata id="CorelCorpID_0Corel-Layer"/>
  <rect class="fil0 str0" x="1.18" y="1.18" width="3507.51" height="4960.12"/>
  <path class="fil1" d="M678.36 3715.69c8.85,6.5 16.19,14.16 24.39,20.81 12.89,10.44 21.22,8.22 22.12,20.38 -14.04,3.62 -30.22,2.17 -42.76,13.27 1.62,-0.96 14.9,-2.55 18.73,-2.59 17.6,-0.16 9.04,3.32 19.91,7.75l8.83 -13.9c7.09,7.04 3.13,8.66 8.62,12.33 7.04,4.69 -11.15,-0.37 3.45,0.08l4.73 0.02c0.63,0.01 1.99,-0.18 2.88,0.18 -6.81,27.51 -10.68,8.92 9.26,39.48 0.44,0.67 1.18,1.67 1.51,2.63 -11.86,5.05 -10.09,-0.05 -15.09,11.74 11.25,6.1 18.96,2.17 20.17,12.17l-23.25 -7.35 -7.81 11.76c-0.4,0.17 -1.58,0.41 -2.23,0.87l5.14 10.17c-15.55,-3.47 -21.38,-10.84 -38.94,-3.64l0.26 9.06c10.7,1.37 -3.3,3.23 5.25,-1.29 0.08,-0.04 0.4,-1.52 4.6,-3.75 6.93,5.66 7.39,4.52 7,11.66 -0.31,5.48 -0.29,4.24 -1.98,8.32l-17.93 16.85c-6.99,1.7 0.8,2.58 -11.08,-1.31 -1.33,10.28 -2.34,11.89 1.48,15.18l-14.75 7.15c8.8,7.68 6.25,4.56 18.88,2.23 -3.22,8.93 -5.23,21.13 -1.28,29.33 -5.16,-1.82 -6.98,-1.51 -8.93,-1.39 -1.82,0.11 -3.44,0.01 -6.77,1.24 -9.04,3.33 0.51,-3.32 -8.18,4.51 21.57,14.6 17.98,-5.96 25.46,11.58 5.77,-0.14 1.89,-8.39 -3.3,3.03 -1.82,4.03 -6.6,3.61 0.53,4.89l-16.17 -1.85c0.75,-0.85 3.17,-2.75 3.54,-3.42 1.51,-2.76 2.01,-3.52 3.08,-8.06 -20.44,-3.38 -3.23,-13.45 -31,-11.28 6.52,16.41 5.66,1.95 7.09,15.05 -7.44,-3.92 -5.84,-8.14 -14.42,-9.44 -12.85,29.72 5.67,-3.94 9.88,32.19 -28.99,-14.68 -12.05,8.79 -32.24,-4.41l11.01 18.07 -5 9.88c10.77,5.91 9.48,0.53 13.62,11.27 -33.48,-14.37 -1.02,0.29 -31.04,2.83 -0.17,-0.59 -0.17,-2.27 -0.2,-1.84l-1.32 -6.79c-1.24,5.95 -6.28,3.99 -13.69,5.84 3.98,4.99 4.19,1.24 5.21,6.54 3.14,16.32 -6.76,-3.38 -0.96,8.93 7.96,1.43 20.3,-0.99 20.9,12.58 0.18,4.06 -1.82,-2.24 0.2,4.01 0.89,2.75 3.35,2.48 6.08,10.75 -13.28,-2.21 -2.4,-2.14 -11.12,0.29 -4.42,-14.67 0.74,-7.7 -10.72,-19.94l-1.68 15.54c-20.53,-5.11 -4.85,-11.55 -24.22,-9.55 11,2.34 5.44,7.95 8.36,15.6l2.16 4.33c4.59,9.21 3.94,4.38 15.74,12.25 -14.73,0.51 -19.07,-3.69 -25.34,8.04 -6.23,-11.42 1.5,-8.41 -9.09,-5.83 8.39,17.89 7.56,3.37 18.23,18.86 0.23,-0.71 1.25,-2.3 1.36,-1.79l2.06 -5.82c-0.49,-6.57 -9.31,6.75 -1.79,-8.24 7.62,2.41 9.74,9.07 13.71,17.84 -11.44,7.57 -1.71,-0.09 -12.44,4.17 12.34,7.03 6.92,-0.97 17.44,7.77l-19.15 3.83c-12.6,-11.74 -0.37,-6.76 -15.74,-11.39 -6.82,-2.06 -10.93,-1.97 -16.64,-10.81l-1.32 15.48c-8.85,1.67 -14.87,0.16 -18.41,4.43 9.47,-5.49 3.43,-2.05 13.64,-1.46l6.04 19.41c-9.45,8.8 -6.83,8.24 -19.51,13.02 18,3.19 10.56,4.59 11.88,8.23l10.24 13.89c11.89,7.39 18.27,0.12 27.56,-3.43 8.87,-3.39 -0.48,0.95 8.54,-0.73 6.25,-15.92 -2.47,-1.73 1.87,-13.86 8.06,8.47 8.49,15.25 13.25,25.77 -12.46,0.2 -28.32,-13.84 -29.91,3.86 -2.42,26.9 7.78,93.34 1.96,120.04l-5.01 11.91 -12.92 12.33c-7.35,5.96 -8.24,6.39 -21.28,4.87 1.6,0.28 6.99,0.34 7.11,0.36 3.97,0.76 4.31,0.71 6.89,1.93 3.82,1.79 5.79,5.37 10.18,8.62 10.26,-5.33 6.74,0.06 11.47,-8.98 8.03,8.75 -0.53,3.81 13.63,4.55 -15.03,20.4 -0.34,2.53 -5.16,17.66 -1.29,4.02 -9.22,-7.9 6.87,10.69 -6.84,0 -10.41,5.11 -17.26,-7.07 -5.36,-9.55 -1.06,-1.61 0.44,-5.1l2.39 -3.3c-18.32,-6.42 -6.1,0 -24.72,5.82 -0.94,0.3 -4.06,0.91 -4.92,1.1 -0.73,0.17 -1.93,0.35 -2.53,0.48 -0.61,0.12 -1.75,0.1 -2.54,0.45 18.64,20.58 6.85,1.31 22.02,11.01 3.35,2.15 6.21,5.71 7.45,10.62 2.82,11.09 4.21,2.94 -4.23,11.7l21.7 -5.86c-4.31,-11.07 -2.62,-0.34 -5.07,-15.56 24.17,7.24 14.53,-0.53 28.63,2.56 0.68,0.15 1.78,0.73 2.33,0.89 0.56,0.16 1.64,0.55 2.31,1.08 -8.36,6.87 -8.56,4.36 -20.53,7.16l18.16 5.36c-5.07,9.33 -6.71,3.58 2.26,8.79 -16.79,13.61 10.72,-1.06 -12.17,5.18 11.46,3.49 4.47,-0.01 13.17,6.33l-19.95 7.96 30.43 -1.59c-3.51,7.84 0.56,1.69 -6.1,6.92 -1.38,1.08 -6.75,3.43 -9.2,5.1 9.28,11.16 7.33,2.99 9.29,15.65l-13.48 2.6 -0.09 -11.71c-9.35,3.02 -7.07,2.37 -13.84,9.06 -9.47,-14.71 -2.46,-12.21 -13.81,-8.16 6.58,5.72 16.24,10.59 19.55,9.05l0.01 13.88 15.93 -6.66 6.71 15.12c0.03,-0.09 -1.89,-14.98 20.09,-3.11 11.84,6.39 2.91,0.41 9.12,7.69 -7.74,3.43 -4.47,1.83 -18.36,-1.08 3.68,9.91 2.82,4.3 6.24,13.1 -15.42,-10.85 -3.03,-3.25 -11.37,10.45l-1.11 1.94c0.44,0.13 1.31,0.48 1.74,0.61 0.72,0.21 2.69,1.09 3.4,1.24 7.19,1.43 17.29,-3.61 25,-5.8 -2.42,12.09 -4.15,18.05 1.04,27.85l-0.03 -18.65c44.56,-3.74 35.84,52.72 40.96,63.22 5.31,7.89 18.49,12.36 27.83,13.63 4.88,4.31 3.87,-6.22 4.06,8.4 9.18,-15.31 2.71,-6.16 14.4,-0.95 0.07,0.03 11.52,13.6 8.32,-8.5 9.73,1.14 8.17,2.84 16.76,-2.3 -4.86,-8.97 -1.97,-5.34 -11.62,-11.66 -10.2,9.82 -4.43,9.24 -16,6.56 -3.45,-18.67 4.05,-12.96 17.29,-25.4 12.45,6.21 3.48,1.02 10.61,12.81l0.1 -9.35c-0.29,-9.96 -2.66,-10.51 1.65,-18.62 12.44,4.01 11.56,11.96 20.9,41.63 9.52,-14.18 6.01,-35.1 21.53,-41.08 8.79,13.46 -5.63,21.57 -5.01,40.96 10.06,6.44 5.52,-0.77 19.07,-2.02 -1.41,-41.12 4.01,-52.64 -17.6,-67.1 15.18,-7.88 35.5,-11.99 45.73,2.3 -21.36,1.83 -9.59,-11.96 -27.26,0.38l4.28 8.49c11.4,-2.72 18.53,-12.75 32.08,-2.18 1.47,16.58 -2.97,4.33 -13.33,19.27l15.78 -0.39 1.06 10.03c8.75,11.57 9.19,4.72 10.83,21.88 0.77,8.1 1.05,23.3 -1.97,29.31l5.4 -61.3c24.41,2.14 17.22,19.39 32.56,32.38l-2.12 -36.66c6.69,-4.27 16.06,-13.15 24.76,-14.67 1.81,7.23 -2.75,-4.02 -1.11,11.57l3.56 69.94c1.07,-7.03 0.62,-20.56 0.82,-30.16 0.28,-13.28 -0.94,-23.92 5.76,-33.36l10.65 2.91 1.37 23.25 20.83 0.44 2.05 -23.23 11.31 -2.52c0.51,0.8 0.92,1.16 1.04,2.66l0.6 27.3 20.12 2.84c1.64,-6.17 3.62,-11.91 5.55,-17.72 4.88,-14.66 1.72,-12.68 14.54,-13.89 9.11,6.86 20.53,47.99 23.48,61.7 16.75,-4.18 -1.2,-7.14 21.82,-12.11 2.77,-0.6 11.71,-1.76 12.67,-1.64 0.25,0.02 1.01,0.31 1.24,0.36 0.54,0.11 1.7,0.88 2.19,0.98 7.5,1.5 -4.95,7.78 5.23,-0.29 -9.88,-32.29 6.65,-60.35 41.95,-45.4 16.36,-13.64 21.93,-7.13 42.82,-8.25l-6.37 5.42c-0.22,18.82 -6.12,49.17 15.24,50.72 14.06,-10.72 7.26,-34.55 8.42,-50.43l9.55 -3.91c12.92,5.43 6.23,37.1 4.26,49.46l14.4 0.08c-0.21,1.31 -1.07,1.48 -1.16,2.4 -0.08,0.84 -0.94,1.4 -1.02,1.65 -0.97,3.25 -9.11,-1.19 6.76,8.94 0.38,0.25 1.44,0.67 1.92,1.26 -14.72,0.13 -21.97,-1.24 -19.57,13.76 13.37,0.75 -4.91,-8.49 22.42,-6.84 7.02,0.42 21.69,3.61 28.44,-0.39l-10.41 -5.08 -12.02 -0.81c-4.46,-10.25 -7.07,-19.33 -10.64,-29.34 -4.57,-12.81 -9.78,-23.44 -4.73,-33.37 12.65,2.96 9.46,3.82 13.56,18.79 2.07,7.56 4.52,16.57 7.66,22.88 6.94,-8.61 9.07,-25.09 13.95,-36.73 -4.66,-7.87 4.73,-4.64 -7.74,-6.77 6.29,-9.08 7.25,-5.15 -1.32,-13.25 -5.83,1.51 0.09,-0.54 -4.88,2.78 -0.33,0.22 -1.14,0.85 -1.5,1.09l-17.73 1.19c13.8,-14.8 33.18,-8.09 47.08,-9.33l-13.04 15.39 14.99 2.07c-8.49,-6.49 -2.66,-0.05 -5.31,-7.41 21.43,4.46 4.75,-0.97 20.87,-7.07 2,10.92 5.19,7.63 -3.5,12.3 28.8,5.06 1.39,19.86 20.88,12.75l0.56 19.47c1.91,-13.95 -0.54,-16.38 5.37,-28.66 15.91,1.49 29.08,-3.28 37.93,8.75 11.38,15.16 -0.8,20.93 -5.46,32.65l11.33 16.61 6.61 7.27c1.58,-7.34 5.05,-0.66 -3.79,-12.78 12.7,-4.11 23.6,-15.23 30.15,-26.05 15.93,-26.29 -13.26,13.07 4.15,-7.41 -2.71,14.58 -3.54,18.23 1.72,32 0.32,0.85 1.47,3.08 1.73,3.83 1.39,4 1.03,3.31 1.21,5.04 0.73,6.91 -4.01,1.3 0.31,9.9 11.06,-0.69 8.73,0.02 15.98,-7.4 -57.54,-44.07 40.11,-105.16 38.61,-18.18 8.83,17.46 7.22,-20.36 7.04,-25.22 13.82,-4.57 16.1,-11.17 28.05,-2.42 2.44,-10.89 10.03,-20.64 22.95,-24.2 3.36,8.43 -0.77,0.94 4.53,7.88 32.54,2.33 38.86,19.04 31.15,49.96 9.09,17.02 6.77,-22.29 6.77,-22.29 1.97,-11.94 -3.13,-4.09 5.75,-7.58 -0.15,18.13 -5.58,20.3 3.34,30.34l-2.66 -42.4c3.94,-16.07 -4.06,-5.06 8.21,-11.73 16.24,2.72 12.5,0.41 12.66,20.97 0.07,8.72 -0.23,18.22 -2.01,26.49 1.03,14.72 16.09,12.44 19.44,0.77 2.7,-9.41 1.09,-33.07 -1.13,-42.42 5.11,-6.11 -8.71,-4.94 10.44,-5.81 9.35,9.92 2.78,11.84 9.05,19.01 4.94,-10.52 -0.34,2.41 1.25,-5.79 1.9,-9.79 -2.03,0.51 1.59,-8.41l3.02 19.81c-0.77,0.31 -1.88,-0.59 -2.09,0.09 -0.2,0.66 -1.55,0.04 -1.82,0.15 -10.36,4.14 -8.01,-13.75 -6.31,12.99 0.78,-0.34 1.86,-2.03 2.13,-1.38l3.5 -2.5c9.24,-7.67 -5.13,-0.13 2.92,-3.14 1.26,11.91 -0.37,25.44 6.11,35.26l0.07 -61.57 36.56 0.35c-0.97,16.31 -7.34,9.93 -23.54,12.15l-0.2 11.62c12.84,2.16 9.97,-1.63 20.89,4.23 -6.11,13.42 -1.76,7.07 -20.69,8.65l-0.54 14.21 22.89 0.65 2.82 9.56c4.09,7.48 -1.67,4.79 6.08,4.68 4.08,-15.09 -2.69,-10.44 6.74,-5.67 -1.61,-6.49 -0.76,-4.88 -9.32,-12.11l16.86 -6.83c-11.47,7.28 -5.84,10.61 0.22,18.76 16.22,-12.44 8.89,-12.89 4.05,-18.55 4.96,-2.36 8.63,-5.16 13.24,-6.44 8.51,-2.35 -1.07,6.02 10.45,-3.41l9.71 -28.74c-4.27,-10.89 1.17,-4.26 -6.51,-7.97l16.52 -5.47c1.04,-6.1 -0.07,-3.87 -0.51,-7.21 -2.31,-17.82 -5.41,8.1 -1.08,-5.03 7.82,-0.73 2.74,0.46 9.51,2.92l6.98 1.34c0.17,-0.01 0.93,-0.11 1.08,-0.15 0.43,-0.09 1.51,-0.4 1.86,-0.64 0.4,-0.27 1.9,-0.12 3.21,-5.56l14.51 8.57c3.53,-3.79 7.25,-7.72 11.21,-11.89l11.36 6.76c-11.28,2.22 -29.26,4.95 -36.21,9.99l2.23 10.33c7.74,4.66 7.89,-0.58 18.84,0.84 2.24,0.29 15.16,6.04 18.96,7.93 -1.69,15.66 -6.1,25.74 4.61,38.07l0.31 -46.26 35.82 1.84c-0.54,13.77 -3.18,8.36 -19.23,9.63l-2.04 7.36c33.61,-4.98 14.75,10.47 28.22,1.06 0.64,12.07 -0.86,11.98 4.96,19.34 0.25,-10.71 -1.49,-8.6 2.88,-15.77 -0.39,-15.28 -4.4,-16.74 5.39,-23.06 5.78,3.37 6.07,-3.57 6.08,22.64 0.01,8.02 -0.12,16.5 0.55,24.28 3.66,-0.37 6.64,-1.14 9,-6.66 3.95,-9.25 2.6,-0.27 -4.27,-11.84l15.13 -0.27c-9.12,-7.21 -3.01,0.12 -5.43,-8.55 11.98,-1.56 7.17,0.72 17.76,-2.99 10.58,-11.69 18.22,-24.36 39.03,-14.36 17.97,8.63 16.17,30.68 11.9,47.08 7.83,-5.69 8.66,-6.3 10.05,-17.52 5.65,10.1 -1.39,2.92 6.89,11.92l0.47 -41.99c19.2,-4.57 35.44,-5.82 40.51,14.84 6.2,-8.1 4.35,6.95 6.02,-12.11 4.65,-1.65 -1.49,-9.96 6.22,8.31 2.62,-11.36 0.23,-8.66 6.63,-16.98 4.61,-0.25 14.25,-1.08 18.57,-0.8 12.87,0.84 12.72,2.16 16.4,5.42l-2.25 9.63c-10.46,1.46 -15.26,-0.59 -23.76,3.44l-0.03 9.45c12.5,6.68 10.5,-2.35 20.08,5.87 -4.53,13.81 -5.64,3.32 -19.86,9.04l-0.1 14.08 25.66 -0.42 0.95 11.74c-14.44,10.67 -26.64,-2.06 -43.09,4.28 6.84,13.45 -1.79,3.83 25.71,1.94 18.47,-1.26 19.81,4.42 27.55,-14.49l0.66 -9.4c18.01,3.56 12.6,14.56 27.77,2.97 -1.46,-19.41 -39.81,-11.16 -23.16,-44.67 12.67,-6.16 26.86,-7.72 33.72,6.65 -14.65,13.82 -3.66,-5.03 -25.1,1.88 -0.34,20.88 49.1,12.22 16.19,49.93 -7.24,5.4 -4.64,6.42 -19.22,3.93 9.36,4.48 14.58,2.24 25.91,4.61 14.71,3.08 12.81,7.61 22.81,8.13 -2.17,-9.75 -6.78,-8.53 -14.72,-13.58 19.01,-10.47 15.64,3.66 16.24,-14.92 0.37,-11.52 0.72,-28.71 -0.68,-39.67 -14.81,-0.7 -10.82,2.41 -11.25,-9.4 7.91,-2.77 36.35,-3.66 43.2,0 0.3,16.27 0.82,5.44 -15.51,11.77l0.6 47.46 5.87 -16.9c1.01,-6.7 0.41,-12.48 1.32,-17.59 15.27,-2.6 10.29,-5.56 19.24,5.91 2.39,-10.62 5.75,-25.68 13.92,-32.78l6.25 0.3c9.57,9.04 14.09,40.78 21.29,54.28 11.24,7.32 3.08,3.4 4.11,12.35 1.31,11.53 -7.22,-1.9 2.35,9.91 0.81,0.99 7.52,6.34 9.53,6.9 7.52,2.12 1.89,1.42 8.02,0.32 6.4,-1.14 5.69,-1.79 8.54,-3.63 -7.88,-3.72 -10.7,-2.98 -20.37,-3.92 7.94,-6.13 6.44,-9.45 7.27,-20.73 14,4.51 10.6,8.33 29.95,6.69l0.45 -48.37 -15.98 -2.69 -2.01 -10.35c6.08,-5.41 -1.66,-1.4 7.58,-3.98 3.78,-1.06 4.82,-1.1 8.77,-1.35 16.19,-1.04 35.64,-2.25 42.83,4.35 11.19,0.26 30.63,-3.71 36.03,5.13 -5.76,13.34 -9.83,2.62 -25.03,8.93l0.3 12.16 19.36 -1.55c4,4.97 3.71,-7.68 4.14,10.72 -10.56,8.21 -6.08,6.31 -20.12,2.61l0.15 12.94 21.74 -3.88c8.28,15.08 -0.61,9.2 8.02,17.41 1.79,-16.03 -0.82,-50.31 1.93,-59.43 2.59,-8.6 -1.1,-1.78 4.28,-8.52 19.59,-1.05 9.79,0.66 14.55,4.74 0.74,10.66 7.55,22.07 13.25,31.1 10.88,-12.33 9.13,-36.99 27.55,-30.72l1.86 61.06c8.78,-8.73 4.82,-22.83 5.87,-33.65 0.96,-9.93 -2.66,-6.27 4.31,-9.6 4.34,-11.26 -3.72,1.28 12.69,-1.77 10.27,-1.91 12.42,-7.33 23.15,-0.47 -7.03,7.34 -10.78,3.78 -23.06,4.52 6.02,5.46 1.07,2.07 7.75,4.98 14.46,6.3 5.79,-4.83 9.6,4.39 2.12,5.12 -0.47,3.9 3.5,9.16 1.86,-8.73 4.89,-15.47 7.76,-24.1 4.62,-13.94 2.05,-15.3 15.7,-15.92l22.4 56.38 7.57 8.39c-2.67,-17.21 -4.62,-8.72 0.66,-18.8 7.4,3.46 2.25,-1.18 7.7,5.77 3.07,3.91 3.08,6.36 4.05,10.07 0.51,-0.54 0.96,-2.39 1.12,-1.94 0.15,0.44 0.86,-1.55 1.08,-1.96 5.23,-10.03 2.82,-8.82 10.26,-14.28l3.33 -39.69c-6.6,-5.01 6.79,-6.52 -1.6,2.27 -4.53,4.74 4.86,5.14 -1.74,1.32 -7.05,-4.07 -1.44,-7.26 -0.53,-9.38 48.42,-11.01 56.36,13.01 62.47,3.41l21.73 -6.44c-1.72,-10.93 -2.04,-3.06 -8.67,-14.17 22.98,-1.62 12.58,12.31 10.8,24.04 -1.85,12.07 0.52,32.44 0.07,46.5 4.85,-10.15 3.76,-34.09 2.91,-47.1l1.53 1.18c13.21,4.4 -10.52,5.22 3.02,0.41 2.53,-12.87 1.29,-10.25 18.47,-10.77 9.49,-0.29 19.69,0.54 28.98,1.85 3,20.87 0.66,7.37 -3.19,13.83l-26 40.33 24.9 0.5 2.36 10.28 12.82 0.1 1.15 -61.66 35.56 -0.46 0.79 10.91c6.53,2.55 -0.12,-0.21 11.36,-4.3 -1.02,7.52 -1.64,5.36 -1,13.45 1.3,16.42 -0.43,6.44 3.99,11.86l0.48 -31.63c16.43,-0.48 34.61,-3.31 40.77,12.87 5.56,5.98 5.45,-2.83 4.27,12.62 3.55,-9.18 1.06,-10.97 -0.38,-20.37 12.45,4.48 17.4,5.53 25.05,-4.21 -13.32,-8.03 -7.53,1.8 -23.34,-5.63 4.23,-8.04 -1.19,-6.84 9.8,-6.27 18.89,0.98 -9.59,0.69 12.56,6.8l9.16 -6.87c-14.55,-10.49 -11.01,6.67 -13.97,-7.28 5.12,-7.04 -1.75,-2.78 6.23,-2.57l35.77 9.3c-9.32,-18.78 -10.92,-8.12 -23.22,-9.68 -6.8,-10.22 -6.16,-9.66 -15.68,-16.05 6.71,-5.76 5.59,-3.08 7.92,-11.99 15.31,3.47 12.25,8.9 24.57,-4.77l-11.97 -9.33c42.68,5.89 7.88,4.05 33.01,13.59 7.83,-11.24 9.51,-10.03 4.26,-22.85 -6.57,-16.04 -4.41,-3.99 -15.16,-7.21 1.68,-15.11 -1.4,-5.42 10.13,-16.49l-12.83 -7.13 12.25 -9.04c-18.8,-18.04 -10.44,-5.5 10.73,-14.81 4.19,-14.08 0.99,-0.99 -2.27,-13.05 6.89,4.83 11.16,11.49 16.56,1.67 7.19,-13.11 -4.42,-11.85 -12.65,-16.05 14.31,-3.63 7.42,-2.68 17.56,-8.84 14.02,-8.53 3.09,-1.8 18.41,-5.52 -4.26,-13.16 -6.07,1.28 -4.9,-8.63 13.19,0.07 15.35,1.69 25.27,-5.92 -12.03,-4.78 -1.41,2.93 -12.83,-2.38l18.27 -5.7c-1.97,-0.3 -5.77,-1.1 -12.92,-5.66 0.82,-14.06 0.07,-25.47 -0.42,-38.47 -0.61,-16.28 10.26,-7.37 4.01,-20.03 -0.09,-0.18 -0.77,-0.72 -0.9,-1.2l23.09 -0.09c-9.11,-14.99 -13.72,-8.73 4.25,-14.9 -4.68,-1.47 -18.41,4.88 -11.62,-32.58l6.34 -14.98c9.01,11.91 1.9,27 4.27,44.13 11.5,-11.56 3.86,-17.99 4.8,-32.17l0.99 -5.88c0.21,-1.01 0.71,-2.03 0.92,-2.85 0.21,-0.82 0.6,-1.93 1.06,-2.83 19.64,-0.23 5.07,-0.39 10.79,5.3 1.01,8.74 4.43,13.12 10.92,19.41l2.9 -21.6c4.09,4.31 1.91,-5.23 4.41,8.44 0.05,0.27 0.15,8.22 0.16,9.06 0.04,8.3 -0.12,14.35 0.47,22.78 3.14,3.63 -0.47,5.87 4.61,-0.2 3.88,-11.64 7.92,-33.2 17.35,-39.98 9.3,8.76 7.44,20.96 15.19,29.72 5.18,7.75 4.52,-4.76 4.86,12.58 2.29,-5.67 -10.71,-40.31 -15.89,-49.34 11.91,-6.52 12.34,-0.41 16.49,-11.63 -12.67,1.78 -6.33,5.31 -20.82,6.7 12.02,-18.18 33.04,-14.1 48.92,-22.59l-17.6 -4.89c2.67,-17.05 7.73,-7.43 13.9,-3.97l-3.93 -10.23c-1.85,-0.11 -5.21,-0.22 -7.99,-0.1 -15.64,0.62 -10.29,3.44 -14.03,10.63l-11.23 -7.52c12.27,-4.6 25.06,-15.26 13.56,-24.9 -5.8,3.15 -1.88,2.76 -4.92,6.1l-6.18 6.2c-0.69,0.65 -1.55,1.66 -2.54,2.18 -1.74,-3.8 -7.75,0.66 -1.9,-14.53 4.11,-10.67 1.12,-5.61 9.6,-6.31 17.14,-1.42 5.71,13.01 19.48,-0.54 -15.9,-10.46 -16.62,-3.47 -30.43,-4.54 3.96,-11.79 4.34,-14.37 16.2,-13.89 0.25,0.01 1.03,0.22 1.29,0.22 0.26,-0.01 1.06,0.05 1.34,0.02 4.81,-0.61 -2.72,-0.85 9.86,-3.79 12.65,15.42 5.07,19.93 19.27,20.27 -4.73,-5.06 -5.55,-2.49 -4.82,-10.16l20 -14.61c-14,4.18 -6.92,15.58 -20.93,7.33 -12.12,-7.14 -7.1,-18.36 1.96,-18.1l-11.2 11.38c-31.38,-8.79 1.57,3.65 -27.93,3.85 7.46,-17.39 16.16,-6.79 10.13,-19.81 -3.89,12.18 -15.64,13.37 -28.77,18.71 -14.47,-7.84 -0.99,1.04 -8.95,-13.57 -7.23,7.91 -7.46,7.84 -19.41,9.96l8.6 -8c-8.54,-6.22 -2.89,-6.72 -11.98,-12.52 -8.21,-5.23 -7.04,-0.62 -17.53,2.74 2.99,-17.95 5.15,0.28 3.95,-15.34 -1.28,-16.49 8.1,-3.72 2.39,-18.74l-13.08 13.14c-1.92,-2.17 -18.24,-1.05 0.53,-17.91 -21.02,-6.39 1.74,-5.06 -15.99,-11.45 -15.9,-5.74 -7.5,9.43 -20.96,-5.19 9.25,-5.81 12.89,-0.27 24.9,-9.41 -2.34,-9.24 -10.92,-0.45 -1.15,-16.21 -3.87,1.38 -0.2,5.02 -5.08,-0.75l-2.24 -4.6c-4.29,-9.35 9.08,5.36 -2.45,-5.73 -3.12,-12.66 -14.82,-15.71 -18.94,-17.63 7.77,-7.14 6.25,-4.18 6.76,-15.87 -12.45,2.21 -6.65,0.5 -15.29,9.92 -4.85,-7.89 -2.82,-7.05 3.11,-12.19l-12.57 -3.22c3.85,-12.06 1.88,-1.82 5.21,-11.51 -15.26,2.09 -1.17,7.98 -20.7,0.88l10.05 -10.62c-6.26,-3.56 -13.94,-4.79 -15.56,-10.8l-1.13 -15.6c-9.13,-1.8 -3.78,-5.63 -12.98,3.99 2.04,-7.86 7.94,-16.97 6.23,-24.81 -2.03,-9.39 -7.33,-15.33 -15.65,-10.89l2.72 -15.08c-11.67,-5.69 -1.11,0.63 -9.94,-2.73 9.26,-9.22 6.9,-0.07 12.41,-14.32 -2.37,-4.86 -3.18,-5.33 -5.05,-7.05l-5.85 -3.79c-0.32,-1.03 -1.52,-0.65 -2.21,-1.11l19.25 -18.68c10.76,3.11 -0.22,3.47 9.88,3.34 13.29,-0.17 -0.21,4.41 7.24,-0.18 -3.35,-16.98 -18.7,-34.67 -24.48,-53.8l11.35 -1.11c8.82,-7.46 2.01,-1.18 -12.92,-9.28 4.22,-14.65 2.32,-1.01 14.96,-12.15 -19.11,-3.01 -11.99,-3.21 -23.73,7 -0.14,-4.21 -0.05,-2.08 -7.65,-8.74 9.19,-1.72 7.02,0.15 12.55,-9.79 -4.71,-3.78 -2.14,-3.29 -9.65,-5.29 -9.12,-2.43 -7.81,5.48 -21.78,-1.33 14.83,-4.64 20.17,-0.78 27.94,-18.21 -12.91,-4.01 -9.61,-3.04 -19.42,3.13 -0.44,-0.53 -0.64,-1.57 -0.78,-1.92l-6.07 -10.9c-0.39,-0.38 -2.91,-1.9 -3.87,-2.77l12.1 -6.66 -4.41 -17.88c-16.01,-2.42 8.31,0.3 -9.36,3.06 -8,-13.24 -18.96,-8.44 -12.1,-23.54 -27.86,0.91 -32.53,-17.71 -43.29,14 -8.27,-0.7 -0.15,0.3 -5.8,-3.27 -5.75,-3.64 2.81,-9.48 -11.64,-4.35l6.73 -8.84 -15.07 -24.59c-2.19,-5.43 -5.75,1.61 2.46,-10.1 -12.52,3.9 -7.36,3.83 -17.77,1.12 1.06,11.61 3.38,3.61 -2.01,11.05l-11.21 -3.85 10.53 -11.78 -28.1 3.25c11.09,-13.54 1.64,-7.6 16.41,-14.29 -14.41,-8.87 -8.21,0.03 -20.76,-4.24 -18.26,-6.2 18.07,-4.04 -11.18,-9.73 -3.04,9.03 2.21,5.17 -4.02,12.47 -12.11,14.19 8.45,-8.76 -11.88,5.38 13.39,21.27 16.38,19.08 42.46,21.38 -18.56,7.22 -5.85,-3.14 -12.16,11.88l-10.62 -13.69c-11.63,0.76 -7.45,2.21 -18.73,2.31l-14.82 0.38c-4.99,0.43 -8.95,-5.82 -17.31,-5.8 11.44,-1.6 13.03,-2.16 21.37,-8.17 -5.47,-4.02 -2.17,-1.65 -7.38,-3.03 -2.98,-0.78 -3.67,-0.43 -6.54,-0.79 -5.37,-0.67 -4.15,0.02 -10.48,-2.5 9.04,-7.84 5.57,-6 6.31,-18.65 -8.94,-2.96 -4.04,-0.28 -10.66,-2.17 -5.51,-1.58 -3.34,0.02 -7.22,-2.87l6.69 -14.23c-25.43,4.64 -64.48,-8.17 -78.37,5.82 -0.3,-0.96 -1.41,-23.97 -16.09,-18.93 -5.49,1.88 -2.65,2.9 -2.37,6.53 0.02,0.21 0.29,1.93 0.3,1.55 0.03,-0.38 0.45,1.07 0.03,2.25l-25.81 -12.47c-8.55,4.12 2.41,2.86 -9.2,6.2 -9.01,2.6 -6.17,-0.12 -15.95,1.94 -0.68,0.14 -1.54,0.5 -2.13,0.64 -13.25,3.23 -6.62,-2.99 -24.41,-1.18 6.85,12.01 0.37,4.42 14.43,9.57 -14.71,5.07 -14.61,-3.39 -29.68,-7.94 6.18,24.13 16.63,11.69 19.19,31.28 -7.58,-3.11 -1.85,-7.95 -11.98,-12.75l-10.94 9.63c-0.39,-0.89 -0.72,-3.99 -0.98,-4.55 -2.26,-4.88 -8.52,-6.68 -14.94,-10.26 -8.11,12.44 1.32,1.52 -13.37,10.51l9.87 10.74c-9.48,-2.69 -8.08,-3.11 -19.73,-2.02 -2.53,8.04 21.92,4.57 20.68,8.98 -7.16,-9.15 -28.05,-1.05 -40.26,-2.37l-1.99 9.64c-3.69,-2.57 -5.8,-3.1 -8.23,-3.79 6.06,-11.12 3.69,-1.62 8.89,-13.11 -9.48,-1.75 -4.7,-3.37 -19.27,7.48 -19.67,-7.5 -6.5,-12.74 -22.97,3.06 -12.28,11.79 -14.13,3.75 -29.03,3.26l-0.32 7.06c-0.04,0.5 -0.69,3.92 -0.86,4.91 -3.55,-11.12 -3.04,-8.14 -16.22,-7.97l17.47 -10.81c-10.73,-8.04 -5.21,-3.44 -10.16,-1.61 -12.43,4.58 0.29,2.05 -12.59,0.57 -21.57,-2.48 -2.7,12.31 -25.95,-5.22 -12.22,22 7.27,-3.61 -3.25,6.4 -6.72,6.39 0.89,-10.24 -5.69,5.43 11.8,15.41 7.32,-1.9 11.94,11.56l-11.94 2.86 -4.06 -12.34c-3.01,-7.56 -0.27,5.01 -1.28,-5.47 -0.74,-7.65 3.36,0.85 -0.28,-6.32 -11.55,4.4 -14.25,6.5 -28.73,9.62l-3.45 -13.94c-18.35,11.36 -1.3,0.96 -16.75,-0.25 -12.43,-0.97 -9.63,2.5 -19.68,6.92 3.01,12.83 -4.77,3.2 8.78,12.76 -11.3,4.5 -6.07,6.14 -9.24,13.06 -10.82,-2.71 -7.43,0.73 -15.22,-6.22l-23.96 -24.94c-0.09,-0.93 -0.19,-1.35 -0.33,-2.02 -22.01,6.18 -15.49,4.06 -18.48,15.06 -20.96,-3.62 -11.22,1.99 -23.4,6.67 -19.53,7.5 2.79,-2.84 -20.39,-4.32 -8.25,11 4.78,-10.88 -1.31,5.58 -2.18,5.88 6.47,3.86 -6.6,4.49 -1.04,-1.82 2.94,-0.49 -2.52,-11.43 -7.3,2.66 -5.73,1.85 -11.79,5.54 -18.64,11.33 -3.06,7.24 -22.54,-1.39l-11.89 -1.36c-19.46,6.07 -10.98,10.77 -11.87,16.09 -11.56,-2 -8.76,-4.21 -18.44,2.12 0.91,-1.79 7.75,-13.42 -11.93,-5.82l-21.3 10.3c-2.67,-3.89 -3.8,-6.45 -9.01,-9.79 -14.33,5.37 -22.43,16.46 -29.19,17.13 3.49,-3.61 9.43,-13.15 13.05,-18.97 -19.02,2.51 -10.75,6.14 -21.26,5.26 -15.47,-1.3 -3.78,-0.26 -16.19,-8.84 8.85,-8.88 8.53,-4.35 12.26,-15.7 -21.9,1.31 -5.82,1.67 -18.77,6.23l-9.59 -11.57c-8.68,7.33 -11.25,13.17 -13.04,25.33l15.59 -2.66c-14.87,4.67 -29.06,14.09 -41.97,1.63l18.91 -4.75c10.56,-4.89 7.07,-2.87 8.64,-14.27 -23.99,0.45 0.7,5.83 -21.76,8.08 -12.44,1.24 -25.41,-3.88 -37.49,-5.26 -0.29,-0.03 -1.12,-0.12 -1.37,-0.12 -0.22,0.01 -0.97,0.15 -1.16,0.18 -12.38,2.13 -5.45,0.23 -20.89,-3.39 -14.51,9.96 -6.3,7.5 -24.65,9.16 0.29,15.13 1.15,17.16 -17,11.58 12.51,0.53 11.08,-0.44 12.63,-7.38 -12.39,-1.47 -29.89,-4.89 -41.2,0.17 9.89,11.48 2.34,6.85 18.95,7.26l-26.26 0.55c5.43,-6.76 4.68,-12.21 -0.7,-18.98 -16.22,2.76 -9.67,3.76 -21.56,12.46l-2.45 -13.89c-19.61,5.46 -1.79,-3.56 -9.58,11.93 -9.39,-3.07 -8.84,-5.43 -20.09,-7.38l-0.91 8.14c-13.71,-9.13 -5.44,-3.31 -20.46,-3.29 -0.61,-10.93 -4.3,-6.17 5.05,-9.53 -18.07,-3.26 -13.61,-3.85 -14.26,-7.33 9.36,-5.23 8.76,-6.14 20.67,-1.32l-14.05 -2.83c-12.37,0.09 -11.32,1.89 -25.91,-0.13 6.23,14.2 4.84,0.33 11.46,15.53 -9.33,9.47 -14.11,7.02 -23.99,9.26 2,-8.09 5.59,-5.12 9.65,-11.49 -19.84,-2.84 -5.41,-1.67 -17.7,-9.77 1.76,8.76 7.6,19.81 -4.13,25.07 -7.93,3.56 0.75,-0.94 -5.5,1.11 -6.13,2.01 -1.65,0.24 -4.27,2.72 -0.73,0.69 -2.74,7.72 -13.59,1.51 8.59,-14.28 11.15,-6.85 8.81,-18.77l8.65 3.13c0.46,0.09 1.36,0.33 1.79,0.36 5.54,0.42 3.74,0.1 7.29,-3.15 -21.43,-6.66 -20.29,6.85 -20.65,-11.53 -6.34,1.08 -39.85,21.42 -46.33,-2.88 -6.36,2.95 1.67,0.05 -3.66,3.59 -6.88,4.57 -17.63,-4.52 -30.16,0.94l-22.42 5.17c-10.16,0.34 -9.59,-0.55 -21.03,-4.22 10.56,0.67 2.1,6.62 0.46,9.38 -20.59,-7.53 1.73,-5.32 -14.17,-9.78 -19.39,-5.44 -39.03,0.41 -57.45,-7.52l-5.02 13.1c-11.09,-3.16 -10.68,-10.99 -26.53,-17.85l-6.39 -2.66c-3.91,-1.54 -18.19,-6.79 -15.31,-9.64l3.2 18.27 -8.44 -3.2c-9.2,-2.26 4.03,-3.92 -5.38,-0.17 -0.56,5.2 5.77,12.47 6.11,11.52 0.17,-0.47 1.08,0.92 1.5,2.6l-25 4.13c6.85,12.92 12.6,8.47 6.08,21.33 -11.1,-15.17 6.91,-15.83 -26.83,-8.52 4.92,-9.86 6.24,-8.01 14.92,-11.92 -10.2,-1.39 -9.55,0.58 -18.11,-5.97 -11.11,11.32 -1.31,7.46 -16.85,10.07 1.1,-15.55 2.64,-10.21 5.18,-23.83l-12.42 -1.92c9.4,5.97 5.93,-0.76 7.53,7.44 -11.97,3.29 -4.59,-0.63 -19.8,-2.58 -7.57,7.09 -6.7,9.08 -18.19,10.78 5.52,-13.63 13.17,-14.41 14.97,-29.43 -18.89,2.62 -27.52,8.5 -37.5,-10.65l-68.09 8.61c-14.69,-8.42 3.84,-11.98 -21.24,-17.82l-15.6 -2.82c-2.11,-1.03 1.28,-9.33 -16.13,4.96l-26.22 18.96c-8.63,-3.11 2.55,-1.61 -14.48,-8.39 5.87,16.94 6.23,5.04 12.01,17.06 -10.69,1.1 -4.31,4.7 -15.21,-8.56 -11.12,-13.54 -0.79,1.06 -5.64,-13.62 -44.68,8.39 -37.32,0.44 -46.61,25.13 -41.44,-16.64 -75.73,-10.56 -123.55,-10.73 3.93,6.12 15.32,9.94 21.73,14.17 -8.24,12.12 0.58,14.04 -15.89,14.37 -3.06,-5.15 -1.25,-14.61 -15.24,-15.39l-26.57 0.89 -0.27 16.53c-6.35,-0.24 -5.64,4 -12.73,-4.41 3.55,6.05 0.11,10 -13.45,7.81 10.43,1.55 7.61,3.56 11.22,14.97 -13.11,-2.02 -15.59,-11.49 -20.45,-6.38 -9.41,9.9 1.38,-5.93 -1.22,4.36 -3.89,15.38 -2.85,10.4 -12.79,11.51 -1,-5.72 0.26,-0.69 0.59,-6.11 0.36,-5.78 2.71,1.88 -0.05,-3.44l-8.49 5.1c13.09,17.49 6.58,14.58 14.17,29.54l-33.15 -0.21c-0.38,0.64 -0.58,1.73 -0.72,2.14 -3.87,11.56 3.03,1.55 -11.27,16.87 5.56,5.91 8.36,10.43 13.99,16.03l-8.94 2.46c-0.22,0.14 -0.85,0.89 -1.01,1.02l-1.25 2.48c16.51,5.97 2.86,-7.09 21.68,5.41 -24.21,11.8 -21.28,-15.55 -44.43,3.42 8.55,14.16 10.03,7.34 17.84,11.74 -14.03,6.86 -7.46,-1.33 -16.72,7.2z"/>
  <path class="fil2" d="M1037.67 335.08c14.08,8.53 14.7,-5.33 18.73,9.14l-18.45 3.33 0.24 13.37 16.61 0.95c10.92,2.57 1.66,-0.57 8.16,3.49 -3.6,2.9 -0.61,4.92 -16.99,5.22 -5.37,0.1 -13.07,-0.56 -18.84,-0.63l0.48 -54.26 32.96 0.14c-4.04,13.69 -5.2,6.68 -22.16,9.49l-0.74 9.76zm1096.22 -127.03l0.71 0c0.13,0.68 0.18,1.18 0.26,2.18 0.77,9.91 5.83,5.33 12.06,4.07l40.58 -1.76c0.8,0.08 1.58,0.25 2.39,0.35 0.84,0.1 1.63,0.26 2.48,0.38 0.88,0.12 1.65,0.25 2.55,0.37 8.24,1.14 4.03,-0.73 13.38,1.78 -5.04,19.9 -8.22,11.49 -8.63,12.03 -8.31,10.79 -3.51,-11.14 -0.95,2.66l-11.25 9.09c-1.08,0.74 -1.69,1.75 -2.56,2.45 -0.92,0.74 -1.76,1.79 -2.54,2.76l22.59 -3.75c11.12,13.16 -1.98,1.42 7.65,16.63 8.58,-4.11 9.71,-7.79 19.21,-7.8 16.1,-0.01 7.34,0.94 21.32,-8.44l-0.51 14.95c-0.05,0.13 -0.67,0.59 -0.57,0.94 9.56,-3.32 0.67,1.1 8.97,-11.99 20.21,-2.29 0.44,-0.7 15.46,4.72l11.69 -9.69c9.53,10.95 21.17,7.84 51.73,12.54 12.53,1.92 11.68,3.63 17.46,-8.02 13.44,11.22 5.12,5.12 19.67,13.01 1.75,7.85 6.1,1.53 -3.1,10.29l18.08 -1.25 -1.68 -8.78c0.03,-0.36 0.11,-1.43 0.37,-2.08l21.69 0.89c11.25,-11.09 1.65,-10.52 22.27,-12.09 -12.83,7.4 -7.92,-0.19 -5.83,10.54 5.75,-5.32 12.14,-4.23 19.96,-3.48 -8.11,17.63 -8.87,8.86 -9.54,8.97l-3.77 0.34c-5.92,2.53 5.11,0.81 -7.32,6.29 13.23,1.49 21.86,-0.98 34.51,2.79 8.6,2.56 7.11,4.24 13.14,3.71 14.64,-1.28 8.42,-5.45 8.81,-6.67 -17.8,5.33 -8.51,6.64 -19.39,-0.54 9.22,-6.67 25.53,-4.88 36.04,0.64 27.43,14.41 5.63,2.79 32.94,6.11l-0.7 -1.67c-2.6,-11.61 -3.9,9.64 -0.33,-2.92 14.65,0.42 17.88,-3.03 30.51,2 -0.84,0.74 -2.14,0.47 -2.77,1.88 -3.08,6.91 -2.57,3.52 -16.57,4.74l6.51 2.15c-0.15,-0.79 -0.46,-2.3 -0.67,-3.45l38.05 -5.2c0.87,0.26 2.09,0.77 2.98,1.41 -5.4,7.18 -1.38,2.15 -7.1,7.19l-8.18 6.86c23.07,-10.37 7.62,1.68 22.09,-0.2 17.49,-2.28 -13.65,5.48 4.74,-4.37l14.46 0.66c0.94,4.66 7.79,3.01 -3.47,8.56l18.68 -0.66c-3.64,-1.99 -4.92,3.74 -0.24,-4.6 2.13,-3.81 3.52,-4.24 6.32,-6.34l-5.48 -4.26c-6.98,-19.77 -1.72,13.68 -2.05,-6.86 -0.24,-14.76 23.04,-12.7 33.78,-12.44l4.25 13.18c8.78,-17.91 20.15,-13.78 37.09,-12.69 -9.18,11 -1.61,4.13 -16.37,8.21 10.87,0.73 16.28,2.35 20.1,10.37 4.5,9.45 -2.05,-0.85 9.16,9.69l-3.89 14.01c7.65,-16.66 12.63,1.69 -1.81,-32.44 -3.85,-9.1 -3.37,4.74 -0.91,-3.86 2.47,-0.46 5.04,-0.76 10.64,-1.66l1.91 13.4c6.5,0.51 12.23,1.27 18.52,1.37 19.1,0.29 -4.63,-9.18 13.98,-7.68 4.58,0.37 7.81,3.45 10.7,6.12 -0.25,13.42 -5.33,-0.33 -6.76,15.6 11.38,-4.86 8.78,-8.29 24.59,-11.55l-10.44 12.45c12.15,-1.27 21.38,-1.98 29.02,5.53 0.43,-0.1 11.1,-10.71 7.27,-3.81 -4.03,-11.14 -8.92,-14.46 -2.08,-25.41 4.42,-7.08 11.35,-14.16 18.07,-16.58 2.28,6.06 1.72,-1.75 -0.02,4.85 -0.1,0.37 -0.38,1.36 -0.51,1.76l-1.72 3.82c-0.17,0.41 -0.8,1.29 -1.07,1.99 10.22,-2.72 4.95,-3.52 16.1,1.37l2.46 -6.21c0.09,-0.48 -0.28,-2.09 -0.15,-3.09 9.56,13.74 7.31,7.02 25.53,14.61 2,-4.42 2.11,-5.45 2.46,-8.88 0.07,-0.64 -0.47,-2.52 -0.61,-3.52 5.05,0.91 12.5,-0.07 13.17,5.41l1.13 6.16c9.95,-6.34 22.01,-12.22 28.65,2.24 2.71,-9.07 -1.44,-5.48 8.44,-12.76l0.29 4.16c3.4,10.53 -6.22,-4.96 2.2,5.24 3.97,4.8 0.25,0.25 5.18,3.74 8.89,6.31 3.7,7.58 18.65,11 -7.26,4.62 -4.2,5.86 -8.85,8.81 11.93,3.04 3.38,5.9 17.06,-1.52 0.36,1.07 0.71,1.59 0.77,3.29l0.14 10.31c11.39,-5.12 10.28,-16.53 20.82,0.91 6.46,10.69 -0.64,3.23 7.53,7.9 15.27,-15.31 -0.12,-0.34 6.86,-16.01 -12.88,-4.58 -16.7,1.51 -16.42,-21.83 12.21,1.3 2.76,-2.97 12.28,4.36l14 11.13c2.71,1.54 2.53,1.28 5.32,3.4 6.65,5.04 -0.59,3.21 11.13,8.35 1.31,-5.12 -0.65,-8.13 -4.85,-13.34 10.65,-4.58 21.61,-0.78 9.52,17.76 22.9,3.05 -2.57,8.64 24.76,5.38 0.92,-0.11 2.2,-0.5 3.32,-0.56 -9.67,13.99 -8.23,3.25 -5.68,10.38l7.26 2.31 2.05 -9.38c5.02,1.83 11.34,5.71 15.94,6.36 12.26,1.76 3.32,-4.63 15.72,0.5l1.99 -9.99c8.41,11.34 1.49,2.29 9.44,4.84 0.44,0.14 1.4,0.29 1.83,0.45l3.36 1.36c8.73,4.45 -3.61,0.61 4.87,3.75 13.72,-8.56 -3.52,-6.11 14.35,-7.13 2.36,17.83 -15.04,13.8 -19.29,28.68 12.46,-0.17 7.39,-6.69 21.73,-8.32 6.12,-0.69 8.7,0.71 18.1,-9.07 10.9,8.83 0.74,1.33 9.09,5.05 9.86,4.41 12.47,2.87 23.82,9.36l8.65 -0.13c3.07,-1.65 12.87,-5.27 18.87,-13.01 5.28,8.79 5.82,10.08 15.47,12.6 5.1,1.34 3.63,-0.87 8.48,2.11 -21.5,13.54 -13.54,-3.57 -36.39,3.52 0.1,0.5 0.43,0.77 0.46,1.45l0.08 12.56c11.71,-10.64 17.92,-10.36 35.03,-6.57 -9,15.82 -2.26,1.19 -8.56,9.66 -4.11,5.52 -2.42,1.63 -4.5,9.8 8.24,-7.35 16.38,-14.59 23.06,-21.09l-8.2 -9.16c11.64,-0.88 3.6,-2.9 15.03,5.83 2.84,-7.15 3.5,-10.49 12.07,-11.58 7.22,-0.91 13.05,-2.34 19.68,-4.63 -0.06,1 -0.42,4.87 -0.22,5.44l7.93 10.94c1.23,2.69 0.32,3.98 0.1,4.96 17.79,1.32 -2.09,0.32 11.84,-9.46 12.96,-9.1 4.53,6.95 11.51,-7.63l24.25 1.74c-4.9,3.35 -8.08,7.2 -12.99,11.42 12.91,-0.39 21.03,-1.71 28.98,8.49 -16.55,13.05 -7.15,1.82 -19.17,-0.04 0.22,3.64 -4.87,-1.08 2.88,4.57 6.74,4.92 1.14,1.2 7.8,2.59l14.7 4.06 -19.74 14.32c13.02,1.44 7.97,-5.96 46.02,-1.81l9.51 0.67 0 806.47c-13.2,-16.07 -39.31,-101.65 -48.49,-124.9 -10.95,7.2 -25.48,42.32 -35.22,55.85 -12.87,17.89 -26.65,31.02 -35.17,52.83 -3.68,-0.78 -3.34,2.71 -8.42,-11.02l-32.09 -98.1c-5.88,-17.45 -6.31,-15.41 -2.58,-32.72 9.6,-44.54 35.68,-33.97 54.57,-50.09 24.89,-21.23 6.08,-7.71 14.32,-24.27 5.02,-10.07 15.96,-9.75 20.9,-59.04 2.18,-21.76 7.43,-46.53 4.45,-67.35 -7.19,-50.26 5.34,-47.27 -5.61,-64.22l-18.92 9.61c-3.97,-5.71 -2.8,-3.4 -6,-6.5l-14.71 -12.6c-12.88,1.94 -10.01,10.08 -21.54,2.74 -13.92,-8.88 -5.15,-19.18 -22.57,-7.41 3.01,-3.94 12.54,-9.18 13.51,-13.71 0.27,-1.25 0.96,-1.51 1.15,-3.6l-17.99 2.23c-0.23,-4.4 -2.55,0.3 4.06,-2.7 3.39,-1.54 2.36,5.29 5.3,-2.02 0.53,-1.33 2.14,-0.66 3.15,-1.12 -1.02,-0.67 -2.29,-1.1 -3.34,-1.49 -0.99,-0.36 -2.05,-0.92 -3.21,-1.3 -1.04,-0.35 -1.88,-0.69 -2.95,-0.99 -0.93,-0.27 -1.75,-0.43 -2.63,-0.62l-10.08 0.25c-6.39,1.36 -13.16,4.49 -18.89,10.96l15.14 15.95c-8.7,-9.23 -6.65,-6.33 -18.28,-5.61 -0.18,14.53 -2.14,5.79 4.6,13.43 -7.65,-0.58 -1.6,-5.43 -22.67,-6.32 -0.42,0.9 -0.9,2.11 -1.06,2.8l0.02 10.56c-3.7,-5.09 -1.88,-2.16 -6.1,-2.79 -18.64,-2.74 -3.37,-9.43 -24.59,-1.42 -3.99,16.15 -1.7,26.41 -4.99,40.92 -8.58,-11.53 -5.33,-45.01 3.61,-57.32 8.07,-11.1 25.73,-18.39 37.75,-28.12l37.79 -32.33c3.86,-4.27 9.72,-16.55 11.72,-22.06l17.68 -51.6c8.8,-24.36 3.98,-55.9 3.81,-79.81 -0.37,-52.24 -9.23,-81.34 -9.56,-90.95 -0.42,-12.47 1.25,-19.97 -0.27,-33.75 -31.76,12 -72.44,48.67 -84.75,49.52 -18.77,1.23 -9.19,13.17 -27.05,-0.06 9.48,-4.86 7.15,-2.99 18.55,-4.27 -11.4,-9.71 -1.21,-9.64 6.31,-22.12l-6.72 -6.24c-14.75,13.49 -8.87,13.47 -13.49,20.64 -18.42,-10.15 -0.08,-4.77 -3.3,-13.92 -2.69,-7.69 -2.14,2.2 -16.47,-4.44l6.95 -4.56c12.57,-8.64 6.23,-6.59 11.69,-12.26 9.58,-9.93 6.97,-2.78 21.38,-9.34 -5.01,-2.22 -24.76,-9.61 -28.64,-10.63l4.68 -11.32c-9.08,4.79 -2.17,4.58 -10.61,1.07 -0.58,-0.25 -19.02,-12.4 4.12,-23.12 -10.89,-2.89 -9.53,12.74 -13.48,-8.24 -13.22,26.82 1.4,-16.36 -21.5,20.36 -14.71,-1.34 -1.47,-3.82 -13.74,2.21 -17.44,8.57 -23.85,2.52 -34.63,-5.63 -9.51,-7.17 -2.65,-3.6 -6.29,-10.57l-17.2 -0.75c11.96,7.74 6.75,2.95 8.55,12.17 -10.51,0.11 -5.71,3.84 -14.67,-5.7 -5.32,12.65 -3.04,1.89 -2.46,12.54 -10.52,2.39 -13.29,7.69 -22.73,12.73 9.28,6.2 6.65,2.15 12.47,11.21 -10.79,1.82 -3.45,-3.22 -19.12,0.71 9.85,13.3 6.03,3.48 18.11,9.65 -13.82,7.69 -11.39,2.84 -21.81,6.87 -3.65,-12.07 2.63,-2.15 -5.57,-13.22l-8.5 13.38 -35.38 -28.9c-6.19,-3.89 6.07,1.38 -3.56,-2.08 -4.09,-1.46 -1.8,-2.73 -7.18,0.1 -11.59,6.11 -0.8,2.56 -5.09,12.85l-26.05 -12.47c6.24,-14.71 9.72,-6.43 16.95,-20.75 -3.51,-1.71 -6.3,-4.73 -11.07,-0.84 -6.7,5.48 -0.21,-1.43 -2.6,5l-1.46 7.34c-10.07,-9.07 -3.13,-8.03 -11.88,-11.09 -5.16,8.65 -4.14,16.72 -7.59,20.68 -4.12,-9.96 -8.94,-11.28 -20.58,-12.19 -0.16,0.46 0.01,1.27 -0.02,1.45l-0.95 3.72c-1.71,2.08 -4.2,3.64 -14.44,0.8 -0.2,-4.96 0.85,-2.39 6.28,-5.43 -5.03,-0.55 -4.97,-2.12 -6.83,-2.79 -15.35,-5.54 -4.02,3.79 -13.9,-1.09 6.71,-13.71 -12.57,-5.59 7.93,-19.31 -2.39,-0.02 -5.17,-0.31 -6.92,0.08 -7.65,1.69 3.83,-1.93 -4.53,1.88 -25.76,11.77 -10.21,-7.55 -35.92,-1.44 12.51,9.57 9.47,1.52 11.56,12.38 -15.19,2.06 -3.69,0.73 -15.77,-2.32l-12.48 -3.58c25.92,-18.44 2.19,-5.59 9.51,-24.5 15.71,4.74 2.45,3.95 16.42,12.62l8.4 -12.23c-29.53,-14.42 -17.38,-4.48 -39.06,-1.51 8.23,8.2 4.74,2.63 3.46,8.48 -10.74,6.83 -10.25,0.19 -16.84,9.96l-13.92 12.02 6.31 9.67c-24.13,2.19 -14.23,-7.93 -27.92,9.83 -3.62,-6.21 -6.73,-8.5 -11.86,-12.17 10.41,-8.78 6.31,-0.92 8.56,-7.56 -0.75,-0.11 -1.77,0.02 -2.25,0.08l-11.5 2.71c-5.57,1.29 0.17,1.51 -6.84,1.14 -11.52,-0.61 -1.39,-7.13 -14.28,-3.67 -10.21,2.73 4.15,1.37 -9.68,4.08 3.8,-12.76 -4.47,-2.73 -8.61,-18.44 -4.24,-16.06 6.25,5.97 -0.91,-5.57l-8.45 12.92 -19.73 -3.15c8.1,12.85 -1.76,-2.01 14.35,7.76 -11.46,6.88 -6.26,8.53 -6.64,10.3 -21.09,8.41 -15.73,9.6 -23.31,10.4l-5.17 -8.35 20.6 -9.57c-6.48,-1.88 -19.32,-1.44 -26.19,2.63l-3.53 -6.92c-3.12,-4.29 0.56,-1.14 -4.76,-4.85 -3.05,-2.13 -7.82,-2.89 -11.07,-3.49 5.11,11.3 1.43,1.48 14.34,10.77 -4.12,3.96 -1.04,0.89 -6.78,3.69 -4.1,2 -1.68,0.34 -6.31,2.73 -2.75,1.41 -5.63,3.95 -9.15,6.3 -6.79,-12.38 3.04,-10.52 -10.03,-15.3 -4.32,-1.58 -16.38,-2.34 -16.96,3.29 -7.85,-7.51 -3.97,2.92 -5.37,-12.8 -1.11,-12.57 4.48,-23.37 -3.46,-32.68 -11.42,4.34 -6.74,29.32 -5.84,56.1 -4.38,-16.1 -2.25,-44.88 -6.87,-56.73l2.44 42.2c-13.29,-5.39 -1.49,-0.65 -6.04,-5.45 -9.3,-9.83 5.31,2.16 -2.75,-3.76 -1.17,-0.86 -1.91,-0.38 -7.28,-0.12 -1.65,-19.21 7.41,-21.46 -3.29,-32.23 -1.92,12.16 1.31,19.9 2.08,32.55 1.1,18.03 2.94,23.62 -12.1,27.21 -13.27,-6.69 -4.51,4.8 -9.1,-11.75l0.08 -44.96c1.81,12.78 -2.14,5.08 -1.98,13.74 0.13,6.76 13.48,5.56 -7,11.8 10.7,1.23 2.55,-1.34 9.81,3.3l-1.83 19.31c-0.43,-0.52 -0.95,-1.33 -1.2,-1.62 -17.46,-20.11 -14.02,2.1 -25.18,-37.52 0.08,27.17 4.38,37.32 -5.84,44.67l1.04 -45.21c15.15,-8.41 8.31,7.4 14.69,-9.38 -8.75,-3.69 -25.87,-2.62 -39.37,-1.73l-0.83 9.24 -6.92 -11.95c-0.23,2.4 -0.04,8.23 -0.12,9.14 -0.6,6.5 0.1,4.93 -1.84,9.25 -9.71,-8.37 -5.04,-7.84 -13.98,-15.46l-9.51 1.86 -0.88 29.69 -8.66 -9.35c-15.14,-20.09 -5,-23.97 -24.36,-22.13l1.76 55.16c-8.74,-5.9 -2.38,3.53 -4.66,-11.09l-5 -9.56 -10.82 -1.56c-4.49,-10.48 2.5,-2.17 0.39,-11.01 -9.58,-3.12 -5.7,0.55 -11.77,-8.33 8.44,-7.49 -4.63,-0.33 4.25,-0.38 15.56,-0.09 -9.99,3.42 4.19,0.3 13.83,-3.04 -7.76,3.82 5.62,-17.43 -30.14,0.18 -39.49,-12.95 -45.87,18.5 -21.35,-3.29 -15.04,0.67 -16.87,1.96 6.25,4.21 -1.6,1.86 8.91,3.41 16.86,2.5 -5.54,-9.76 5.05,-0.1l-6.14 15.38c-9.45,2.78 6.25,4.44 -2.32,-1.3l-9.58 -9.88c-14.39,-15.68 -15.69,0.34 -20.23,-11.22l-0.34 9.38c-4.11,-4.29 -5.12,3.94 -3.84,-12.32 19.79,-3.14 17.53,6.41 22.4,-8.42 -8.37,-4.09 -21.49,-2.23 -32.77,-1.67 -1.79,-1.68 -1.92,-10.46 -5.07,3.78 -0.03,0.17 -0.42,10.04 -0.43,10.29l-5.01 26.19c-0.21,-0.72 -0.21,-1.79 -0.29,-2.23l-2.82 -11.22c-12.4,4.12 6.66,-2.45 -7.22,6.01l-5.59 22.57c-0.69,-14.96 3.97,-46.3 -4.81,-55.7 -9.48,4.16 -5.49,19.25 -6.53,31.85 -9,-7.5 -16.8,-22.03 -22.95,-34.18 10.24,-14.01 -6.24,-0.91 -28.33,-1.8 5.21,7.27 10.14,4.39 11.75,5.65l-2 20.51c-22.96,-5.07 -7.39,-3.39 -12.57,-23.3 0,45.2 6.81,55.48 -12.11,60.82 -14.25,-12.23 -0.31,-13.63 -7.88,-60.99 -9.61,7.88 -1.93,0.51 -12.85,3.38l-11.99 5.14c-4.85,-4.6 4.22,-2.01 -11.2,-3.83l2.99 -4.71c7.51,-13.95 3.75,2.95 2.07,-6.45l-17.53 8.25c-0.56,0.36 -1.22,0.93 -1.78,1.28 -8.25,5.13 -12.2,6.54 -21.05,5.55l-0.29 38.18c-6.7,-7.75 -4.45,-12.65 -4.3,-25.26 0.17,-14.9 3.47,-16.9 -7.11,-19.92 -7.72,9.99 -3.09,39.52 -2.87,53.89 -6.04,-16.14 -1.55,-36.89 -4.94,-54.7l-11.54 3.18 9.43 10.7c-17.96,2.13 -12.57,-1.75 -13.97,12.79l13.95 -5.7 0.26 11.73c-10.8,2.14 -9.2,3.14 -18.71,-1.51l-0.63 3.9c-8.57,-8.23 -11.74,-24.87 -15.31,-37.02 4.7,-7.49 -15.81,-2.21 -19.82,-1.96 -4.39,12.3 10.32,-3.49 -1.84,5.39 -0.26,0.19 -7.36,3.67 -9.57,5.39l8.88 7.55 -14.56 4.51c7.48,3.56 8.53,1.19 9.24,7.48 1.41,12.46 -1.44,3.75 -5.31,6.47 -9.92,6.97 -12.26,9.67 -25.1,3.17 -1.57,-4.16 30.86,-38.85 -29.73,-34.9 -2.58,14.28 -0.19,55.06 0.71,51.97 0.11,-0.41 0.69,1.62 1.11,2.39 14.77,-6.14 1.16,-6.9 12.11,-20.26 0,18.2 4.59,20.83 -12.03,24.74 -12.36,-8.24 -6.5,4.67 -7.12,-30.08 -0.18,-10.45 -0.19,-19.97 0.06,-30.42 -6,16.33 3.16,27.63 -6.31,35.67 -3.36,-0.67 -5.52,8.17 -3.94,-7.1 0.58,-5.69 1.78,-3.91 4.92,-10.51 -19.71,-13.17 0.42,0.4 -7.7,-19.78 -4.79,-11.9 -14.9,-5.62 -4.47,-17.92l-15.18 3.6c-8.92,5.15 -5.55,13.1 -17.28,11.52 -10.46,-1.41 -4.16,-0.03 -9.34,-8.34 -9.57,11.28 -11.93,10.72 -5.34,23.51 -2.71,-20.43 0.03,-7.46 4.61,-12l0.31 11.1c16.46,1.91 7.74,-1.75 14.62,5.47l-6.26 1.3c0.31,-0.74 1.58,0.51 2.12,0.85l-1.25 19.08c-9.93,4.93 4.16,0.44 -5.8,-1.1 -4.4,-0.68 -2.34,-2.67 -8.65,1.19l-8.89 6.55c-10.87,-13.65 -10.67,-31.2 -19.46,-42.62l-12.76 3.19c-15.8,-9.43 16.07,4.67 -8.09,-1.26l-24.71 -5.91c-1.83,11.52 0.36,7.8 -5.41,15.7l-0.37 -11.65 -33.25 0.81c-11.41,-9.54 -0.01,-1.45 -12.02,-3.6l-10.55 -1.55c-8.01,-1.14 -14.01,-1.09 -23.78,-0.61 -6.91,-11.09 -2.45,-10.03 -17.52,-9.04l-20 1.2c-0.27,-0.6 -1.29,0.18 -1.85,0.49 8.13,9.34 5.42,4.71 19.2,6.69 -3.17,6.77 -7.83,16.09 3.69,16.52 -4.86,3.19 3.8,4.02 -9.45,3.01 -10.6,-20.16 -13.77,-22.3 -35.28,-23 3.68,-7.45 11.18,-9.04 -10.29,-15.45l8.88 17.54c-23.28,-4.07 -2.07,-10.82 -21.37,-20.54 -3.72,5.65 -2.71,-0.03 3.04,11.83 -12.98,1.9 -8.07,1.91 -11.63,10.06 -34.4,-0.38 -5.16,-5.73 -37.61,-8.48 -45.44,-3.86 -16.16,-9.64 -37.45,-6.44 7.93,8.13 25.52,11.88 16.93,28.23 8.66,-0.08 18.42,-6.3 22.88,4.92 2.86,7.18 0.94,21.72 0.63,30.51 -11.58,-5.15 -16.11,-3.47 -30.22,0.17 3.61,-15.36 6.21,-27.89 -3.02,-40.88 1.28,15.43 2.42,28.98 -0.89,43.94 -2.09,-8.65 -1.31,-16.18 -1.45,-25.67 -0.16,-11.82 2.43,-16.34 -6.07,-19.78 -9.01,9.21 -4.04,40.55 -4.33,55.17l36.33 -0.87c-7.02,5.91 -8.18,5.56 -19.68,5.45 -8.01,-0.08 -11.44,-0.88 -20.58,-2.55l-0.7 -56.11c-5.37,9.27 0.44,5.3 -12.41,9.97 -3.74,-20.55 4.96,-2.9 4.09,-13.44 -1.75,-0.53 -30.36,-8.53 -21.52,-0.08 -1.75,18.61 6.88,55.54 -19.4,47.3 -9.07,-15.76 -1.4,-30.36 -5.89,-44.26l-5.4 -0.27c-4.79,9 -2.8,27.55 -1.9,38.78 -7.05,-6.9 -2.21,-30.09 -2.83,-41.81 -7.64,7.03 -4.72,3.75 -6.14,13.39 -0.02,0.14 0.43,13 0.34,15.15 -6.23,-5.09 -10.55,-5.39 -17.09,-11.21l0.92 -7.26c-24.34,-22.78 -52.53,1.59 -38.76,37.97 -1.92,9.46 -5.15,0.65 1.63,9.92 -15.21,1.6 -11.99,8.72 -18.23,-6.06 -4.41,8.92 0,6.24 -9.1,8.54 -15.02,3.78 -7.72,1.93 -10.33,-4.44l13.19 1.1c-3.33,-14.05 -11.67,-48.82 -24.06,-54.12 -11.97,5.77 -8.08,20.99 -19.55,31.05l-1.58 -6.1c-2.66,9.52 -1.09,13.19 -9.69,11.93 -10.59,-1.54 8.23,-2.53 -16.03,-6.99l-5.15 7.07 0.1 -26.39c15.02,-5.88 10.72,4.18 14.24,-8.89 -8.34,-4.65 -28.92,-3.7 -39.72,-2.05 0.69,11.99 2.3,8.65 15.23,9.78l-0.02 9.42c-13.55,2.98 -6.35,2.42 -19.17,1.48l13.46 15.25c-24.8,11.59 -7.01,13.61 -14.53,24.08 -0.22,-0.19 -3.88,-3.72 -4.51,-4.42 -0.4,-0.43 -0.95,-1.2 -1.36,-1.66 -8.72,-9.56 1.17,-6.42 -10.15,-8.23 -2.02,0.1 -13.04,0.83 -14,0.64 -15.93,-3.1 -5.42,3.06 -9.63,-8.08 4.7,-11.38 -1.09,-3.4 9.73,-7.27 11.16,-3.99 2.42,6.07 9.99,-4.94 -11.52,-7.86 -6.75,-0.29 -20.02,-5.89 2.31,-27.35 18.41,2.45 23.62,-19.81l-33.64 -0.25 0.83 55.83c-7.07,-5.72 -4.71,-2.42 -3.64,-29.87l-4.33 24.23c-16.77,8.95 -20,3.25 -35.45,2.37 -4.17,-20.84 4.64,-10.86 -7.59,-13.75 6.7,-5.23 4.57,-2.48 12.12,-5 5,-1.66 2.31,1.18 8.26,-3.52 4.85,-3.84 21.53,-33.58 -30.27,-29.93l-0.29 40.76 -13.59 4.73c-8.49,-14.47 1.85,-11.56 -11.37,-17.52 -10.17,-4.06 -23.48,-5.47 -22.99,-18.26 19.69,-7.6 7.78,6.06 21.23,0.02 -3.18,-16.62 -25.5,-17.14 -33.36,3.73 8.62,23 19.38,8.57 26.29,27.28 -15.4,15.27 -11.96,-3.39 -25.95,2.57 1.26,17.37 24.61,10.02 34.75,6.11 12.41,10.54 1.53,16.88 -10.79,18.95 6.36,9.34 6.01,3.47 4.67,9l-18.31 -0.85c-10.18,-2.68 -4.28,-6.09 -15.55,4.53 9.54,5.89 7.37,1.06 18.03,3.77 -34.88,0.05 -14.16,17.35 -31.05,18.24 5.37,-8.64 9.8,-9.93 -0.06,-15.32 -11.12,-6.08 -3.41,0.92 -15.98,3.04 15.82,-21.28 7.32,-26.18 -17.82,-25.88 10.9,12.34 10.62,9.35 -4.01,15.22 10.26,9.53 7.3,4.12 5.89,9.36 -9.43,3.6 -9.41,-5.48 -23.74,-3.16 -12.17,1.97 -1.21,4.79 -13.61,8.95 7.59,-34.95 0.19,-28.2 -6.16,-29.49l-8.07 -1.45c-10.73,-3.06 -10.28,-5.45 -15.13,-14.93 -4.16,2.98 -5.89,1.08 -7.66,10.21 -1.61,8.26 -0.22,-0.07 0.42,4.9 2.04,16.03 4.48,-7.92 0.84,3.75 -11.92,-7.38 -0.46,-9.95 -21.8,-12.54 -4.4,8.72 -0.13,15.73 -2.44,20.13l-22.32 -9.68c-4.81,-3.38 -3.25,-2.56 -4.47,-3.68 7.68,-3.92 7.59,0.16 17.91,2.71 -0.76,-23.74 8.32,-13.81 2.3,-27.27 -8.37,4.19 -11.45,13.49 -19.57,16.35 -16.07,5.66 -6.21,-2.11 -22.34,-8.02 -4.08,12.45 6.58,5.81 -12.96,12.38 7,11.63 12.07,4.01 6.77,14.68 -7.07,-7.75 -6,-3.14 -13.09,-11.13 -3.96,0.67 -2.43,4.08 -7.32,5.52 -10.51,-9 -4.17,-4.99 -9.77,-16.26 -5.82,10.77 2.17,5.61 -9.56,13.25l15.01 8.37c-14.83,1.63 -21.72,-5.3 -40.65,-4.51l-21.6 -0.48c-6.49,0.08 -6.14,-1.41 -13.09,2.79l-8.41 -12.62c-12.42,11.78 -23.71,10.36 -34.95,7.97l7.14 -9.35c12.45,3.77 3.66,7.99 15.06,4.68 6.67,-1.94 8.26,-6.04 4.62,-12.85 -6.96,-13.02 -8.03,2.77 -25.62,-10.99 9.22,-4.31 4.06,-1.65 14.9,3.34 5.64,-11.76 8.84,-6.46 7.95,-17.03 -9.77,-1.21 -7.71,-0.41 -13.94,7.23 -2.31,-7.85 3.98,2.81 -1.78,-7.88 -5.76,5.92 -10.53,12.56 -16.88,11.89 0.38,-8.12 4.71,1.52 10.86,-16.27 -10.84,3.71 -6.66,1.05 -13.98,10.65 -3.69,-5.25 -5.25,-9.64 -11.32,-13.47 -12.27,8.27 -1.04,5.11 -11.93,9.14l-4.34 -8.32c6.01,-15.42 10.56,-2.56 10.06,-11.26 -0.46,-8.02 -4.92,0.11 -4,-20.08l23.7 -4.39c-10.37,-5.4 -14.66,-2.78 -26.42,-1.86 -3.45,-6.69 -0.66,-7.14 -7.85,-7.39 -10.17,-0.35 -2.15,0.46 -2.74,2.27l-0.16 3.35c-0.03,-0.48 0.21,1.38 0.09,1.73l-17.61 -2.4c6.2,-9.46 -1.87,-1.38 9.49,-8.4l-10.85 -6.86c5.85,10.79 -1.62,4.99 -2.29,7.88 -0.09,0.39 -0.37,1.29 -0.44,1.7l0.12 6.77c0.01,-0.48 0.34,1.75 0.3,3.59l-17.17 -2.59c8.91,13.14 0.81,0.67 22.71,4.64 -2.38,3.6 -11.2,8.51 -18.41,13.01l-13.69 -11.65c-10.05,-7.08 2.21,5.27 -13.32,-3.71l11.08 11.57c-7.54,0.32 -16.28,-0.15 -23.97,-2.95 -8.87,-3.24 -24.38,-21.4 -28.04,-29.29 -1.75,3.22 1.34,1.98 -7.4,5.33 7.78,5.94 10.31,2.49 4.75,12.78 -7.54,13.96 -11.52,2.67 -12.86,2.47 -6.84,-1.05 -25.12,-3.4 -29.45,-0.6 1.99,6.67 -1.04,-2.86 10.83,5.44l-10.91 13.5c10.72,-9.54 7.98,-9.11 15.53,3.51 -18.41,7.05 -10.12,-1.4 -28.01,4.74 -0.37,0.13 -1.18,0.5 -1.61,0.61 -0.34,0.09 -17.38,0.94 -18.67,0.78 -18.92,-2.37 -8.7,4.1 -13.26,-6.97 -2.82,0.5 0.44,4.98 -0.61,10.48l-14.94 -6.34c3.13,9.39 13.11,7.21 18.18,25.39 -7.97,-0.25 -9.63,-2.14 -9.79,-2.16 -8.63,-1.28 3.66,-1.16 -7.33,0.02 -7.57,0.81 -14.06,1.13 -23.02,1.74 -1.49,7.37 0.58,15.77 -5.93,26.07 -16.72,-0.67 -18.59,-8.57 -25.86,-16.9l12.3 -7.01c-0.99,-0.22 -5.5,-1.58 -6.14,-1.85 -0.4,-0.16 -1.31,-0.64 -1.66,-0.8 -0.3,-0.14 -1.08,-0.68 -1.33,-0.8 -11.18,-5.27 3.54,-2.98 -2.71,-0.79 -4.56,1.61 -0.29,11.24 -15.32,-0.44 0.26,-13.08 -3.91,-7.29 8.57,-12.13 -13.29,-1.26 -9.44,8.9 -10.29,17.31l-12.62 -6.89 -2.77 11.09c-4.08,-5.03 -9.3,-11.47 -12.57,-15.8l2.37 17.78c0.42,0.09 4.85,-0.16 5.13,-0.08l6.76 3.28c0.47,-0.81 1.87,0.95 2.39,1.29l-18.41 13.9c8.4,6.54 21.54,3.97 30.24,1.44 -9.25,-5.33 -3.71,5.03 -15.33,-7.53 5.77,-6.84 9.34,-11.28 19.37,-13.1l6.92 24.73 21.4 -0.26c-5.36,20.02 -6.31,8.61 -9.62,8.42 -5.62,-0.31 6.95,-8.43 -9.74,-1.82l6.57 7.33c0.17,0.37 0.39,1.3 0.53,1.68l1.07 4.83c4.5,11.29 1.21,-5.48 7.22,11.59 -14.56,0.67 -20.9,-2.61 -24.7,-18.37 -3.61,19.54 -9.11,4.71 -4.93,16.76 3.16,9.13 6.06,11.41 7.44,22.3 -7.72,0.86 -46.04,1.49 -36.63,14.74 0.86,-0.14 -2.98,0.13 2.1,-2.94l16.9 -4.79c1.04,-0.27 10.14,-3.4 10.29,-3.45l-11.81 15.56c-13.66,7.22 0.98,-4.87 -12.41,2.29 -2.13,7.2 -0.88,-0.82 1.19,11.92l-12.65 -0.18c-12.12,2.16 8.61,7.76 -15.48,1.04 -15.7,-4.39 -10.73,-3.39 -19.6,-13.88 0.08,0.04 26.34,25.44 10.14,31.12 8.16,-17.17 25.25,5.48 30.55,5.63 8.26,-11.19 1.15,-2.34 9.72,-8.66 -3.79,21.59 1.11,136.66 6.43,161.43 8.62,40.19 33.54,83.12 78.21,89.58l16.1 6.74c2.54,13.39 7.72,29.49 0.28,41.46l-1.97 -23.04c-4.32,-1.52 -8.55,-4.01 -14.96,-8.61 -13.46,-9.66 -17.57,2.21 -55.31,-27.13 -7.31,-5.69 -3.71,-8.39 -12.11,-14.84 -15.32,-11.76 -10.3,-6.18 -15.46,-26.34l-13.23 -39.77c-0.02,-0.29 0.05,-1.14 0.04,-1.43l-3.07 -23.82c-10.25,-57.53 -26.95,-28.69 -16.71,-50.02 10.76,10.68 -0.3,6.52 13.16,13.87l-8.19 -17.34 11.54 -4c-13.92,-5.42 -4.86,-9.14 -14.02,-17.84 -9.7,-9.22 -6.92,-9.71 -16.34,-20.4 14.86,-2.31 2.68,6.62 18.42,7.71 3.99,0.28 4.23,9.08 7.96,-4.79 2.98,-11.12 -7.17,-2.91 -0.76,-12.66l7.22 -2.16c8.26,1.18 -8.25,7.74 3.02,0.3 3.5,-2.32 1.09,-2.25 3.37,-2.68 -11.72,-3.62 -13.18,-7.01 -19.35,-15.28 -6.27,-0.88 -2.14,-0.76 -1.72,6.28 -17.31,-4.37 -11.65,-4.6 -24.79,8.76 -12,-5.68 -3.41,-1.48 -10.89,-10.99 -11.27,10.57 -8.68,4.58 -20.82,11.92 13.26,3.14 2.52,-3.16 14.54,5.22l-8.41 11.34c7.01,9.69 7.65,13.62 15.89,17.66 -11.2,4.83 -6.65,0.04 -14.04,4.27l7.9 14.36c-11.54,-4.9 -10.2,-15.88 -19.68,-19.43 -16.79,5.9 -7.44,2.39 -8.43,10.43l1.95 14.17c-0.66,0.57 -1.86,0.91 -2.34,1.18 -13.01,7.43 -8.89,0.19 -7.33,6.36l39.42 3.45c-6.91,-3.92 -17.96,-1.17 -18.06,9.17 -12.72,-10.95 -2.06,-6.61 -21.4,-9.23 3.28,6.9 4.14,14.73 8.69,18.9l14.6 3.56c-9.71,6.58 -4.1,5.91 -13.75,5.96 6.55,18.25 -5.98,7.08 6.53,15.73l-15.22 6.69c3.76,11.86 10.12,7.88 2.6,15.45l-4.4 3.07c-7.65,4.05 -2.5,-4.34 -11.52,7.04 -6.75,8.52 8.23,0.27 -7.75,8.48l11.51 9.71c-16.91,2.53 -16.64,5.48 -23.06,-7.67 -17.47,13.11 -0.71,6.48 -13.54,7.1 -1.38,-22.95 3.01,-3.2 12.5,-17.76 -11.48,1.03 -36.93,8.39 -39.96,-9.95 -4.92,7.22 -6.51,1.77 -8.31,13.65l18.44 -1.17 -4.15 10.38c-6.43,16.75 5.78,11.95 15.93,16.98 -16.34,5.2 -20.37,4.45 -23.32,12.94 -0.12,0.33 -0.29,2.54 -0.37,2.09 -0.07,-0.48 -0.06,1.53 -0.28,2.09l-15.21 -3.84c9.22,16.35 0.86,-1.87 21.28,6.97 -5.51,5.95 5.75,3.73 -12.75,5.99 -7.51,0.91 1.21,-5.16 -12.4,1.27l0 -372.23c5.94,0.75 9.79,0.65 13.55,0.85 9.71,0.51 8.24,1.27 19.77,4.29 -11.49,-20.87 -5.26,-0.19 -17.39,-16.35 12.84,4 8.03,7.84 23.05,4.97 -0.33,0.82 -0.28,0.69 -0.45,9.16 9.32,-1.32 4.67,4.07 11.72,-5.63 -2.34,17.24 -3.5,-4.22 -17.04,38.29l30.42 15.14c-9.76,-16.26 -15.4,-9.63 -21.78,-25.7 5.01,1.76 10.87,4.38 15.23,7.47 12.36,8.76 -1.45,4.48 14.26,10.36l0.69 -15.17c8.99,3.77 -3.78,1.91 9.33,7.62 -3.78,-15.41 18.73,-2.18 24.72,2.05 0.16,-0.51 -0.3,-1.96 -0.33,-1.6l3.36 -18.83c17.38,12.83 -5.06,7.66 14.13,13.89 -4.63,-11.04 -8.75,-15.93 -17.26,-25.1 22.29,-17.91 7.59,6.21 28.74,-1.98 6.46,-15.79 -4.22,-19.74 -18.2,-14.43 -4.66,-8.18 -7.72,-15.66 -15.4,-19.06 17.71,1.35 14.52,2.45 16.11,-2.79 4.27,-14.07 -8.16,10.03 1.32,-4.02 11.27,-2.06 1.51,1.06 7.62,0.41l6.06 -1.37c0.57,-0.31 1.4,-0.78 1.92,-1.19 7.36,-5.81 6.54,-11.57 3.57,-19.6 9.62,5.46 -2.29,0.74 10.63,12.36l16.8 -27.59 -12.64 -11.54c10.06,-0.03 5.6,0.23 15.22,-2.04 5.55,18.3 -1.37,10.23 4.95,19.5l13.54 -0.27c-5.41,-18.85 -10.54,-14.41 -7.28,-21.32 18.95,-2.97 -8.65,4.43 15.94,4.26 -0.79,-14.01 0.39,-8 -12.52,-17.9l30.05 10.27c8.72,-9.07 9.72,-12.85 18.5,-20.84l-4.99 -3.13c-0.51,-0.37 -1.6,-1.03 -2.17,-1.5 -0.51,-0.42 -1.36,-0.98 -1.87,-1.46 -4.96,-4.6 -3.21,-3.35 -5.43,-8.56l1702.82 0c10.5,6.2 9.3,3.54 20.45,0z"/>
  <path class="fil3" d="M2725.04 2298.52l-8.26 1.48c-22.08,0.27 -39.38,14.1 -60.03,16.03 -4.22,4.81 -142.66,70.75 -158.99,76.33 -11.09,9.89 -62.97,30.83 -80.78,38.48l-53.13 20.45 -32.2 20.48c-9.91,10.43 -28.06,22.91 -39.82,34 -12.3,11.61 -26.78,20.68 -37.13,32.62l-27.07 27.38c-15.25,17.31 -122.39,121.41 -49.98,129.45 -3.22,10.21 -1.92,4.58 -9.86,12.65 13.58,-2.23 8.29,-6.8 38.69,16.79l9.01 -10.89c10.38,3.68 20.71,5.77 23.97,15.4 17.44,8.93 48.29,30.32 55.17,48.28 13.58,35.5 -27.94,40.98 -42.58,55.16 -27.99,20.39 -28.77,27 -49.24,51.62 15.27,31.83 25.05,12 35.99,29.79l-12.46 8.77c5.2,16.88 1.65,2.32 7.81,12.18 -13.75,11.02 3.17,13.09 -18.35,22.24l-73.07 18.45c-12.92,3.33 -23.15,4.35 -35.85,9.05 -8.35,-4.65 -9.44,-10.19 -26.45,-20.16 -16.2,-9.5 -25.98,-3.94 -32.97,-12.05 -0.58,2.27 -0.99,4.74 -2.24,6.8 -7.97,13.19 -0.94,4.04 -7.95,8.15 -11.21,6.12 -4.67,8.71 -14.23,17.91 -15.76,15.17 -5.87,4.92 -10.78,18.41 -2.34,6.42 -3.98,0.75 -5.58,16.53 -2.44,24.13 1.72,-10.94 -10.91,6.41 7.61,8.99 33.72,11.61 46.13,14.26 -1.9,-16.85 6.91,-24.77 21.2,-32.76 14.64,-8.17 28.21,-16.46 39.55,-3.44 8.03,-10.57 39.65,-16.37 54,-19.13 47.5,-9.12 43.5,-18.21 82.75,-23.35 20.57,-2.69 46.79,-14.22 85.69,-14.05 2.84,-9.44 -5.37,-11.15 14.28,-13.96 22.17,-3.18 -0.03,3.88 19.16,-12.99 8.68,-7.62 56.4,-24.77 74.53,-34.17 11.11,-5.75 13.35,-11.08 20.85,-15.7 16.5,-10.16 34.23,-20.94 31.98,-43.46 -5.99,2.87 -13.11,7.66 -14.48,14.33 11.13,-10.24 11.18,-24.11 14.52,-37.36 3.8,-19.76 -7.24,-41.76 -22.76,-51.9 10.86,-6.6 10.55,0.88 16.16,-10.85 -6.84,-7.86 -10.36,-8.96 -20.92,-7.42 -18.05,2.62 -2.49,10.07 -23.02,-0.27 -12.89,-6.48 -25.29,-11.99 -34.29,-23.66 -12.02,-15.58 -13.88,-21.8 -8.49,-40.95 16.5,-58.61 84.54,-77.46 133.17,-99.02 16.94,-7.51 31.71,-7.31 45.59,-16.1 -16.1,-1.04 -30.98,6.76 -47,8.26 2.49,-13.03 4.27,-15.16 12.33,-24.59 14,-16.36 6.64,-7.68 19.1,-10.71 13.96,-3.4 -7.47,-3.45 27.79,-11.37 0.5,-0.11 1.38,-0.37 1.81,-0.47l8.93 -1.97 -11.82 -20.08c18.12,-14.48 49.97,-15.53 65.18,-26.17 4.98,-3.48 12.15,-19.49 17.37,-27.93 9.85,-15.89 -3.99,-14.05 14.5,-28.12 -2.07,-7.65 -13.32,-7.08 9.71,-29.89 23.31,-23.09 -5.08,-25.57 41.19,-56.15 16.67,-11.01 9.21,-18.87 28.54,-13.33 -1.1,-4.61 -7.15,-5.92 1.74,-10.91 11.56,-6.49 9.16,-1.69 9.91,3.01 5.15,-16.1 10.48,-15.17 26,-26.27l-71.61 20.45z"/>
  <path class="fil4" d="M556.34 3915.33c-8.08,4.5 -5.97,1.68 -9.95,10.96 5.56,5.82 18.91,13.62 27.16,21.55 11.41,10.95 5.77,6.07 5.24,11.55l0.11 19.11c-7.44,4.94 -12.23,5.22 -13.66,14.18l1.36 10.74c-17.29,2.98 -12.45,17.74 -28.12,15.48 8.59,9.34 4.85,7.01 4.2,14.37 -18.93,-2.16 -2.01,-4.71 -22.19,8.52 10.17,4.33 5.93,4.37 4.79,16.39l-8.93 -4.37c-0.06,-0.03 -0.39,-0.2 -0.58,-0.16l1.14 15.68c-11.52,1.15 -4.19,-2.49 -10.54,1.24 -8.22,4.83 -0.72,2.01 -1.44,8.8 -1.94,18.29 -8.25,6 -8.32,6 -6.42,0.11 0.83,-7.03 -9.07,4.34 -13.03,14.96 -7.92,6.14 -25.46,10.92 -13.37,3.65 -19.06,8.7 -30.89,6.42l9.1 9.04 -19.63 9.27 4.54 13.29c0.12,0.25 0.71,0.86 0.77,1.39l-7.7 3.47c-0.44,-5.55 1.8,-5.52 -3.52,-12.37 -14.6,11.71 0.99,6.71 -16.69,-4.24 -8.95,10.75 -4.97,1.16 -1.29,14.78l-12.59 -8.5c-9.88,15.58 -5.37,-0.71 -8.48,15.74 18.84,0.11 3.21,2.08 14.26,-6.22 -4.63,8.33 -5.45,2.61 -11.42,17.38 -13.54,-9.24 -14.81,-3.02 -20.17,0.1l21.48 14.33c-14.88,2.7 2.2,-9.49 -17.61,4.39 -10.89,7.63 -12.82,9.85 -22.72,5.31l-2.98 14.76c-10.96,-5.55 -15.66,-5.22 -22.76,5.24 -0.34,0.5 -0.73,1.35 -1.06,1.86l-10.96 16.21c0.59,-15.11 0.53,-21.06 -17.4,-20.3 3.66,15.06 8.4,7.13 7.86,19.82l-0.77 4.1c16.51,-1.5 14.71,11.34 20.96,21.31l6.41 -2.11c-2.05,-2.39 -4.17,1.01 -4.97,1.11 -4.07,0.49 2.05,1.45 -9.45,-3.51 -5.36,13.39 0.96,2.3 -1.19,12.58l-11.98 -9.98 -11.32 12.76c-1.85,-20.11 1.66,-22.73 -18.93,-22.03 2,5.34 9.47,14.45 14.45,19.57 -32.11,19.42 -9.66,12.99 -27.55,25.62 -4.85,3.43 -5.21,2.16 -9.9,6.49 -1.1,14.23 1.35,20.2 12.16,21.98 -10.62,8.93 -2.8,-0.35 -14.42,1.68 27.53,17.07 -7.56,21 17.64,34.54l-12.41 2.18c8.61,11.42 -1.12,9.28 13.05,6.42 7.68,-1.55 6.21,-3.58 8.9,-8.75 4.84,12.66 -0.16,2.06 10.62,10.73 -14.7,-0.5 -9.3,-3.25 -22.31,3.3 18.68,11.81 25.43,5.3 34.12,-7.44 9.53,2.21 2.76,-1.29 11.14,8.89 5.76,-1.83 5.37,-4.36 12.45,-4.38l4.29 6.8c-8.72,1.64 -9.42,0.51 -16.51,-2.37 -0.15,3.02 -0.34,8.39 -0.18,9.38 -12.56,-6.49 -8.7,-9.42 -19.99,-1.14 6.65,13.3 -4.21,0.15 5.1,5.08 2.84,1.51 5.55,1.48 8.87,2.42 14.17,4.02 8.34,7.1 19.33,10.2 10.98,3.09 -0.77,-1.79 7.53,1.16 5.07,1.8 2.78,4 13.78,8.05l0.65 -4.18c0.05,-0.28 0.27,-1.45 0.32,-1.77 1.23,-7.9 4.76,-5.14 -4.21,-7.46 -0.27,-0.07 -1.39,-0.21 -1.63,-0.26 -0.24,-0.05 -1.17,0.02 -1.7,-0.2l9.41 -5.54c2.6,9.86 -1.16,13.04 3.67,20.36 7.88,11.97 11.2,3.48 22.95,11.31 -10.09,6.26 -12.55,2.94 -24.74,5.39 1.59,4.44 -7.37,4.48 8.72,8.5l-10.56 9.08c-3.72,-7.56 2.12,8.45 -0.55,-4.24 -1.41,-6.65 1.09,-2.54 -2.87,-9.38l-10.91 2c-0.39,0.02 -1.28,0.03 -1.66,0.02 -0.39,-0.01 -1.27,-0.06 -1.67,-0.09 -4.7,-0.39 -16.6,-3.5 -20.99,-5.75 18.59,-6.19 10.41,6.05 27.98,-1.71 4.62,-12.82 3.01,-6.24 1.91,-15.68 -24.9,-12.62 -21.75,2.25 -23.24,3.9 13.66,3.72 5.33,2.92 16.85,0.07l-2.41 7.57c-12.82,-6.28 -26.77,0.99 -35.79,10.09 24.87,3.84 13.34,14.69 32.07,8.89 -6.49,11.19 -2.94,4.49 -1.49,12.99l-22.12 6.56c-0.41,0.55 -1.16,1.35 -1.6,1.88 -0.5,0.6 -1.47,1.53 -1.92,2.04 -0.48,0.54 -1.4,1.4 -2.09,2.11l18.59 -4.92c3.97,9.41 3.8,6.81 11.86,13.26 -9.13,2.38 -11.91,0.42 -17.09,7.36 -0.4,0.54 -0.87,1.37 -1.2,1.94l-2.64 9.43c-2.41,9.52 4.15,0.28 -2.58,7.31l-3.84 -6.92c-0.35,-0.46 -0.88,-1.24 -1.29,-1.7 -11.02,-12.39 -0.56,-5.55 -12.19,-7.73 -6.98,18.21 8.35,-4.03 -0.66,13.66 -5.2,-0.86 -11.58,-2.97 -18.42,-2.17 9.27,6.4 19.91,6.54 30,2.71 -0.69,10.87 2.42,2.44 -9.56,11.37 23.18,3.81 3.82,-1.7 18.24,-4.46 0.61,13.64 -5.38,12.88 -17.98,13.61l17.61 1.27c-4.16,10.81 -7.74,8.63 6.23,15.72 11.6,5.89 23.46,-4.49 31.48,9.52 5.93,10.36 -5.03,2.82 14.59,8.75l-15.02 8.19c18.78,7.69 13.26,4.87 24.16,-6.5 0.19,-0.2 0.82,-0.74 0.99,-0.91 0.15,-0.15 0.74,-0.6 0.87,-0.73l1.46 -1.35c0.28,-0.29 0.25,-4.4 8.72,-8.4l9.86 14.69c15.68,-19.2 2.24,-8.17 0.56,-30.78 1.35,1.21 3.12,0.26 6.38,7.87 3.25,7.6 2.05,15.57 1.25,22.96 -0.95,8.78 9.66,0.43 -1.86,14.09 -9.76,-4.44 5.05,1.14 -7.56,-7.57 -4.41,-3.03 -10.47,-4.59 -14.11,-6.12 2.01,14.11 2.06,0.59 5.84,12.44 -20.46,-2.5 8.65,-5.4 -14.23,-5.13 -8.91,0.1 -14.49,4.71 -18.13,12.16 13.01,7.95 -2.52,-9.23 23.52,6.23 8.59,-8.77 7.45,-8.5 20.19,-5.73 1.81,11.34 1.48,7.35 -5.24,17.12 10.37,0.37 23.74,-0.66 23.28,13.28 -1.08,-0.81 -6.35,-4.35 -10.74,-8.74 -2.94,7.71 -2.97,5.34 -6.3,8.21 -10.16,8.74 1.33,-4.67 -6.47,4.06 -6.53,7.3 -6.95,12.59 -2.89,20.33 -10.39,-0.28 -18.2,-6.41 -23.36,3.59 -3.9,7.55 5.62,8.76 1.82,17.25l-24.44 -9.66c-8.65,-2.72 -19.49,-8.6 -25.96,-10.8 5.03,12.15 -0.68,-0.59 15.91,10.08 -16.99,12.22 -12.34,3.63 11.49,5.24 -8.54,13.37 -10.15,0.73 -0.1,13.31 10.59,-7.85 23.33,-7.71 37.79,-7.6 -8.98,12.68 -7.12,0.51 -12.3,14.04 12.2,-4.36 1.94,-2.83 12.26,-6.58 15.9,-5.78 3.81,3.75 18.04,-4.13 0.92,-24.9 -6.68,-4.17 -9.27,-20.43 11.43,5.55 16.7,14.43 31.03,20.22 10.43,4.21 20.84,4.02 31.8,14.63 -14.11,3.85 -9.23,-1.39 -18.04,9.57 11.72,4.3 13.14,1.39 24.38,-3.72 -6.93,10.18 -5.89,2.61 -14.32,13.65l11.61 3.12c-6.68,0.31 0.2,-7.01 -12.15,3.89 9.76,8.57 5.59,3.24 14.82,3.05 7.4,-0.16 7.6,1.11 16.69,-0.38 20.6,-3.37 -3.22,-8.3 31.5,7.2 8.83,-4.26 7.39,-4.42 11.98,-12.55 10.38,14.01 1.93,14.13 23.28,11.2 -9.17,-11.67 -1.73,-3.94 -13.18,-9.49 14.24,1.41 8.35,4.05 11.43,-3.92 -15.18,-8.14 -7.54,1.38 -16.8,-2.49 11.34,-6.44 13.04,2.39 24.89,7.18 9.6,3.87 23.92,2.56 35.17,2.7 -3.78,7.9 0.29,1.19 -6.56,5.56l-5.58 2.38c-1.27,0.42 -5.27,-3.19 -14.32,8.99 6.58,5.42 19.5,1.12 26.59,1.83 17.95,1.77 21.7,10.51 28.49,-4.4l6.47 7.55c-6.5,5.23 3.5,-4.16 -9.66,3.77l17.22 11.56c-13.69,-4.22 -18.9,-7.78 -24.54,3.93l255.1 0 2.32 -9.24c-10.6,3.72 0.57,-0.88 -7.8,-1.18 -0.99,-0.04 -4.27,-0.04 -6.42,0.29l-5.34 1.24c-0.72,0.17 -1.85,0.65 -2.81,0.8 2.64,-8.94 1.79,-4.66 -1.41,-7.86 -0.17,-0.17 -1.1,-0.36 -1.61,-0.61l33.56 -2.71c13.29,-3.46 2.9,3.7 10.5,-6.43l-17.96 -4.27c-0.65,-0.23 -1.46,-0.54 -2.06,-0.8l-8.09 -5.29c8.25,-9.07 18.11,-7.41 30.88,-7.88l-9.06 -9.95c11.34,-3.21 4.33,-3.88 16.56,-1.52 -6.88,-5.87 -6.72,-3.17 1.45,-9.92 -10.99,2.25 -31.02,12.78 -33.57,1.42 -10.27,7.13 -16.3,8.49 -27.36,8.3l-0.76 -9.72c1.7,11.39 7.04,17.9 -14.17,19.55 -12.43,0.96 -13.89,3.64 -22.41,13.23 -3.67,-9.52 -1.31,-5.27 -8.71,-14.06 -3.01,11.93 3.04,7.76 -9.18,12.63l-1.3 -12.57c-7.33,4.05 -15.54,1.49 -22.26,-2.9l-14.86 -15.7c5.74,-0.02 15.79,4.04 20.69,1.55 -7.88,-4.56 -1.8,-0.78 -0.16,-3.24 -5.44,-3.79 -14.88,-3.42 -22.32,-4.12 13.99,-10.28 6.05,-4.49 4.45,-8.72 -6.99,5.22 -10.33,5.25 -18.86,5.79l12.21 11.64c-0.4,-0.02 -1.48,-0.4 -1.77,0.46 -0.29,0.85 -1.58,0.67 -1.99,0.87l-20.57 -17.14c-5.9,1.51 -14.49,4.43 -15.6,4.44 -0.72,0 -6.29,-1.56 -6.96,-1.84l-5.86 -3.16c-0.22,-0.07 -0.97,-0.28 -1.19,-0.31l-2.58 0.09c-0.31,0.03 -1.17,0.25 -1.51,0.3l-26.62 0.23c0.26,0.66 1.08,0.81 1.2,1.77l2.48 5.06c0.28,3.12 4.74,0.69 -2.81,5.31 -6.62,4.05 -17.17,3.93 -24.83,1.42 1.59,-3.75 -9.31,-14.17 13.97,-7.27 -13.71,-14.15 23.92,-12.25 33.92,-10.5 -6.8,-7.75 -8.42,-2.84 -18.22,-12.06 3.03,-1.75 5.84,-1.19 8.58,-1.4l9.76 -1.15c-11.57,-9.7 -16.47,-9.38 -27.52,-0.25 -6.03,-4.51 -6.33,-4.82 -12.07,-8.74 -9.89,-6.76 -1.65,0.04 -2.86,-4.28l-13.02 0.25c-0.27,0.02 -0.99,0.11 -1.26,0.12l-25.19 -0.08c6.41,-9.79 -3.61,-6.08 15.87,-10.27 -10.77,2.38 -2.34,0.26 -7.6,-5.46l-2.83 -3.2c-4.09,-4.27 -12.82,-4.89 -7.1,-13.48 -13.9,1.55 -10.16,2.3 -19.02,-7.45 -11.52,10.57 -14.25,18.48 -28.44,4.71 -1.34,6.92 -10.22,-1.91 4,8.85l-12.85 -1.26c3.13,-5.62 5.99,-10.69 0.75,-12.81 15.59,4 4.05,-8.9 22.08,-8.8l-4.91 7.51c-0.43,0.7 -0.94,1.6 -1.35,2.29l-2.85 5.13c13.34,-1.78 25.26,-3.82 34.9,-10.22 -12.18,-14.67 -7.64,-5.63 -14.38,-9.17 -3.92,-2.06 -1.96,5.13 -6.21,-8.38 -0.1,-0.33 -0.04,-1.38 -0.36,-1.96 -13.07,5.41 -15.5,15.29 -33.64,15.93 12.96,-5.24 9.26,-0.87 8.64,-10.82 -9.36,1.71 -9.12,2.93 -16.1,-3.29 18.21,-13.15 23.06,-4.91 34.52,-4.05 -8.68,-14.74 -13.67,-2.55 -31.98,-12.4 3.7,-17.05 -0.79,7.23 6.4,-7.9 2.3,-4.86 4.87,1.42 -1.37,-8.33 -7.62,-11.9 -14.58,-11.28 1.2,-22.83 3.55,9.85 2.28,1.04 0.49,7.77 -0.09,0.35 -4.4,6.95 -4.66,7.36 39.66,5.94 12.36,2.96 37.5,-2.54 -36.7,-25.19 -8.56,-9.39 -20.89,-22.94 -8.54,7.95 -5.26,7.64 -18.3,7.56 -0.85,-15.59 -4.85,-8.28 6.55,-14.9 -15.12,-8.15 -13.42,-7.06 -7.91,-23.04 -20.38,11.85 -3.32,14.88 -19.21,10.65 -0.5,-0.13 -1.54,-0.77 -2.35,-1.03 10.93,14.78 6.22,4.54 4.15,11.19 -9.23,-1.68 -9.67,-2.47 -18.83,-4.36l-16.31 -7.36c5.16,0.63 11.79,3.33 12.15,3.36 7.04,0.54 3.81,4.98 10.32,-3.93l-19.65 -1.74c10.54,-14.52 8.92,-5.81 5.63,-16.01 -9.95,1.03 -42.48,12.71 -21.87,-9.89l-17.33 -3.24c0.17,-0.15 1.69,-12.39 20.22,2.28 3.36,-7.37 2.62,-0.29 -1.57,-11.67 14.03,3.09 4.13,5.13 15.76,2.64 -0.03,-4.51 4.11,-17.2 6.09,-24.6l-5.41 -0.45c-11.93,0.04 -10.78,2.23 -18.85,-3.89 -6.82,-5.17 -13.03,-11.46 -20.39,-15.32 -8.08,4.83 -13.87,9.88 -22.77,5.97 10.25,-2.46 7.01,-0.03 11.25,-5.13l0.53 -7.89c10.57,2.24 14.28,7.02 19.46,-0.94 2.61,-4 5.21,-3.98 5.63,-8.43l-35.02 0.06 -2.03 -11.11c7.93,-0.15 23.03,-1.2 33.45,-4.83 -3.29,-5.94 -8.9,-4.99 -15.85,-5.68l14.39 -4.07c-8.66,-10.94 1.32,-4.53 -13.59,-9.35 18.05,-5.86 30.28,6.79 27.4,-15.15 -13.17,6.24 -26.25,7.92 -39.13,1.5l7.29 -5.21c0.65,-0.33 1.63,-0.71 2.25,-0.99 0.66,-0.3 1.84,-0.68 2.39,-0.91 0.57,-0.24 1.7,-0.48 2.49,-0.86 -10.84,-2.87 -11.97,-4.81 -20.6,-14.46 -0.41,-0.46 -8.34,-7.5 -8.36,-7.51 -11.48,-7.89 -2.2,0.81 -7.15,-3.02 -0.76,-13.45 5.77,13.69 8.93,-14.73l-7.3 -2.88c-6.9,-8.19 1.53,-2.09 -6.4,-12.31l-24.27 2.66c15.23,-11.47 3.85,-5.09 6.33,-14.37 7.07,3.64 5.35,5.52 14.18,6.92 23.07,3.68 11.89,-2.08 13.76,-8.94 -13.11,-7.88 -2,-1.46 -12.94,-1.96l-22.49 -3.04c-0.21,-0.07 -3.96,-3.28 -5.5,-2.26l12.78 -12.33 18.49 1.19 16.99 -22.46c2.79,3.5 6.5,10.32 7.47,11.84 3.01,4.68 0.11,1.69 3.95,5.42 5.17,5.02 3.13,3.1 7.78,4.83 -2.21,-7.24 -2.97,-5.21 -3.62,-6.66 -3.05,-6.79 -1.52,-2.28 -1.81,-6.49 -0.25,-3.67 14.89,-4.15 -8.41,-9l7.94 -5.27c1.43,-2.88 1.35,-0.88 -4.37,-6.73 6.71,-0.26 9.11,0.94 9.44,0.94 11.27,0.16 -0.12,4.47 8.53,-0.93 -5.85,-12.97 -10.71,-1.53 -18.28,-12.83 5.7,-5.36 25.89,2.43 38.1,0.47 -2.04,-5.16 -3.14,-3.57 -4.54,-5.49 -4.83,-6.6 -1.71,4.93 -3.66,-6.18 -1.71,-9.75 1.62,-2.55 2.29,-2.67l8.16 0.24 -5.28 -14.46c10.09,1.87 8.56,2.6 10.17,8.7 10.31,-10.89 8.42,-1.22 20.9,-5.39 5.39,-1.8 2.51,-4.32 10.1,-12.54 9.78,4.44 6.05,5.54 14.7,7.26l-9.73 -10.11c9.94,-3.25 22.68,-18.48 5.33,-28.98l9.76 -5.02c7.33,-7.14 -3.1,-4.14 14.96,-8.16 8.41,-1.87 10.64,-1.59 9.93,-11.77 -0.63,-9 -5.01,2.7 -0.74,-5.13 12.09,-1.71 17.89,5.77 22.3,12.04 5.08,-22.16 -4.42,-6.59 -0.74,-18.54 1.93,-6.26 7.03,-18.28 0.52,-24.09 21.92,1.63 -5.22,-7.91 20.57,-1.47l-8.96 -8.96 6.41 -4.96c5.19,-5.18 -4.34,-2.19 11.54,-5.3 -3.39,-10.4 -0.05,-2.45 -7.22,-12.15l15.38 3.17c2.81,-19.15 -5.74,-7.04 0.14,-20.93 7.29,-17.25 -7.52,5.32 3.63,-5.3l18.67 -2c0.07,-17.85 2.62,-9.96 3.93,-28.53l-13.9 -6.13c0.78,5.88 1.39,5.49 4.4,-3.51l1.05 -5.79c3.98,-10.16 2.75,-9.03 0.85,-20.8l-13.24 5.7c-4.34,-7.07 -9.01,-15.16 -13.41,-21.5 -12.94,4.07 -6.01,6 -11.94,2.92z"/>
  <path class="fil5" d="M194.17 4222.11l0 507.85 389.11 0c5.64,-11.71 10.85,-8.15 24.54,-3.93l-17.22 -11.56c13.16,-7.93 3.16,1.46 9.66,-3.77l-6.47 -7.55c-6.79,14.91 -10.54,6.17 -28.49,4.4 -7.09,-0.71 -20.01,3.59 -26.59,-1.83 9.05,-12.18 13.05,-8.57 14.32,-8.99l5.58 -2.38c6.85,-4.37 2.78,2.34 6.56,-5.56 -11.25,-0.14 -25.57,1.17 -35.17,-2.7 -11.85,-4.79 -13.55,-13.62 -24.89,-7.18 9.26,3.87 1.62,-5.65 16.8,2.49 -3.08,7.97 2.81,5.33 -11.43,3.92 11.45,5.55 4.01,-2.18 13.18,9.49 -21.35,2.93 -12.9,2.81 -23.28,-11.2 -4.59,8.13 -3.15,8.29 -11.98,12.55 -34.72,-15.5 -10.9,-10.57 -31.5,-7.2 -9.09,1.49 -9.29,0.22 -16.69,0.38 -9.23,0.19 -5.06,5.52 -14.82,-3.05 12.35,-10.9 5.47,-3.58 12.15,-3.89l-11.61 -3.12c8.43,-11.04 7.39,-3.47 14.32,-13.65 -11.24,5.11 -12.66,8.02 -24.38,3.72 8.81,-10.96 3.93,-5.72 18.04,-9.57 -10.96,-10.61 -21.37,-10.42 -31.8,-14.63 -14.33,-5.79 -19.6,-14.67 -31.03,-20.22 2.59,16.26 10.19,-4.47 9.27,20.43 -14.23,7.88 -2.14,-1.65 -18.04,4.13 -10.32,3.75 -0.06,2.22 -12.26,6.58 5.18,-13.53 3.32,-1.36 12.3,-14.04 -14.46,-0.11 -27.2,-0.25 -37.79,7.6 -10.05,-12.58 -8.44,0.06 0.1,-13.31 -23.83,-1.61 -28.48,6.98 -11.49,-5.24 -16.59,-10.67 -10.88,2.07 -15.91,-10.08 6.47,2.2 17.31,8.08 25.96,10.8l24.44 9.66c3.8,-8.49 -5.72,-9.7 -1.82,-17.25 5.16,-10 12.97,-3.87 23.36,-3.59 -4.06,-7.74 -3.64,-13.03 2.89,-20.33 7.8,-8.73 -3.69,4.68 6.47,-4.06 3.33,-2.87 3.36,-0.5 6.3,-8.21 4.39,4.39 9.66,7.93 10.74,8.74 0.46,-13.94 -12.91,-12.91 -23.28,-13.28 6.72,-9.77 7.05,-5.78 5.24,-17.12 -12.74,-2.77 -11.6,-3.04 -20.19,5.73 -26.04,-15.46 -10.51,1.72 -23.52,-6.23 3.64,-7.45 9.22,-12.06 18.13,-12.16 22.88,-0.27 -6.23,2.63 14.23,5.13 -3.78,-11.85 -3.83,1.67 -5.84,-12.44 3.64,1.53 9.7,3.09 14.11,6.12 12.61,8.71 -2.2,3.13 7.56,7.57 11.52,-13.66 0.91,-5.31 1.86,-14.09 0.8,-7.39 2,-15.36 -1.25,-22.96 -3.26,-7.61 -5.03,-6.66 -6.38,-7.87 1.68,22.61 15.12,11.58 -0.56,30.78l-9.86 -14.69c-8.47,4 -8.44,8.11 -8.72,8.4l-1.46 1.35c-0.13,0.13 -0.72,0.58 -0.87,0.73 -0.17,0.17 -0.8,0.71 -0.99,0.91 -10.9,11.37 -5.38,14.19 -24.16,6.5l15.02 -8.19c-19.62,-5.93 -8.66,1.61 -14.59,-8.75 -8.02,-14.01 -19.88,-3.63 -31.48,-9.52 -13.97,-7.09 -10.39,-4.91 -6.23,-15.72l-17.61 -1.27c12.6,-0.73 18.59,0.03 17.98,-13.61 -14.42,2.76 4.94,8.27 -18.24,4.46 11.98,-8.93 8.87,-0.5 9.56,-11.37 -10.09,3.83 -20.73,3.69 -30,-2.71 6.84,-0.8 13.22,1.31 18.42,2.17 9.01,-17.69 -6.32,4.55 0.66,-13.66 11.63,2.18 1.17,-4.66 12.19,7.73 0.41,0.46 0.94,1.24 1.29,1.7l3.84 6.92c6.73,-7.03 0.17,2.21 2.58,-7.31l2.64 -9.43c0.33,-0.57 0.8,-1.4 1.2,-1.94 5.18,-6.94 7.96,-4.98 17.09,-7.36 -8.06,-6.45 -7.89,-3.85 -11.86,-13.26l-18.59 4.92c0.69,-0.71 1.61,-1.57 2.09,-2.11 0.45,-0.51 1.42,-1.44 1.92,-2.04 0.44,-0.53 1.19,-1.33 1.6,-1.88l22.12 -6.56c-1.45,-8.5 -5,-1.8 1.49,-12.99 -18.73,5.8 -7.2,-5.05 -32.07,-8.89 9.02,-9.1 22.97,-16.37 35.79,-10.09l2.41 -7.57c-11.52,2.85 -3.19,3.65 -16.85,-0.07 1.49,-1.65 -1.66,-16.52 23.24,-3.9 1.1,9.44 2.71,2.86 -1.91,15.68 -17.57,7.76 -9.39,-4.48 -27.98,1.71 4.39,2.25 16.29,5.36 20.99,5.75 0.4,0.03 1.28,0.08 1.67,0.09 0.38,0.01 1.27,0 1.66,-0.02l10.91 -2c3.96,6.84 1.46,2.73 2.87,9.38 2.67,12.69 -3.17,-3.32 0.55,4.24l10.56 -9.08c-16.09,-4.02 -7.13,-4.06 -8.72,-8.5 12.19,-2.45 14.65,0.87 24.74,-5.39 -11.75,-7.83 -15.07,0.66 -22.95,-11.31 -4.83,-7.32 -1.07,-10.5 -3.67,-20.36l-9.41 5.54c0.53,0.22 1.46,0.15 1.7,0.2 0.24,0.05 1.36,0.19 1.63,0.26 8.97,2.32 5.44,-0.44 4.21,7.46 -0.05,0.32 -0.27,1.49 -0.32,1.77l-0.65 4.18c-11,-4.05 -8.71,-6.25 -13.78,-8.05 -8.3,-2.95 3.45,1.93 -7.53,-1.16 -10.99,-3.1 -5.16,-6.18 -19.33,-10.2 -3.32,-0.94 -6.03,-0.91 -8.87,-2.42 -9.31,-4.93 1.55,8.22 -5.1,-5.08 11.29,-8.28 7.43,-5.35 19.99,1.14 -0.16,-0.99 0.03,-6.36 0.18,-9.38 7.09,2.88 7.79,4.01 16.51,2.37l-4.29 -6.8c-7.08,0.02 -6.69,2.55 -12.45,4.38 -8.38,-10.18 -1.61,-6.68 -11.14,-8.89 -8.69,12.74 -15.44,19.25 -34.12,7.44 13.01,-6.55 7.61,-3.8 22.31,-3.3 -10.78,-8.67 -5.78,1.93 -10.62,-10.73 -2.69,5.17 -1.22,7.2 -8.9,8.75 -14.17,2.86 -4.44,5 -13.05,-6.42l12.41 -2.18c-25.2,-13.54 9.89,-17.47 -17.64,-34.54 11.62,-2.03 3.8,7.25 14.42,-1.68 -10.81,-1.78 -13.26,-7.75 -12.16,-21.98 4.69,-4.33 5.05,-3.06 9.9,-6.49 17.89,-12.63 -4.56,-6.2 27.55,-25.62 -4.98,-5.12 -12.45,-14.23 -14.45,-19.57 20.59,-0.7 17.08,1.92 18.93,22.03l11.32 -12.76 11.98 9.98c2.15,-10.28 -4.17,0.81 1.19,-12.58 11.5,4.96 5.38,4 9.45,3.51 0.8,-0.1 2.92,-3.5 4.97,-1.11l-6.41 2.11c-6.25,-9.97 -4.45,-22.81 -20.96,-21.31l0.77 -4.1c0.54,-12.69 -4.2,-4.76 -7.86,-19.82 17.93,-0.76 17.99,5.19 17.4,20.3l10.96 -16.21c0.33,-0.51 0.72,-1.36 1.06,-1.86 7.1,-10.46 11.8,-10.79 22.76,-5.24l2.98 -14.76c9.9,4.54 11.83,2.32 22.72,-5.31 19.81,-13.88 2.73,-1.69 17.61,-4.39l-21.48 -14.33c5.36,-3.12 6.63,-9.34 20.17,-0.1 5.97,-14.77 6.79,-9.05 11.42,-17.38 -11.05,8.3 4.58,6.33 -14.26,6.22 3.11,-16.45 -1.4,-0.16 8.48,-15.74l12.59 8.5c-3.68,-13.62 -7.66,-4.03 1.29,-14.78 17.68,10.95 2.09,15.95 16.69,4.24 5.32,6.85 3.08,6.82 3.52,12.37l7.7 -3.47c-0.06,-0.53 -0.65,-1.14 -0.77,-1.39l-4.54 -13.29 19.63 -9.27 -9.1 -9.04c11.83,2.28 17.52,-2.77 30.89,-6.42 17.54,-4.78 12.43,4.04 25.46,-10.92 9.9,-11.37 2.65,-4.23 9.07,-4.34 0.07,0 6.38,12.29 8.32,-6 0.72,-6.79 -6.78,-3.97 1.44,-8.8 6.35,-3.73 -0.98,-0.09 10.54,-1.24l-1.14 -15.68c0.19,-0.04 0.52,0.13 0.58,0.16l8.93 4.37c1.14,-12.02 5.38,-12.06 -4.79,-16.39 20.18,-13.23 3.26,-10.68 22.19,-8.52 0.65,-7.36 4.39,-5.03 -4.2,-14.37 15.67,2.26 10.83,-12.5 28.12,-15.48l-1.36 -10.74 -13.5 3.84c-0.61,0.3 -1.4,0.73 -1.92,1.04 -0.47,0.29 -1.23,0.81 -1.61,1.11 -7.41,5.9 -0.36,1.18 -4.51,8.6l-17.53 18.07c-1.99,1.75 -37.44,15.51 -26.48,33.76 -19.12,2.53 -12.9,7.72 -24.8,15.34 -10.96,7.03 -14.35,1.25 -26.75,9.06l-7.8 5.26c-8.73,6.9 3.89,-2.36 -3.23,2.94 -13.17,9.8 -10.25,-1.29 -16.02,-1.8 -3.11,3.18 -13.17,17.04 -13.36,17.32l-13.96 -10.86c-8.37,13.42 0.41,4.64 -13.33,8.54l-19.7 3.96c-3.37,-12.68 5.31,-7.75 -11.54,-5.9 -0.65,17.71 8.1,13.02 1.41,21.97 -9.13,-6.43 1.04,-4.03 -14.2,-10.22 -10.42,10.12 -2.92,6.26 -10.56,16.4 -53.61,4.53 -22.93,3.01 -44.1,8.33 -1.33,-6.48 -0.93,0.93 3.78,-9.98 -17.27,-2.62 -2.67,-1.79 -14.88,-4.94l-15.79 29.81 -12.44 -6.71c-3.87,8.04 -1.78,12.34 5.88,18.72 -4.49,3.51 -8.32,7.36 -12.6,11.43l-11.93 6.48c8.49,14.11 8.87,11.85 -1.13,17.33 -0.81,-5.16 1.36,-4.57 -2.3,-12.83 -4.88,10.22 -0.96,3.46 -9.31,12.08 9.79,7.25 4.99,-3.36 7.31,10.93l-24.17 10.35z"/>
  <path class="fil6" d="M2948.1 4729.96l440.5 0 0 -422.35 -8.65 -2.54c12.69,-14.24 7.93,-10.6 -8.18,-15.41l-13.99 -5.38 -1.36 12.01c0.02,0.94 -4.07,0.37 5.03,11.64l20.18 18.94c-8.79,7.01 -3.43,3.35 -8.44,11.99 -10.42,17.99 -17.72,7.08 -34.88,25.81l11.24 3.85 -18.59 7.21 3.27 -18.19c-13.01,0.39 -9.76,2.04 -13.5,20.02 -2.42,11.7 3.72,8.65 -1.25,22.66l17.59 2.25c-8.24,16.96 -4.67,5.45 -12,3.83 -0.51,-0.11 -1.42,-0.54 -1.91,-0.65l-13.98 -3.41c-0.22,-0.17 -0.99,-0.66 -1.2,-0.84 -2.67,-2.43 -6.56,0.33 -2.17,-7.86 8.2,-15.29 -0.37,2.76 12.29,-6.02 -1.63,-0.94 -7.61,-3.09 -7.7,-3.16 -9.05,-6.39 -0.96,-11.97 -16.58,-15.87 3.74,13.32 6.51,6.37 6.01,21.14 -13.57,-1.74 -1.47,-0.3 -8.15,-2.8l-21.32 -8.69c-4.5,5.85 -3.7,5.55 -3.79,14.45 -0.18,17.94 -2.34,-3.14 -8.11,12.82l9.67 9.21c2.72,-10.82 -0.96,-15.55 14.1,-19.16 9.34,-2.25 12.81,2.06 17.02,11.7l-23.75 10.38 31.05 3.45c-7.11,5.33 -8.4,4.41 -19.05,5.56l17.54 5.49c-7.82,11.18 -2.78,3.4 -14.18,1.29 -17.78,-3.29 -0.4,1.68 -21.41,1.77 0.66,0.54 1.57,1.15 2.08,1.48l6.35 4.03c9.41,4.88 17.41,6.15 26.82,3.58 0.35,7.29 1.18,5.15 -12.2,7.96 2.72,8.98 12.2,8.15 -0.88,20.02 -1.31,-7.53 4.96,-1.36 -3.38,-14.63l-17.84 -2.95c-3.3,7.8 -0.09,1.58 -0.69,6.28 -0.73,5.73 0.45,0.39 -0.59,3.97 -2.55,8.76 -2.37,-8.69 -2.83,6.27l12.77 1.72 -14.47 7.5c12.31,7.7 13.92,4.97 23.99,10.14 -0.49,0.56 -0.98,5.36 -8.96,5.63 -10.72,0.36 -0.9,1.1 -9.43,-4.66 -8.51,-5.75 -11.39,-6.79 -20.87,-10.48 3.05,-17.43 1.17,0.15 5.9,-11.3 2.53,-6.11 2.34,3.55 1.18,-10.56 -23.58,5.61 -6.18,18.01 -29.84,8.79 3.96,6.54 14.49,9.52 -5.51,16.74 -15.14,5.46 -16.35,0.76 -23.49,-9.29 4.28,-12.61 3.97,-6.12 12.31,-14.8 -8.21,2.58 -20.39,4.62 -22.94,-5.49 -0.26,-1.03 -0.92,-1.32 -1.6,-1.68 -7.95,11.52 -2.34,18.25 5.3,31.94 12.93,0.18 12.67,-6.77 23.68,10.82 -7.73,4.09 -0.24,0.72 -7.65,0.92 -7.83,0.22 3.51,-3.9 -6.22,-0.29 10.9,6.92 10.33,3.02 13.41,15.84 -8.72,-2.71 -8.3,-4.8 -16.12,-10.11 0.97,15.47 3.12,9.34 17.03,13.41 -1.27,4.64 -0.41,1.29 -1.93,6.53l-1.4 7.02 11.82 2.32c-0.02,0.23 -0.05,1 -0.05,1.23 0,0.22 0.08,0.97 0.08,1.19l0.31 4.42c-1.18,9.73 -5.05,11.46 -13.45,15.39 5.51,3.26 4.63,1.96 10.36,2.63 4.07,0.47 -0.2,-1.32 5.38,-0.51 -11.91,11.66 -18.15,13.18 -24.36,25.77 -3.67,7.45 2.53,0.88 -4.52,12.32 9.43,6.57 5.95,3.03 6.67,10.61 0.58,6.15 2.25,-2.03 0.73,6.03 -20.89,-4.73 -8.12,-5.15 -18.9,-14.42 -9.66,-8.3 -4.2,1.23 -17.71,-8.91 14.26,-11.84 13.26,6.17 21.55,-7.61 5.31,-8.83 -1.57,-5.75 -1.95,-6.35l-2.18 -3.07c-0.31,-0.45 -1.03,-1.52 -1.3,-1.92l-2.92 -4.5c-6.06,15.55 -6.13,6.41 -17.13,13.71 0.1,14.87 -3.36,6.31 4.26,16.23 -8.5,3.15 -0.02,0.67 -12.4,-2.51 3.57,11.86 5.01,3.95 2.59,11.15 -8.18,-4.17 -15.44,-2.23 -24.52,0.24 -3.23,-7.44 0.75,-7.82 -11.89,-2.77 3.32,3.74 4.88,5.3 7.53,10.96 10.55,-3.06 5.28,-7 18.35,0.69 -9.45,3.27 -14.65,12.49 -29.56,15.36 -22.53,4.33 -14.24,-3.15 -24.88,-6.82 -5.95,9.2 -5.64,13.83 -6.32,15.93 -2.47,7.68 -3.22,5.9 -13.88,11.07l12.34 3.83c-8.56,6.99 -1,0.2 -4.71,6.81l-7.32 -7.15c-21.99,6.25 15.41,-10.44 -5.64,4.57 -7.05,5.03 5.33,1.36 -4.43,2.76 -1.96,0.27 -5.39,1.41 -6.66,-2.86 -0.29,-0.97 -1.21,-1.16 -2.66,-1.36l4.33 22.07c5.28,-0.5 9.56,-1.19 14.98,0.03 2.93,0.66 3.52,1.02 6.21,2.04 5.26,1.99 5.27,2.45 5.78,2.72 -5.36,-0.43 -13.04,-1.29 -17.7,-0.48 -9.33,1.61 2.88,3.19 -4.72,2.14 -12.54,-2.79 -27.06,-1.95 -39.43,1.18 9.65,8.08 23.92,3.66 35.63,7.18 -14.65,8.78 -12.67,-3.99 -31.81,8.94 -7.13,-13.42 5.53,0.03 -2.2,-10.6 -7.41,-10.19 -4.33,-3.81 -9.9,-4.86 -2.68,5.84 1.62,11.1 1.75,10.1l-25.13 -3.83c3.88,14.04 11.48,6.28 29.14,10.36 -5.25,2.31 -8.55,1.02 -8.89,4.6l2.23 3.76c9.26,8.72 8.24,0.48 17.83,12.71 -30.18,-9.48 -22.87,-9.76 -54.13,-1.67 -4.11,-14.14 1.16,-11.23 -12.44,-15.73 -2.67,10.27 -3.37,5.65 4.26,15.49 -2.82,0.39 -5.7,2.01 -6.32,2.14 -6.16,1.35 -4.99,-3.72 -13.7,-1.45l-1.73 9.21z"/>
  <path class="fil7" d="M1965.95 3475.21c17.54,-1.33 22.97,1.98 37.6,4.28 13.22,2.07 26.92,0.13 39.53,1.8 -1.26,1.64 2.51,5.72 -15.36,5.53 -15.14,-0.16 -2.69,-3.59 -12.54,-0.86 -14.36,3.99 3.73,1.17 -11.99,5.23l-22.97 4.73c-0.03,0 -10.57,-7.93 -20.01,4.14 -4.73,6.05 2.44,-4.57 -3.4,10.3 -24.82,-1.39 -40.62,0.79 -63.84,11.47 0.1,0.4 -5.08,18.66 10.58,8.75l-16.68 0.5c-0.57,0.23 -1.33,0.76 -1.88,1.02 -20.88,9.74 -26.44,3 -41.68,-0.69 -8.51,-2.05 -15.81,-1.39 -25.88,-3.47 -24.18,-4.98 -26.86,-1.37 -47.66,-1.74l-41.24 -5.73 12.26 11.62c0.52,0.43 1.46,1.22 1.89,1.57 0.43,0.36 1.36,0.97 1.92,1.58l-13.82 3.01 5.95 0.83c25.47,0.82 33.94,-6.92 43.72,-4.79 -11.59,2.01 -2.39,13.51 1.44,15.4 2.31,1.14 19.67,-1.78 23.31,-2.26l-0.47 -4.03c8.88,6.39 -1.09,6.74 14.88,2.86 28.83,-6.98 13.7,2.11 14.39,6.32 12.24,0.44 24.54,3.39 35.56,5.17 16.62,2.7 3.43,2.26 10.44,-1.16 10.13,-4.94 1.88,-5.13 16.54,-3.98 -14.08,-8.24 -4.43,-6.67 -3.18,-10.91l19.05 1.96c-2.45,-8.66 7.38,-6.15 14.14,-7.62 -15.08,-6.89 -5.78,6.62 -12.52,-9.77 7.92,-7.15 5.42,-7.38 14.19,-3.37 0.6,0.28 1.35,0.82 1.94,1.18 0.61,0.37 1.28,0.94 1.88,1.38l11.17 11.01c-9.44,11.63 -4.12,2.73 -20.18,9.74 14.2,-0.67 16.58,7.6 22.93,21.03 8.18,-6.68 10.98,-8.96 36.27,-4.23 20.43,3.82 8.94,23.61 40.88,-7.49 -8.57,-0.13 -11.31,-0.77 -17.8,-7.26 6.97,-5.35 -9.68,-4.08 10.51,-4.11 16.98,-0.02 11.27,19.22 13.35,20.76 10.48,7.76 0.35,-0.42 11.01,-1.1l33.33 7.95 1.88 -8.77 39.57 11.89c0.55,0.27 1.32,0.79 1.81,1.05 7.21,3.76 -4.43,2.71 6.76,2.99 9.17,0.22 8.74,-3.42 18.33,-2.54l35.16 0.96c5.23,-9.04 -3.85,-4.39 17.58,-4.39 6.22,-10.27 -1.24,-15.45 15.17,-11.7 22.14,5.07 16.53,5.4 31.64,-6.52l-4.52 -4.06c-10.22,-7.42 -5.85,-6.37 -9.07,-2.89l16.08 3.2c3.96,-5.96 11.79,-5.18 2.4,-11.35 11.59,2.41 10.82,0.36 23.15,-3.49l-0.71 -3.91c0.49,0.18 1.35,0.5 1.85,0.65 25.49,7.58 35.25,0.71 47.5,-1.48 9.82,-1.75 9.04,1.13 22.68,0.96 4.32,-6.75 4.05,5.87 3.69,-8.53 -0.31,-12.5 -1.72,-3.81 -2.83,-4.58 12.47,1.75 2.1,-2.16 9.75,8.71 6.95,-0.05 10.75,-0.49 15.74,-2.77 12.26,-5.61 9.77,-8.86 10.27,-11.78 -12.75,-1.33 -15.89,1.98 -25.3,-7.86 62.74,4.57 12.11,6.89 79.46,1.95 4.18,7.66 -0.14,4.75 12.65,1.84 7.4,10.21 1.44,4.56 7.78,13.52l5.61 -9.61c10.24,-0.71 7.84,1.98 13.81,-3.64 2.81,-13.14 0.83,-9.1 -4.43,-7.98 20.05,2.21 7.15,-4.47 18.84,-8.82 0.04,-0.01 7.42,-0.63 10.58,-1.64 -12.42,-14.02 -35.05,-7.59 -59.25,-9.59 -19.71,-1.63 -40.06,-6.65 -59.9,-9.31l-46.66 -3.22c-24.91,0.84 -28.28,-7.75 -53.74,-2.9l0.47 -2.55c0.34,-9.3 -5.61,-2.9 2.7,-7.74l-55.33 -6.21c-22.18,-9.25 -64.76,-4.75 -106.12,-11.27l45.05 -6.57c14.53,-0.79 3.46,-0.06 15.37,4.18 4.02,1.43 16.94,3.89 23.71,4.89l91.42 8.68c-19.89,-11.83 -34.67,-1.38 -65.94,-12.34 -13.37,-4.69 -6.16,-6.43 -16.58,-4.24 -10.03,2.1 -2.05,2.35 -15.41,1.76 5.43,-11.67 7.92,-8.01 11.76,-21.57 -3.15,0.78 -10.94,2.36 -13.9,3.34 -7.91,2.61 -8.01,3.89 -10.88,3.84 -3.66,-0.08 -18.76,-8.58 -22.12,-10.3 -2.44,5.95 -3.68,11.25 4.27,11.28 -17.46,-3.76 -32.18,-19.58 -54.07,-21.26 -8.42,-0.65 -15.66,-2.11 -23.69,-2.77 -9.37,-0.78 -15.87,-1.24 -25.21,-2.51 -35.52,-4.81 -14.49,-8.51 -39.68,-1.23 -11.46,3.32 -11.36,1.23 -20.59,-6.17l10.15 -2.56c18.47,-1.26 59.88,-13.7 72.11,-10.78 -28.48,-4.85 -140.95,0.8 -177.78,-19.34l34.66 -3.06c-8.95,-10.56 -26.3,-7.71 -41.69,-5.07 5.79,21.33 3.75,66.57 14.42,84.85 13.68,23.43 46.67,-2.95 52.01,43.78z"/>
  <path class="fil3" d="M2712.08 2568.71c-3.53,4.81 -42.63,27.05 -50.34,31.27 -13.78,7.56 -34.46,22.26 -45.88,33.28 -7.34,19.81 -27.32,26.08 -17.26,53.5 5.7,15.54 -9.79,19.66 29.58,36.31 25.14,10.63 32.09,9.86 53.51,25.53 4.19,3.07 36.63,13.2 46.41,32.75 -22.67,5.58 -13,0.9 -29.98,-8.34 19.41,34.58 29.56,1.52 49.07,20.71 4.46,4.37 -1.06,-0.86 5.96,4.67 22.4,17.66 22.86,37.69 27.48,54.78 15.46,5.15 7.44,37.96 6.04,51.44 -2.2,21.06 12.06,26.16 2.43,49.98 -5.85,14.46 -18.21,20.59 -26.14,31.28 -10.59,14.3 -9.26,30.54 -12.64,45.61l31.03 -5.48c3.65,-22.55 35.39,-91.38 46.66,-114.53 2.68,-9.57 2.81,-16.5 9.19,-23.1l19.8 -53.67 38.33 16.21 -7.62 -31.78 -10.58 -24.61c-3.93,16.02 -5.85,7.9 -10.5,8.63l-8.03 -19.8c-2.32,-0.77 -26.68,-13.08 -31.81,-15.66 -17.67,-8.9 -7.83,-15.06 -33.93,-15 6.73,-15.85 2.36,-2.87 8.87,-13.09 4.09,-6.43 4.17,-1.92 1.88,-7.87 -6.13,9.39 -10.67,8.27 -22.79,3.68 -16.18,-6.14 -17.05,-14.29 -17.89,-15.91 38.41,-0.93 23.49,-5.61 54.27,-16.18l-23.76 2.64c-7.93,-27.28 -37.11,-24.12 -32.59,-35.67 -3.46,-11.1 10.87,-14.1 20.77,-19.89l-4.88 -19.93c25.49,5.28 53.46,24.77 53.77,53.1l18.89 1.54c12.45,0.02 25.88,0.31 35.53,8.17 8.12,-13.56 8.65,-4.54 9.15,-18.18 -10.41,-9.76 -6.7,-7.41 -16.76,-0.4l1.42 -23.13c-13.69,2.56 -1.55,5.98 -20.22,4.48 2.92,-8.4 7.3,-8.66 0.72,-15.21 -8.49,-8.44 -9.07,-5.67 -18.03,-2.82 10.53,-9.55 9.39,-1.09 20.52,-8.38 -18.76,-19.99 -19.39,-12.31 -17.48,-17.68 3.9,-10.95 0.74,10.77 3.79,-5.47 -23.24,-10.5 -17.02,-4.73 -34.65,1.21 12.4,-11.96 4.4,-12.47 13.28,-18.79 13.93,-9.94 5.16,-7.05 14.83,-18.45 -1.75,-6.78 -1.36,-1.33 -8.88,-11.56l18.45 -6.28c3.43,-19.81 2.3,-12.64 -4.82,-25.41 -13.78,0.27 -11.6,5.61 -21.07,-0.94 -20.19,3.6 -41.68,10.9 -60.41,18.99 -9.99,4.31 -46.7,22.18 -52.69,23.45z"/>
  <path class="fil8" d="M982.17 3145.08c-7.32,11.19 -2.17,4.66 -6.39,13.18 -9.14,18.43 -9.23,3.14 -18.24,23.63 -6.21,14.11 -9.11,33.1 0.29,45.48l-8.37 3.72c1.58,10.08 3.23,12.92 -1.01,22.93 -4.46,10.54 -5.95,6.39 -11.9,10.94 4.04,9.43 5.02,7.44 3.84,17.02 0.77,-2.08 -0.94,-28.58 -17.63,-38.75 -10.09,-6.15 -4.25,-3.73 -15.31,-6.38 0.84,16.75 -0.31,11.98 14.38,20.34 -9.97,-10.23 -11.44,1.49 -12.9,2.33l15.08 16.57c5.36,6.71 0.83,-1.99 4.1,6.68 3.89,10.26 -22.35,29.64 -23.32,30.22 13.84,-1.65 26.43,2.3 39.6,-0.02 27.08,-4.77 75.51,-19.11 101.31,-7.47 -13.62,6.41 -176.35,18.14 -199.66,23.44l-7.69 23.21c-17.2,-7.29 0.23,0.53 -10.24,-7.78 -15.23,-12.08 -9.45,0.75 -27.38,7.55 -13.3,5.04 -32.25,1.07 -45.09,11.17 20.21,16.02 50.03,7.68 68.16,25.64 -15.68,-2.13 -32,-6.44 -46.84,-10.86 -31.37,-9.35 -32.56,-4.88 -35.06,-15.69 -6.87,4.36 -22.81,9.67 -30.66,12.35 -16.22,5.52 -17.52,-1.04 -30.32,2.71 -13.45,3.94 -13.23,12.42 -13.4,12.7l-14.43 13.95c-7.81,6.99 3.56,7.71 -10.38,4.42 9.33,1.24 22.68,-0.65 30.42,6.31 62.53,8.08 80.12,25.03 148.18,10.01 26.96,-5.95 54.4,-9.21 82.25,-8.75 22.93,0.37 15.96,-1.96 33.38,-8.06 6.88,-2.41 26.52,-4.8 36.76,-7.24 -2.12,-15.06 -3.73,-9.76 -18.07,-13.15 -11.55,-2.74 -12.98,-5.95 -26.43,-7.03l-6.9 3.25c8.94,-18.15 -16.96,-13.95 -26.09,-13.66 -16.03,-35.6 -32.87,-7.49 -48.57,-32.98 13.89,-0.92 12.69,-0.88 24.36,5.56 5.75,-16.61 47.49,-16.9 68.3,-17.45 19.27,-0.51 4.29,-5.08 23.82,-4.81 10.03,0.14 6.59,1.74 11.33,2.27 10.83,1.22 -1.19,-1.55 18.01,-3.51 22.78,-2.32 13.47,-4.48 37.33,0.32 13.66,2.75 9.3,3.59 16.82,-6.63 10.22,-0.09 4.31,-2.87 8.85,7.47 10.16,-11.79 43.94,-117.24 58.26,-143.65 -7.79,-0.5 -25.95,-6.46 -26.1,-6.47 -3.17,-0.12 1.34,2.03 -9.35,2.13 -16.95,0.16 -9.01,7.41 -12.53,-4.41 -6.82,5.08 -4.73,4.36 -10.65,11.71 -6.65,8.26 -3.97,2.68 -7.12,10.63l18.5 9.13c-9.12,6.23 -12.53,-0.53 -19.83,-8.01 -9.57,-9.81 -7.51,-6.9 -19.89,-6.14 7.57,10.81 3.43,7.09 8.34,18.39 -8.27,4.82 -6.42,7.64 -7.97,9.74 -6.16,-12.43 -26.13,-20.65 -36.59,-11.04 9.01,0.66 16.3,-23.42 17.72,-31.78 2.24,-13.26 -1.76,-29.75 -14.96,-37.7 -10.09,3.84 -10.79,0.73 -12.12,12.32z"/>
  <path class="fil9" d="M2471.4 3509.61c35.97,6.27 55.29,-8.19 66.8,-8.67 10.45,-0.44 20,2.09 32.78,1.18 10.14,-0.71 14.84,-0.87 27.75,5.01 15.64,-1.59 -9.58,-0.27 7.04,-3.54 19.82,-3.89 -9.06,4.45 35.99,15.53 24.57,6.05 14.2,-1.68 29.19,10.19 9.25,7.32 20.5,10.05 32.97,9.76 3.54,7.2 -2.65,8.65 11.15,16.37 13.12,-4.04 5.15,-6.45 22.27,-2.8 13.86,2.95 14.16,3.89 28.3,2.95l-39.99 -18.38c-14.66,-5.93 -31.02,-6.51 -47.22,-9.9l1.43 -8.8 -3.79 -3.8c12.7,-6.2 50.63,-18.53 67.1,-24.28 13.93,-4.86 55.01,-25.26 64.3,-18.34 -25.9,-1.66 -50.15,-5.13 -76.06,-8.27 -12.26,-1.47 -27.72,-0.98 -39.13,-4.24 -10.1,-2.88 -4.79,-3.68 -14.13,-5.68 -4.1,-0.88 -14.48,-1.76 -18.8,-2.29l-147.43 -19.42c-27.4,-3.25 -56.21,2.55 -83.05,-1.84 -14.52,-2.38 -20.38,-5.87 -34.26,-8.05l-111.86 -11.41c-22.59,0.85 -46.73,0.52 -50.13,-26.76 -0.2,-1.6 -0.57,-2 -1,-2.89l-30.46 3.26c-14.73,9.96 -30.39,4.06 -48.58,5 -20.46,1.07 -22.44,-4.69 -42.42,-3 -14.54,1.24 -89.35,1.49 -97.94,-1.67l-10.15 2.56c9.23,7.4 9.13,9.49 20.59,6.17 25.19,-7.28 4.16,-3.58 39.68,1.23 9.34,1.27 15.84,1.73 25.21,2.51 8.03,0.66 15.27,2.12 23.69,2.77 21.89,1.68 36.61,17.5 54.07,21.26 -7.95,-0.03 -6.71,-5.33 -4.27,-11.28 3.36,1.72 18.46,10.22 22.12,10.3 2.87,0.05 2.97,-1.23 10.88,-3.84 2.96,-0.98 10.75,-2.56 13.9,-3.34 -3.84,13.56 -6.33,9.9 -11.76,21.57 13.36,0.59 5.38,0.34 15.41,-1.76 10.42,-2.19 3.21,-0.45 16.58,4.24 31.27,10.96 46.05,0.51 65.94,12.34l-91.42 -8.68c-6.77,-1 -19.69,-3.46 -23.71,-4.89 -11.91,-4.24 -0.84,-4.97 -15.37,-4.18l-45.05 6.57c41.36,6.52 83.94,2.02 106.12,11.27l55.33 6.21c-8.31,4.84 -2.36,-1.56 -2.7,7.74l-0.47 2.55c25.46,-4.85 28.83,3.74 53.74,2.9l46.66 3.22c19.84,2.66 40.19,7.68 59.9,9.31 24.2,2 46.83,-4.43 59.25,9.59 -3.16,1.01 -10.54,1.63 -10.58,1.64 -11.69,4.35 1.21,11.03 -18.84,8.82 5.26,-1.12 7.24,-5.16 4.43,7.98z"/>
  <path class="fil10" d="M194.17 336.13c5.94,0.75 9.79,0.65 13.55,0.85 9.71,0.51 8.24,1.27 19.77,4.29 -11.49,-20.87 -5.26,-0.19 -17.39,-16.35 12.84,4 8.03,7.84 23.05,4.97 -0.33,0.82 -0.28,0.69 -0.45,9.16 9.32,-1.32 4.67,4.07 11.72,-5.63 -2.34,17.24 -3.5,-4.22 -17.04,38.29l30.42 15.14c-9.76,-16.26 -15.4,-9.63 -21.78,-25.7 5.01,1.76 10.87,4.38 15.23,7.47 12.36,8.76 -1.45,4.48 14.26,10.36l0.69 -15.17c8.99,3.77 -3.78,1.91 9.33,7.62 -3.78,-15.41 18.73,-2.18 24.72,2.05 0.16,-0.51 -0.3,-1.96 -0.33,-1.6l3.36 -18.83c17.38,12.83 -5.06,7.66 14.13,13.89 -4.63,-11.04 -8.75,-15.93 -17.26,-25.1 22.29,-17.91 7.59,6.21 28.74,-1.98 6.46,-15.79 -4.22,-19.74 -18.2,-14.43 -4.66,-8.18 -7.72,-15.66 -15.4,-19.06 17.71,1.35 14.52,2.45 16.11,-2.79 4.27,-14.07 -8.16,10.03 1.32,-4.02 11.27,-2.06 1.51,1.06 7.62,0.41l6.06 -1.37c0.57,-0.31 1.4,-0.78 1.92,-1.19 7.36,-5.81 6.54,-11.57 3.57,-19.6 9.62,5.46 -2.29,0.74 10.63,12.36l16.8 -27.59 -12.64 -11.54c10.06,-0.03 5.6,0.23 15.22,-2.04 5.55,18.3 -1.37,10.23 4.95,19.5l13.54 -0.27c-5.41,-18.85 -10.54,-14.41 -7.28,-21.32 18.95,-2.97 -8.65,4.43 15.94,4.26 -0.79,-14.01 0.39,-8 -12.52,-17.9l30.05 10.27c8.72,-9.07 9.72,-12.85 18.5,-20.84l-4.99 -3.13c-0.51,-0.37 -1.6,-1.03 -2.17,-1.5 -0.51,-0.42 -1.36,-0.98 -1.87,-1.46 -4.96,-4.6 -3.21,-3.35 -5.43,-8.56l-216.45 0 0 128.08z"/>
  <path class="fil11" d="M929.2 3380.4l0.58 -6.63c23.94,4.32 81.49,-10.55 92.21,-11.19 16.76,-0.98 9.03,-1.17 15.08,3.87l19.39 -46.22c-4.54,-10.34 1.37,-7.56 -8.85,-7.47 -7.52,10.22 -3.16,9.38 -16.82,6.63 -23.86,-4.8 -14.55,-2.64 -37.33,-0.32 -19.2,1.96 -7.18,4.73 -18.01,3.51 -4.74,-0.53 -1.3,-2.13 -11.33,-2.27 -19.53,-0.27 -4.55,4.3 -23.82,4.81 -20.81,0.55 -62.55,0.84 -68.3,17.45 -11.67,-6.44 -10.47,-6.48 -24.36,-5.56 15.7,25.49 32.54,-2.62 48.57,32.98 9.13,-0.29 35.03,-4.49 26.09,13.66l6.9 -3.25z"/>
  <path class="fil12" d="M753.87 3464.79c35,-1.33 71.35,26.32 104.4,33.92 36.21,-9.26 101.25,-0.26 108.83,-23.77l-38.17 -7.38c-0.34,0 -1.18,0.15 -1.52,0.18 -11.95,0.95 -29.89,0.6 -42.38,-1.95 10.61,-6.5 8.31,-1.78 21.54,-2.96 -19.34,-18.39 -42.19,-12.41 -42.23,-12.41 -4.16,-0.28 1.63,0.88 -6.62,-2.29 -39.34,-15.11 -45.69,-1.82 -66.74,2.4 -2.26,-5.57 2.4,-2.16 0.68,-10.45l-9.76 2.19c-7.03,13.13 -19.89,5.29 -28.03,22.52z"/>
 </g>
</svg>
