<?xml version="1.0" encoding="UTF-8"?>
<!DOCTYPE svg PUBLIC "-//W3C//DTD SVG 1.1//EN" "http://www.w3.org/Graphics/SVG/1.1/DTD/svg11.dtd">
<!-- Creator: CorelDRAW (Versão de avaliação) -->
<svg xmlns="http://www.w3.org/2000/svg" xml:space="preserve" width="3510px" height="4963px" version="1.1" style="shape-rendering:geometricPrecision; text-rendering:geometricPrecision; image-rendering:optimizeQuality; fill-rule:evenodd; clip-rule:evenodd"
viewBox="0 0 3509.87 4962.48"
 xmlns:xlink="http://www.w3.org/1999/xlink"
 xmlns:xodm="http://www.corel.com/coreldraw/odm/2003">
 <defs>
  <style type="text/css">
   <![CDATA[
    .str0 {stroke:#2D2A2B;stroke-width:2.36;stroke-miterlimit:22.9256}
    .fil0 {fill:none}
    .fil1 {fill:#194528;fill-rule:nonzero}
   ]]>
  </style>
 </defs>
 <g id="Camada_x0020_1">
  <metadata id="CorelCorpID_0Corel-Layer"/>
  <rect class="fil0 str0" x="1.18" y="1.18" width="3507.51" height="4960.12"/>
  <path class="fil1" d="M1735.15 778.87l-0.9 -2.11 1.2 -11.74c6.92,-0.6 12.34,-1.2 16.26,-2.11 3.91,-0.9 6.62,-1.8 8.12,-3.31 1.51,-1.5 2.41,-3.61 2.41,-6.02 0,-2.11 -0.3,-4.21 -0.6,-6.62 -0.3,-2.41 -1.21,-5.12 -2.11,-7.83l-9.93 -32.81c-3.61,-0.3 -8.73,-0.3 -15.05,-0.3 -6.62,0 -12.04,0 -16.26,0 -5.72,0 -11.74,0.3 -18.06,0.9 -6.32,0.61 -11.44,1.21 -14.75,1.51l-11.13 31.3c-1.81,5.42 -2.71,9.34 -2.71,11.74 0,4.52 1.5,7.53 4.21,9.34 3.01,2.1 7.53,3.01 13.85,3.01l17.15 0 0.61 1.2 -1.81 12.94c0,0 -2.11,-0.3 -6.32,-0.6 -4.21,-0.3 -9.63,-0.9 -15.95,-1.2 -6.32,-0.3 -12.95,-0.3 -19.57,-0.3 -4.82,0 -9.93,0 -15.05,0 -5.12,0.3 -9.33,0.3 -12.94,0.6 -3.31,0.3 -5.12,0.3 -5.12,0.3l2.41 -14.15c5.72,-0.6 10.23,-2.41 13.54,-5.72 3.31,-3.31 6.63,-9.03 9.94,-17.46l58.69 -153.81 18.97 -5.12 2.41 0c0,0 0.6,2.41 2.1,7.22 1.21,4.52 3.01,11.14 5.42,19.27 2.11,8.43 4.82,18.06 7.83,28.59 3.31,10.84 6.62,22.28 9.93,34.32 3.61,12.04 7.22,24.38 11.14,36.72 3.91,12.34 7.52,24.08 11.44,35.22 2.4,7.53 5.72,12.64 9.93,15.65 3.91,3.01 10.23,4.82 18.96,5.72l0.61 1.21 -2.11 12.34c0,0 -2.11,0 -6.02,-0.3 -3.92,-0.3 -8.13,-0.3 -13.25,-0.6 -5.11,0 -9.33,0 -12.64,0 -7.52,0 -15.05,0.3 -21.97,0.6 -6.93,0.6 -12.34,1.2 -16.56,1.5 -4.21,0.61 -6.32,0.91 -6.32,0.91zm-44.25 -85.19l26.49 0c3.91,0 8.73,-0.3 14.45,-0.6 5.72,-0.3 10.23,-0.6 13.54,-0.9l-23.78 -78.87 -2.1 0 -28.6 80.37z"/>
  <path id="_1" class="fil1" d="M1056.07 1189.15l1.8 -13.85c9.33,-1.81 15.65,-4.52 18.66,-7.83 3.32,-3.61 4.82,-9.63 4.82,-18.06l0.3 -126.42c0,-6.32 -0.6,-10.84 -2.1,-12.95 -1.51,-2.1 -4.52,-3.31 -9.03,-3.31 -1.81,0 -3.92,0 -6.63,0.3 -2.41,0.3 -3.61,0.3 -3.61,0.3l-0.6 -1.2 2.11 -13.24c0,0 1.2,0 3.91,0.3 2.71,0 6.02,0 10.23,0.3 4.22,0 8.73,0 13.55,0.3 5.12,0 9.63,0 14.15,0 13.84,0 25.88,0 36.12,-0.3 10.23,-0.3 19.26,-0.6 27.39,-1.21 7.83,-0.6 14.75,-1.2 21.07,-2.1l0.9 1.8c0,0 -0.6,2.41 -1.5,6.93 -0.91,4.51 -1.81,10.83 -3.01,18.66 -0.9,7.52 -1.81,15.95 -2.41,25.28l-14.45 1.21c0,0 0,-1.81 0.3,-5.42 0.3,-3.61 0.3,-6.32 0.3,-8.43 0,-6.62 -0.9,-11.44 -2.4,-14.45 -1.51,-3.01 -5.42,-4.81 -11.14,-5.72 -5.72,-0.9 -14.45,-1.2 -26.79,-1.2 -6.32,0 -11.14,0.3 -14.15,0.6 -3.01,0.3 -4.82,1.51 -5.72,3.01 -0.6,1.51 -0.9,4.22 -1.2,8.13l-2.41 63.51 31 0.3c3.31,0 7.23,-0.3 12.04,-0.9 5.12,-0.6 9.64,-1.2 13.55,-1.5 3.91,-0.61 6.02,-0.91 6.02,-0.91l1.2 1.51 -4.21 18.06c0,0 -2.11,0 -6.32,-0.3 -4.22,-0.3 -9.33,-0.3 -15.05,-0.3 -5.72,-0.31 -10.84,-0.31 -15.65,-0.31 -4.52,0 -8.73,0.31 -12.95,0.91 -4.21,0.3 -7.52,0.9 -10.23,1.2l-1.21 49.97c0,8.13 0.91,13.55 2.71,16.26 1.81,2.7 5.42,4.21 10.54,4.21 2.1,0 4.81,0 8.13,-0.3 3.31,-0.3 6.32,-0.3 9.03,-0.3 2.7,-0.3 4.21,-0.3 4.21,-0.3l0.6 1.2 -2.71 14.15c0,0 -1.5,0 -4.81,-0.3 -3.01,0 -6.93,0 -11.74,-0.3 -4.52,-0.31 -9.64,-0.31 -14.75,-0.61 -5.12,0 -9.64,0 -13.55,0 -5.12,0 -10.23,0.3 -15.65,0.91 -5.12,0.6 -9.63,1.2 -13.25,1.8 -3.61,0.6 -5.41,0.91 -5.41,0.91z"/>
  <path id="_2" class="fil1" d="M1213.19 1188.54l1.81 -13.84c7.83,-1.21 13.24,-3.61 15.95,-6.93 3.01,-3.61 4.52,-9.63 4.52,-18.36l0.3 -126.42c0,-6.32 -0.6,-10.84 -2.11,-12.95 -1.5,-2.1 -4.51,-3.31 -9.03,-3.31 -1.8,0 -3.91,0 -6.62,0.3 -2.41,0.3 -3.61,0.3 -3.61,0.3l-0.6 -1.2 2.1 -13.24c0,0 2.11,0 6.02,0.3 3.92,0.3 8.73,0.3 13.85,0.6 5.42,0 9.93,0 13.85,0 3.31,0 6.62,0 10.23,-0.3 3.91,-0.3 7.23,-0.6 10.54,-0.91 3.31,-0.3 6.02,-0.9 8.12,-1.2 2.11,-0.3 3.31,-0.3 3.31,-0.3l-1.2 13.54c-6.62,0.91 -11.14,2.11 -13.85,3.92 -2.7,1.8 -4.21,4.51 -4.51,8.13 -0.3,3.91 -0.9,9.03 -1.51,15.95 -0.9,12.34 -1.5,25.89 -2.1,40.34 -0.6,14.74 -0.91,28.59 -1.21,42.14 -0.3,13.24 -0.3,24.38 -0.3,33.71 0,6.92 0.6,12.04 1.51,15.35 1.2,3.31 3.61,5.42 7.22,6.32 3.91,0.91 9.33,1.51 16.86,1.51 8.73,0 15.95,-0.6 21.37,-1.51 5.42,-0.9 9.63,-3.01 12.94,-6.02 3.31,-3.01 6.02,-7.22 8.13,-12.94 2.11,-5.72 3.91,-12.94 5.42,-22.28l13.24 -1.5 0.91 1.5c0,0 -0.61,2.71 -1.51,8.13 -0.9,5.42 -2.11,12.34 -3.31,21.07 -1.51,8.73 -2.71,18.06 -3.91,28l-1.51 1.8c0,0 -2.71,0 -8.43,-0.3 -5.72,-0.3 -12.64,-0.9 -21.37,-1.2 -8.73,-0.3 -17.46,-0.6 -26.79,-0.91 -9.03,-0.3 -17.16,-0.3 -24.38,-0.3 -7.53,0 -14.15,0.3 -20.17,0.61 -6.32,0.6 -11.13,1.2 -14.75,1.5 -3.61,0.6 -5.42,0.9 -5.42,0.9z"/>
  <path id="_3" class="fil1" d="M1440.76 1189.15c-16.56,0 -31,-3.92 -43.35,-11.74 -12.64,-7.83 -22.57,-18.67 -29.5,-32.81 -6.92,-14.15 -10.53,-30.1 -10.53,-48.47 0,-14.75 2.41,-28.59 7.52,-41.54 5.12,-12.94 12.05,-24.08 21.08,-33.71 9.03,-9.63 19.56,-17.16 31.6,-22.58 12.04,-5.41 24.99,-8.12 38.83,-8.12 16.86,0 31.61,3.91 44.25,11.74 12.95,7.82 22.88,18.66 30.1,32.81 7.23,13.84 10.84,29.8 10.84,48.16 0,15.05 -2.71,28.9 -7.83,41.84 -5.11,12.94 -12.04,24.08 -21.37,33.71 -9.03,9.64 -19.56,17.16 -31.91,22.58 -12.34,5.42 -25.58,8.13 -39.73,8.13zm9.33 -15.36c12.94,0 24.08,-3.31 33.71,-9.93 9.64,-6.62 17.16,-15.65 22.58,-27.39 5.72,-11.74 8.43,-25.59 8.43,-40.94 0,-17.16 -3.01,-32.51 -8.73,-45.45 -5.72,-12.95 -13.85,-23.18 -24.08,-30.7 -10.24,-7.53 -22.28,-11.14 -35.82,-11.14 -12.34,0 -23.48,3.31 -32.81,9.93 -9.33,6.62 -16.86,15.95 -22.28,27.69 -5.11,11.74 -7.82,25.29 -7.82,40.64 0,17.16 2.71,32.21 8.42,45.45 5.72,12.95 13.55,23.18 23.48,30.71 10.24,7.52 21.98,11.13 34.92,11.13z"/>
  <path id="_4" class="fil1" d="M1707.76 1190.35c-5.12,0 -10.54,-2.71 -16.26,-7.83 -5.72,-5.11 -10.83,-12.04 -15.65,-20.77l-32.21 -58.39 -24.98 0 -0.91 44.85c0,7.22 0.31,12.64 1.21,16.25 0.9,3.31 3.01,5.72 6.02,6.93 3.31,0.9 8.13,1.5 14.45,1.5l0.6 1.2 -2.71 12.65c0,0 -0.9,0 -3.01,-0.3 -2.11,0 -4.52,0 -7.83,-0.3 -3.01,0 -6.32,0 -10.23,-0.31 -3.61,0 -7.23,0 -10.84,0 -5.11,-0.3 -10.23,-0.3 -15.65,0 -5.12,0.31 -9.63,0.31 -13.55,0.61 -3.61,0.3 -5.41,0.3 -5.41,0.3l2.71 -13.55c9.33,-0.9 15.65,-3.01 18.36,-6.02 3.01,-3.31 4.51,-9.03 4.51,-17.76l0.3 -126.42c0,-6.32 -0.9,-10.84 -2.4,-12.95 -1.51,-2.1 -4.22,-3.31 -8.73,-3.31 -1.81,0 -3.92,0 -6.63,0.3 -2.4,0.3 -3.61,0.3 -3.61,0.3l-0.6 -1.2 2.11 -13.24c0,0 1.2,0 3.31,0.3 2.41,0 5.42,0 9.03,0.3 3.61,0 7.22,0 11.14,0.3 3.91,0 7.22,0 9.93,0 2.71,0 6.02,0 9.93,0 4.22,-0.3 8.43,-0.3 12.34,-0.6 4.22,-0.3 7.83,-0.3 10.54,-0.3 2.71,-0.31 4.21,-0.31 4.21,-0.31 18.67,0 33.42,4.22 44.25,12.65 10.84,8.43 16.26,19.86 16.26,34.61 0,12.04 -3.92,23.18 -11.74,33.12 -7.53,9.93 -18.36,18.36 -32.51,24.68l33.11 52.37c5.72,9.34 11.44,15.96 16.86,19.87 5.72,3.91 12.34,5.72 20.47,5.72l1.2 1.2 -1.81 10.24 -25.58 3.31zm-57.5 -100.84c0,0 1.51,-0.6 4.82,-1.81 3.31,-1.5 7.22,-3.61 11.44,-6.92 4.21,-3.31 7.82,-7.82 11.14,-13.54 3.31,-5.72 5.11,-13.25 5.11,-21.98 0,-13.24 -4.51,-23.18 -13.84,-29.8 -9.03,-6.62 -22.88,-9.93 -41.24,-9.93 -2.11,0 -3.31,0.3 -4.22,1.2 -0.6,0.91 -0.9,3.01 -1.2,5.72 -0.9,15.96 -1.5,29.5 -2.11,40.94 -0.3,11.44 -0.6,22.58 -0.9,33.11l31 3.01z"/>
  <path id="_5" class="fil1" d="M1755.02 1188.54l1.8 -13.84c9.03,-1.21 15.05,-3.61 18.36,-6.93 3.32,-3.61 5.12,-9.63 5.12,-18.36l0.3 -126.42c0,-6.32 -0.6,-10.84 -2.1,-12.95 -1.51,-2.1 -4.52,-3.31 -9.03,-3.31 -1.21,0 -2.71,0 -4.82,0 -2.11,0.3 -3.91,0.3 -5.42,0.6l-0.6 -1.2 2.11 -13.24c3.31,0 7.52,0 12.34,0.3 4.81,0.3 9.93,0.3 15.05,0.6 5.11,0 9.93,0 14.45,0 15.95,0 29.5,0 40.33,-0.3 11.14,-0.3 20.47,-0.6 28.3,-1.21 7.82,-0.6 15.05,-1.2 21.67,-2.1l0.9 1.8c-0.9,4.82 -2.1,10.24 -3.01,16.26 -0.9,5.72 -1.8,11.74 -2.41,17.46 -0.6,5.72 -1.2,11.13 -1.5,16.25l-14.45 1.2c0.3,-1.8 0.3,-3.91 0.3,-6.62 0.3,-2.71 0.3,-4.81 0.3,-6.32 0,-4.82 -0.6,-8.73 -1.5,-11.44 -0.9,-3.01 -2.71,-5.11 -5.42,-6.62 -3.01,-1.5 -7.53,-2.41 -13.85,-2.71 -6.32,-0.3 -14.75,-0.6 -25.28,-0.6 -6.32,0 -11.14,0.3 -14.15,0.6 -3.01,0.3 -4.81,1.51 -5.72,3.01 -0.6,1.51 -0.9,4.22 -1.2,8.13l-3.01 70.13 -1.21 63.22c0,5.42 0.61,9.33 1.51,12.04 0.9,2.41 3.31,3.91 6.62,4.81 3.31,0.91 8.43,1.21 15.65,1.21 11.74,0 21.38,-0.3 28.6,-1.21 7.22,-0.9 12.64,-2.4 16.56,-4.81 3.91,-2.41 6.62,-6.02 8.42,-10.84 1.81,-5.12 3.32,-11.74 4.52,-19.87l13.24 -1.5 0.91 1.5c-1.51,6.33 -3.01,14.15 -4.52,23.78 -1.5,9.64 -2.71,18.67 -3.61,26.79l-1.51 1.81c-12.04,-0.3 -24.08,-0.9 -36.12,-1.2 -11.74,-0.3 -22.57,-0.3 -32.21,-0.61 -9.63,-0.3 -17.15,-0.3 -22.87,-0.3 -6.32,0 -13.25,0.3 -21.37,0.61 -7.83,0.6 -14.75,1.5 -20.47,2.4zm43.64 -91.5l2.71 -18.07c1.51,0 4.22,0 8.13,0 3.91,0 8.43,0 12.94,0 4.52,0.31 8.73,0.31 12.04,0.31 3.32,0 8.73,-0.31 15.96,-0.91 6.92,-0.9 13.84,-1.5 20.77,-2.4l1.2 1.5 -4.21 17.76c-5.72,-0.3 -12.65,-0.3 -20.77,-0.6 -8.43,-0.3 -15.66,-0.3 -21.37,-0.3 -3.92,0 -8.13,0.3 -13.25,0.6 -5.12,0.6 -9.93,1.2 -14.15,2.11z"/>
  <path id="_6" class="fil1" d="M1981.38 1189.15c-9.33,0 -17.76,-0.91 -24.99,-2.71 -6.92,-1.51 -12.34,-3.31 -16.25,-4.82 -3.91,-1.81 -6.02,-2.71 -6.02,-2.71l-1.51 -3.01c0,0 0.3,-1.2 0.61,-3.91 0.3,-2.71 0.9,-6.62 1.2,-11.44 0.3,-4.52 0.9,-10.23 1.2,-16.56 0.31,-6.32 0.61,-13.24 0.61,-20.47l13.54 -1.5c0,14.45 0.9,25.59 3.01,33.11 2.11,7.53 5.72,12.34 11.44,15.05 5.72,2.71 13.85,4.22 24.68,4.22 12.35,0 22.58,-3.01 30.1,-8.73 7.83,-6.02 11.74,-14.15 11.74,-24.39 0,-6.62 -2.1,-12.34 -6.62,-17.15 -4.51,-4.82 -10.23,-9.33 -17.16,-13.25 -6.92,-3.91 -14.14,-8.13 -21.97,-12.04 -8.13,-4.21 -15.95,-8.73 -23.48,-13.54 -7.52,-4.82 -13.54,-10.24 -18.36,-16.56 -4.82,-6.32 -7.22,-13.85 -7.22,-22.58 0,-10.53 3.01,-20.16 9.03,-28.59 6.32,-8.43 14.44,-15.05 24.98,-20.17 10.54,-4.82 22.27,-7.22 35.22,-7.22 9.03,0 16.86,0.6 23.78,1.8 6.92,1.21 12.34,2.41 16.25,3.92 3.92,1.2 6.02,1.8 6.02,1.8l0.91 1.81c0,0 -0.61,2.41 -1.51,6.92 -0.9,4.52 -1.81,10.84 -2.71,18.66 -0.9,7.53 -1.8,15.96 -2.41,25.29l-11.74 1.2 -1.8 -1.5c0,0 0,-1.51 0.3,-4.22 0.3,-3.01 0.6,-6.92 0.6,-11.43 0,-10.54 -2.41,-18.06 -7.52,-21.98 -5.12,-3.91 -14.75,-6.02 -28.3,-6.02 -11.14,0 -20.17,2.71 -27.39,8.43 -6.92,5.42 -10.54,12.34 -10.54,20.47 0,6.02 1.81,11.44 5.72,15.95 3.92,4.82 8.73,9.03 15.05,12.95 6.32,3.91 12.95,7.52 20.17,11.43 8.73,4.52 17.46,9.03 25.89,14.15 8.73,5.12 15.65,10.84 21.37,17.16 5.72,6.32 8.43,14.15 8.43,23.48 0,11.44 -3.01,21.67 -9.33,30.4 -6.32,8.73 -15.36,15.65 -26.49,20.77 -11.14,5.12 -23.78,7.53 -38.53,7.53z"/>
  <path id="_7" class="fil1" d="M2112.62 1186.74l2.41 -12.95c9.33,-0.9 16.25,-2.1 20.47,-3.91 4.21,-1.5 6.92,-4.82 7.82,-9.63 1.21,-5.12 1.81,-12.94 1.81,-23.48l0 -131.24c-11.74,0.3 -20.77,0.9 -27.69,1.5 -6.63,0.91 -11.44,2.41 -14.75,4.82 -3.31,2.11 -5.42,5.72 -6.93,10.84 -1.5,5.11 -2.71,12.04 -3.91,20.77l-14.15 1.2c0.91,-5.72 1.51,-11.74 2.11,-18.06 0.6,-6.32 1.2,-12.34 1.5,-18.06 0.3,-6.02 0.61,-11.44 0.91,-15.96l2.71 -2.4 24.98 3.31 93.31 0 25.59 -3.31 2.71 2.4c0.3,4.52 0.6,9.94 0.9,15.96 0.3,5.72 0.9,11.74 1.51,17.76 0.9,6.02 1.5,11.74 2.1,17.16l-14.14 1.2c-1.51,-9.03 -3.01,-15.95 -4.52,-21.07 -1.5,-5.12 -3.61,-9.03 -6.92,-11.14 -3.01,-2.41 -7.53,-3.91 -13.85,-4.81 -6.32,-0.91 -14.75,-1.51 -25.58,-2.11 -0.61,6.02 -1.21,14.75 -1.81,25.89 -0.6,11.13 -1.2,23.78 -1.51,37.92 -0.3,13.85 -0.9,28 -1.2,42.45 -0.3,14.44 -0.3,27.69 -0.3,40.03 0,7.53 1.2,12.64 3.91,15.95 2.71,3.01 6.93,4.52 13.25,4.52 6.02,0 11.43,-0.3 16.55,-0.9l0.91 1.2 -2.71 13.85c-4.22,-0.3 -9.03,-0.3 -14.75,-0.61 -5.72,0 -11.14,0 -16.56,-0.3 -5.12,0 -9.63,0 -12.94,0 -3.31,0 -7.23,0 -12.34,0 -4.82,0.3 -9.94,0.3 -15.05,0.61 -5.12,0.3 -9.64,0.3 -13.85,0.6z"/>
  <path id="_8" class="fil1" d="M2331.76 1188.54l-0.91 -2.1 1.21 -11.74c6.92,-0.61 12.34,-1.21 16.25,-2.11 3.91,-0.9 6.62,-1.81 8.13,-3.31 1.5,-1.51 2.41,-3.61 2.41,-6.02 0,-2.11 -0.3,-4.22 -0.61,-6.62 -0.3,-2.41 -1.2,-5.12 -2.1,-7.83l-9.94 -32.81c-3.61,-0.3 -8.72,-0.3 -15.05,-0.3 -6.62,0 -12.04,0 -16.25,0 -5.72,0 -11.74,0.3 -18.06,0.9 -6.32,0.6 -11.44,1.21 -14.75,1.51l-11.14 31.3c-1.81,5.42 -2.71,9.33 -2.71,11.74 0,4.52 1.51,7.53 4.22,9.33 3.01,2.11 7.52,3.01 13.84,3.01l17.16 0 0.6 1.21 -1.8 12.94c0,0 -2.11,-0.3 -6.32,-0.6 -4.22,-0.3 -9.64,-0.9 -15.96,-1.21 -6.32,-0.3 -12.94,-0.3 -19.56,-0.3 -4.82,0 -9.94,0 -15.05,0 -5.12,0.3 -9.34,0.3 -12.95,0.61 -3.31,0.3 -5.12,0.3 -5.12,0.3l2.41 -14.15c5.72,-0.6 10.24,-2.41 13.55,-5.72 3.31,-3.31 6.62,-9.03 9.93,-17.46l58.7 -153.82 18.96 -5.11 2.41 0c0,0 0.6,2.4 2.11,7.22 1.2,4.52 3.01,11.14 5.42,19.27 2.1,8.42 4.81,18.06 7.82,28.59 3.31,10.84 6.62,22.28 9.94,34.32 3.61,12.04 7.22,24.38 11.13,36.72 3.92,12.34 7.53,24.08 11.44,35.22 2.41,7.52 5.72,12.64 9.93,15.65 3.92,3.01 10.24,4.82 18.97,5.72l0.6 1.2 -2.11 12.35c0,0 -2.1,0 -6.02,-0.3 -3.91,-0.31 -8.12,-0.31 -13.24,-0.61 -5.12,0 -9.33,0 -12.64,0 -7.53,0 -15.05,0.3 -21.98,0.61 -6.92,0.6 -12.34,1.2 -16.55,1.5 -4.22,0.6 -6.32,0.9 -6.32,0.9zm-44.25 -85.18l26.49 0c3.91,0 8.73,-0.3 14.44,-0.61 5.72,-0.3 10.24,-0.6 13.55,-0.9l-23.78 -78.86 -2.11 0 -28.59 80.37z"/>
  <path id="_9" class="fil1" d="M1280.02 1660.23c-7.22,0 -14.15,-0.9 -20.77,-2.41 -6.32,-1.5 -13.85,-4.51 -22.27,-9.03 -8.13,-4.21 -18.37,-10.23 -30.41,-18.36 -11.74,-8.13 -26.79,-18.66 -44.55,-31.61 -16.55,0 -31,-3.91 -43.34,-11.74 -12.64,-7.82 -22.58,-18.66 -29.5,-32.81 -6.92,-14.14 -10.54,-30.1 -10.54,-48.46 0,-14.75 2.41,-28.6 7.53,-41.54 5.12,-12.94 12.04,-24.08 21.07,-33.71 9.03,-9.63 19.57,-17.16 31.61,-22.58 12.04,-5.42 24.98,-8.13 38.83,-8.13 16.85,0 31.6,3.92 44.25,11.74 12.94,7.83 22.87,18.67 30.1,32.81 7.22,13.85 10.83,29.8 10.83,48.17 0,16.55 -3.01,31.9 -9.33,46.05 -6.32,14.15 -15.05,25.89 -26.19,35.82 -11.13,9.93 -23.78,16.86 -38.23,20.77l0 1.51c14.15,9.63 26.79,17.46 37.63,23.17 10.84,5.72 20.77,9.94 29.5,12.65 8.73,2.71 17.16,3.91 25.28,3.91 6.93,0 12.65,-0.6 17.16,-1.5 4.52,-0.91 6.93,-1.51 6.93,-1.51l1.2 0.9 1.81 5.42c0,0 -0.91,0.6 -2.41,2.11 -1.51,1.5 -3.61,3.01 -6.02,5.12 -2.41,2.1 -4.82,3.91 -7.53,6.02 -2.71,2.1 -5.11,3.61 -7.22,5.11 -2.41,1.51 -4.22,2.11 -5.42,2.11zm-108.67 -76.76c12.95,0 24.09,-3.31 33.72,-9.93 9.63,-6.62 17.16,-15.65 22.57,-27.39 5.72,-11.74 8.43,-25.59 8.43,-40.94 0,-17.16 -3.01,-32.51 -8.73,-45.45 -5.72,-12.95 -13.84,-23.18 -24.08,-30.71 -10.23,-7.52 -22.27,-11.13 -35.82,-11.13 -12.34,0 -23.48,3.31 -32.81,9.93 -9.33,6.62 -16.86,15.95 -22.27,27.69 -5.12,11.74 -7.83,25.29 -7.83,40.64 0,17.16 2.71,32.21 8.43,45.45 5.72,12.94 13.54,23.18 23.48,30.7 10.23,7.53 21.97,11.14 34.91,11.14z"/>
  <path id="_10" class="fil1" d="M1374.84 1598.82c-21.07,0 -37.33,-5.72 -48.77,-17.15 -11.43,-11.74 -17.15,-28 -17.15,-49.37l0 -99.64c0,-6.32 -0.6,-10.83 -2.11,-12.94 -1.51,-2.11 -4.52,-3.31 -9.03,-3.31 -1.81,0 -3.91,0 -6.32,0.3 -2.71,0.3 -3.91,0.3 -3.91,0.3l-0.61 -1.2 2.11 -13.25c0,0 2.11,0 6.32,0.3 3.91,0.31 8.73,0.31 13.85,0.61 5.42,0 9.93,0 13.84,0 3.32,0 6.63,0 10.24,-0.3 3.91,-0.31 7.22,-0.61 10.53,-0.91 3.32,-0.3 5.72,-0.9 7.83,-1.2 2.11,-0.3 3.01,-0.3 3.01,-0.3l-1.2 13.54c-7.53,0.91 -12.34,2.71 -14.75,5.12 -2.71,2.11 -4.22,6.32 -4.52,12.04l-2.41 88.5c0,19.87 4.22,35.22 12.95,45.75 8.73,10.54 21.07,15.96 37.32,15.96 16.56,0 28.9,-4.22 37.63,-12.95 8.73,-8.73 12.94,-21.37 12.94,-37.93 0,-4.21 0,-10.23 0,-18.06 -0.3,-7.82 -0.3,-16.25 -0.6,-25.28 -0.3,-9.33 -0.3,-18.06 -0.6,-26.49 -0.3,-8.13 -0.3,-15.05 -0.6,-20.17 0,-5.42 0,-8.13 0,-8.13 -0.3,-6.92 -1.21,-11.43 -2.71,-13.24 -1.21,-2.11 -3.92,-3.01 -8.43,-3.01 -1.81,0 -4.52,0 -7.83,0.3 -3.31,0.3 -5.11,0.3 -5.11,0.3l-0.61 -1.2 2.11 -13.25c0,0 1.2,0 3.61,0.3 2.41,0 5.42,0 9.03,0.31 3.61,0 7.53,0 11.44,0.3 3.92,0 7.23,0 9.94,0 4.51,0 8.72,-0.3 13.24,-0.61 4.52,-0.3 8.13,-0.9 11.14,-1.5 3.31,-0.3 4.81,-0.6 4.81,-0.6l-1.2 13.54c-8.73,1.21 -14.15,2.71 -16.86,4.82 -2.71,2.11 -3.91,6.02 -3.91,12.34l0 101.14c0,21.07 -6.62,37.33 -19.57,49.07 -12.94,11.43 -31.3,17.15 -55.08,17.15z"/>
  <path id="_11" class="fil1" d="M1498.85 1598.22l1.81 -13.85c9.03,-1.2 15.05,-3.61 18.36,-6.92 3.31,-3.61 5.12,-9.63 5.12,-18.36l0.3 -126.43c0,-6.32 -0.6,-10.83 -2.11,-12.94 -1.5,-2.11 -4.51,-3.31 -9.03,-3.31 -1.2,0 -2.71,0 -4.81,0 -2.11,0.3 -3.92,0.3 -5.42,0.6l-0.6 -1.2 2.1 -13.25c3.32,0 7.53,0 12.35,0.3 4.81,0.31 9.93,0.31 15.05,0.61 5.11,0 9.93,0 14.45,0 15.95,0 29.49,0 40.33,-0.3 11.14,-0.31 20.47,-0.61 28.3,-1.21 7.82,-0.6 15.05,-1.2 21.67,-2.11l0.9 1.81c-0.9,4.82 -2.11,10.23 -3.01,16.26 -0.9,5.71 -1.8,11.73 -2.41,17.45 -0.6,5.72 -1.2,11.14 -1.5,16.26l-14.45 1.2c0.3,-1.8 0.3,-3.91 0.3,-6.62 0.3,-2.71 0.3,-4.82 0.3,-6.32 0,-4.82 -0.6,-8.73 -1.5,-11.44 -0.91,-3.01 -2.71,-5.12 -5.42,-6.62 -3.01,-1.51 -7.53,-2.41 -13.85,-2.71 -6.32,-0.3 -14.75,-0.6 -25.28,-0.6 -6.32,0 -11.14,0.3 -14.15,0.6 -3.01,0.3 -4.82,1.5 -5.72,3.01 -0.6,1.5 -0.9,4.21 -1.2,8.13l-3.01 70.13 -1.21 63.21c0,5.42 0.6,9.34 1.51,12.05 0.9,2.4 3.31,3.91 6.62,4.81 3.31,0.9 8.43,1.21 15.65,1.21 11.74,0 21.37,-0.31 28.6,-1.21 7.22,-0.9 12.64,-2.41 16.55,-4.81 3.92,-2.41 6.63,-6.03 8.43,-10.84 1.81,-5.12 3.31,-11.74 4.52,-19.87l13.24 -1.5 0.9 1.5c-1.5,6.32 -3.01,14.15 -4.51,23.78 -1.51,9.63 -2.71,18.66 -3.61,26.79l-1.51 1.81c-12.04,-0.3 -24.08,-0.9 -36.12,-1.21 -11.74,-0.3 -22.58,-0.3 -32.21,-0.6 -9.63,-0.3 -17.15,-0.3 -22.87,-0.3 -6.33,0 -13.25,0.3 -21.38,0.6 -7.82,0.61 -14.75,1.51 -20.47,2.41zm43.65 -91.51l2.71 -18.06c1.51,0 4.22,0 8.13,0 3.91,0 8.43,0 12.94,0 4.52,0.3 8.73,0.3 12.04,0.3 3.31,0 8.73,-0.3 15.96,-0.9 6.92,-0.9 13.84,-1.5 20.77,-2.41l1.2 1.51 -4.21 17.76c-5.72,-0.3 -12.65,-0.3 -20.77,-0.61 -8.43,-0.3 -15.66,-0.3 -21.38,-0.3 -3.91,0 -8.12,0.3 -13.24,0.61 -5.12,0.6 -9.93,1.2 -14.15,2.1z"/>
  <path id="_12" class="fil1" d="M1736.35 1598.82l1.81 -13.84c9.33,-1.81 15.65,-4.52 18.66,-7.83 3.31,-3.61 4.82,-9.63 4.82,-18.06l0.3 -126.43c0,-6.32 -0.6,-10.83 -2.11,-12.94 -1.5,-2.11 -4.51,-3.31 -9.03,-3.31 -1.8,0 -3.91,0 -6.62,0.3 -2.41,0.3 -3.61,0.3 -3.61,0.3l-0.6 -1.2 2.1 -13.25c0,0 1.21,0 3.92,0.3 2.7,0 6.02,0 10.23,0.31 4.21,0 8.73,0 13.55,0.3 5.11,0 9.63,0 14.14,0 13.85,0 25.89,0 36.13,-0.3 10.23,-0.31 19.26,-0.61 27.39,-1.21 7.82,-0.6 14.75,-1.2 21.07,-2.11l0.9 1.81c0,0 -0.6,2.41 -1.5,6.92 -0.91,4.52 -1.81,10.84 -3.01,18.67 -0.91,7.52 -1.81,15.95 -2.41,25.28l-14.45 1.21c0,0 0,-1.81 0.3,-5.42 0.3,-3.62 0.3,-6.32 0.3,-8.43 0,-6.62 -0.9,-11.44 -2.41,-14.45 -1.5,-3.01 -5.41,-4.82 -11.13,-5.72 -5.72,-0.9 -14.45,-1.2 -26.79,-1.2 -6.33,0 -11.14,0.3 -14.15,0.6 -3.01,0.3 -4.82,1.5 -5.72,3.01 -0.6,1.5 -0.9,4.21 -1.21,8.13l-2.4 63.51 31 0.3c3.31,0 7.23,-0.3 12.04,-0.9 5.12,-0.6 9.63,-1.21 13.55,-1.51 3.91,-0.6 6.02,-0.9 6.02,-0.9l1.2 1.5 -4.21 18.07c0,0 -2.11,0 -6.32,-0.31 -4.22,-0.3 -9.34,-0.3 -15.05,-0.3 -5.72,-0.3 -10.84,-0.3 -15.66,-0.3 -4.51,0 -8.73,0.3 -12.94,0.91 -4.22,0.3 -7.53,0.9 -10.23,1.2l-1.21 49.97c0,8.12 0.9,13.54 2.71,16.25 1.81,2.71 5.42,4.22 10.54,4.22 2.1,0 4.81,0 8.12,-0.3 3.31,-0.31 6.32,-0.31 9.03,-0.31 2.71,-0.3 4.22,-0.3 4.22,-0.3l0.6 1.21 -2.71 14.15c0,0 -1.51,0 -4.82,-0.31 -3.01,0 -6.92,0 -11.74,-0.3 -4.51,-0.3 -9.63,-0.3 -14.74,-0.6 -5.12,0 -9.64,0 -13.55,0 -5.12,0 -10.24,0.3 -15.65,0.9 -5.12,0.61 -9.64,1.21 -13.25,1.81 -3.61,0.6 -5.42,0.9 -5.42,0.9z"/>
  <path id="_13" class="fil1" d="M1967.83 1598.22l-0.9 -2.11 1.2 -11.74c6.93,-0.6 12.34,-1.2 16.26,-2.1 3.91,-0.91 6.62,-1.81 8.13,-3.31 1.5,-1.51 2.4,-3.62 2.4,-6.02 0,-2.11 -0.3,-4.22 -0.6,-6.63 -0.3,-2.4 -1.2,-5.11 -2.11,-7.82l-9.93 -32.81c-3.61,-0.3 -8.73,-0.3 -15.05,-0.3 -6.62,0 -12.04,0 -16.25,0 -5.72,0 -11.74,0.3 -18.07,0.9 -6.32,0.6 -11.43,1.2 -14.75,1.5l-11.13 31.31c-1.81,5.42 -2.71,9.33 -2.71,11.74 0,4.51 1.5,7.52 4.21,9.33 3.01,2.11 7.53,3.01 13.85,3.01l17.16 0 0.6 1.2 -1.81 12.95c0,0 -2.1,-0.3 -6.32,-0.6 -4.21,-0.3 -9.63,-0.91 -15.95,-1.21 -6.32,-0.3 -12.95,-0.3 -19.57,-0.3 -4.81,0 -9.93,0 -15.05,0 -5.12,0.3 -9.33,0.3 -12.94,0.6 -3.31,0.3 -5.12,0.3 -5.12,0.3l2.41 -14.14c5.72,-0.61 10.23,-2.41 13.54,-5.72 3.32,-3.31 6.63,-9.03 9.94,-17.46l58.7 -153.82 18.96 -5.12 2.41 0c0,0 0.6,2.41 2.1,7.23 1.21,4.51 3.01,11.14 5.42,19.26 2.11,8.43 4.82,18.06 7.83,28.6 3.31,10.84 6.62,22.27 9.93,34.31 3.61,12.05 7.23,24.39 11.14,36.73 3.91,12.34 7.52,24.08 11.44,35.22 2.41,7.52 5.72,12.64 9.93,15.65 3.91,3.01 10.24,4.82 18.97,5.72l0.6 1.2 -2.11 12.34c0,0 -2.11,0 -6.02,-0.3 -3.91,-0.3 -8.13,-0.3 -13.24,-0.6 -5.12,0 -9.34,0 -12.65,0 -7.52,0 -15.05,0.3 -21.97,0.6 -6.92,0.61 -12.34,1.21 -16.56,1.51 -4.21,0.6 -6.32,0.9 -6.32,0.9zm-44.25 -85.19l26.49 0c3.92,0 8.73,-0.3 14.45,-0.6 5.72,-0.3 10.23,-0.6 13.55,-0.9l-23.78 -78.87 -2.11 0 -28.6 80.37z"/>
  <path id="_14" class="fil1" d="M2064.16 1598.22l1.8 -13.85c7.83,-1.2 13.25,-3.61 15.96,-6.92 3.01,-3.61 4.51,-9.63 4.51,-18.36l0.3 -126.43c0,-6.32 -0.6,-10.83 -2.11,-12.94 -1.5,-2.11 -4.51,-3.31 -9.03,-3.31 -1.8,0 -3.91,0 -6.62,0.3 -2.41,0.3 -3.61,0.3 -3.61,0.3l-0.6 -1.2 2.11 -13.25c0,0 2.1,0 6.02,0.3 3.91,0.31 8.72,0.31 13.84,0.61 5.42,0 9.93,0 13.85,0 3.31,0 6.62,0 10.23,-0.3 3.92,-0.31 7.23,-0.61 10.54,-0.91 3.31,-0.3 6.02,-0.9 8.13,-1.2 2.1,-0.3 3.31,-0.3 3.31,-0.3l-1.21 13.54c-6.62,0.91 -11.13,2.11 -13.84,3.92 -2.71,1.8 -4.22,4.51 -4.52,8.12 -0.3,3.92 -0.9,9.03 -1.5,15.96 -0.91,12.34 -1.51,25.88 -2.11,40.33 -0.6,14.75 -0.9,28.6 -1.21,42.14 -0.3,13.25 -0.3,24.39 -0.3,33.72 0,6.92 0.61,12.04 1.51,15.35 1.2,3.31 3.61,5.42 7.22,6.32 3.92,0.9 9.33,1.51 16.86,1.51 8.73,0 15.95,-0.61 21.37,-1.51 5.42,-0.9 9.63,-3.01 12.95,-6.02 3.31,-3.01 6.01,-7.22 8.12,-12.94 2.11,-5.72 3.92,-12.95 5.42,-22.28l13.24 -1.5 0.91 1.5c0,0 -0.6,2.71 -1.51,8.13 -0.9,5.42 -2.1,12.34 -3.31,21.07 -1.5,8.73 -2.71,18.06 -3.91,27.99l-1.51 1.81c0,0 -2.71,0 -8.42,-0.3 -5.72,-0.3 -12.65,-0.9 -21.38,-1.2 -8.73,-0.31 -17.46,-0.61 -26.79,-0.91 -9.03,-0.3 -17.15,-0.3 -24.38,-0.3 -7.52,0 -14.15,0.3 -20.17,0.6 -6.32,0.61 -11.13,1.21 -14.75,1.51 -3.61,0.6 -5.41,0.9 -5.41,0.9z"/>
  <path id="_15" class="fil1" d="M2303.76 1598.22l-0.9 -2.11 1.2 -11.74c6.93,-0.6 12.34,-1.2 16.26,-2.1 3.91,-0.91 6.62,-1.81 8.13,-3.31 1.5,-1.51 2.4,-3.62 2.4,-6.02 0,-2.11 -0.3,-4.22 -0.6,-6.63 -0.3,-2.4 -1.2,-5.11 -2.11,-7.82l-9.93 -32.81c-3.61,-0.3 -8.73,-0.3 -15.05,-0.3 -6.62,0 -12.04,0 -16.25,0 -5.72,0 -11.74,0.3 -18.07,0.9 -6.32,0.6 -11.43,1.2 -14.75,1.5l-11.13 31.31c-1.81,5.42 -2.71,9.33 -2.71,11.74 0,4.51 1.5,7.52 4.21,9.33 3.01,2.11 7.53,3.01 13.85,3.01l17.16 0 0.6 1.2 -1.81 12.95c0,0 -2.1,-0.3 -6.32,-0.6 -4.21,-0.3 -9.63,-0.91 -15.95,-1.21 -6.32,-0.3 -12.95,-0.3 -19.57,-0.3 -4.81,0 -9.93,0 -15.05,0 -5.12,0.3 -9.33,0.3 -12.94,0.6 -3.31,0.3 -5.12,0.3 -5.12,0.3l2.41 -14.14c5.72,-0.61 10.23,-2.41 13.54,-5.72 3.32,-3.31 6.63,-9.03 9.94,-17.46l58.7 -153.82 18.96 -5.12 2.41 0c0,0 0.6,2.41 2.1,7.23 1.21,4.51 3.01,11.14 5.42,19.26 2.11,8.43 4.82,18.06 7.83,28.6 3.31,10.84 6.62,22.27 9.93,34.31 3.61,12.05 7.23,24.39 11.14,36.73 3.91,12.34 7.52,24.08 11.44,35.22 2.41,7.52 5.72,12.64 9.93,15.65 3.91,3.01 10.24,4.82 18.97,5.72l0.6 1.2 -2.11 12.34c0,0 -2.11,0 -6.02,-0.3 -3.91,-0.3 -8.13,-0.3 -13.24,-0.6 -5.12,0 -9.34,0 -12.65,0 -7.52,0 -15.05,0.3 -21.97,0.6 -6.92,0.61 -12.34,1.21 -16.56,1.51 -4.21,0.6 -6.32,0.9 -6.32,0.9zm-44.25 -85.19l26.49 0c3.92,0 8.73,-0.3 14.45,-0.6 5.72,-0.3 10.23,-0.6 13.55,-0.9l-23.78 -78.87 -2.11 0 -28.6 80.37z"/>
  <polygon class="fil1" points="1064.02,376.38 1064.02,314.95 1104.17,314.95 1104.17,326.16 1076.99,326.16 1076.99,340.37 1100.33,340.37 1100.33,351.19 1076.99,351.19 1076.99,365.17 1103.4,365.17 1103.4,376.38 "/>
  <path id="_1_30" class="fil1" d="M1127.05 359.56c0.69,2.15 1.84,3.76 3.46,4.91 1.69,1.16 3.84,1.69 6.45,1.69 2.76,0 4.91,-0.61 6.52,-1.92 1.61,-1.3 2.38,-3.14 2.38,-5.37 0,-1.61 -0.54,-2.99 -1.69,-4.07 -1.07,-1.07 -2.61,-1.76 -4.53,-2.07l-7.67 -1.15c-5.46,-0.85 -9.6,-2.92 -12.52,-6.07 -2.92,-3.22 -4.38,-7.45 -4.38,-12.59 0,-3.99 0.93,-7.45 2.69,-10.29 1.77,-2.91 4.38,-5.14 7.68,-6.75 3.3,-1.62 7.14,-2.38 11.67,-2.38 4.53,0 8.44,0.76 11.75,2.38 3.3,1.53 5.83,3.76 7.67,6.75 1.85,2.92 2.92,6.45 3.15,10.67l-12.13 0c-0.69,-2.68 -1.92,-4.68 -3.69,-6.06 -1.76,-1.38 -3.99,-2.07 -6.75,-2.07 -2.92,0 -5.22,0.69 -6.83,1.99 -1.69,1.31 -2.54,3.07 -2.54,5.38 0,1.61 0.54,2.99 1.69,4.07 1.08,1.15 2.61,1.84 4.61,2.14l7.6 1.16c5.45,0.84 9.67,2.91 12.51,6.06 2.92,3.23 4.38,7.37 4.38,12.52 0,3.91 -0.85,7.37 -2.61,10.28 -1.77,2.92 -4.22,5.15 -7.52,6.76 -3.23,1.54 -7.07,2.3 -11.52,2.3 -4.38,0 -8.22,-0.69 -11.52,-2.15 -3.3,-1.45 -5.83,-3.53 -7.75,-6.29 -1.84,-2.69 -2.92,-5.99 -3.15,-9.83l12.59 0z"/>
  <path id="_2_31" class="fil1" d="M1170.12 376.38l0 -61.43 23.42 0c4.22,0 7.91,0.77 11.05,2.38 3.15,1.62 5.61,3.84 7.3,6.68 1.76,2.85 2.61,6.3 2.61,10.22 0,3.76 -0.85,7.06 -2.61,9.82 -1.69,2.84 -4.15,4.99 -7.3,6.53 -3.14,1.53 -6.83,2.3 -11.05,2.3l-10.44 0 0 23.5 -12.98 0zm12.98 -35.17l10.52 0c2.45,0 4.37,-0.61 5.75,-1.84 1.46,-1.23 2.15,-2.92 2.15,-5.14 0,-2.23 -0.69,-4 -2.15,-5.23 -1.38,-1.22 -3.3,-1.84 -5.75,-1.84l-10.52 0 0 14.05z"/>
  <polygon id="_3_32" class="fil1" points="1225.25,376.38 1225.25,314.95 1265.4,314.95 1265.4,326.16 1238.22,326.16 1238.22,340.37 1261.56,340.37 1261.56,351.19 1238.22,351.19 1238.22,365.17 1264.63,365.17 1264.63,376.38 "/>
  <polygon id="_4_33" class="fil1" points="1291.12,376.38 1291.12,327.24 1273.69,327.24 1273.69,314.95 1321.45,314.95 1321.45,327.24 1304.1,327.24 1304.1,376.38 "/>
  <path id="_5_34" class="fil1" d="M1326.67 376.38l13.82 -61.43 21.65 0 13.82 61.43 -13.05 0 -11.29 -51.98 -1.31 0 -11.43 51.98 -12.21 0zm10.21 -17.97l0 -12.28 28.87 0 0 12.28 -28.87 0zm9.29 -49.14l8.67 -13.2 13.13 0 -11.51 13.2 -10.29 0z"/>
  <path id="_6_35" class="fil1" d="M1406.13 377.83c-7.68,0 -13.51,-2.68 -17.5,-8.13 -4,-5.46 -5.99,-13.44 -5.99,-24.04 0,-10.59 2.07,-18.57 6.14,-24.03 4.07,-5.45 10.13,-8.13 18.04,-8.13 4.38,0 8.22,0.92 11.52,2.76 3.22,1.84 5.76,4.53 7.6,8.06 1.84,3.53 2.92,7.83 3.22,12.82l-11.82 0c-0.77,-3.91 -2,-6.91 -3.76,-8.83 -1.69,-1.99 -3.92,-2.99 -6.76,-2.99 -3.76,0 -6.6,1.69 -8.44,5.07 -1.85,3.3 -2.77,8.44 -2.77,15.27 0,6.84 0.85,11.98 2.61,15.36 1.77,3.3 4.38,4.99 7.91,4.99 2.69,0 4.84,-0.92 6.45,-2.76 1.61,-1.85 2.84,-4.61 3.61,-8.22l11.82 0c-0.31,4.84 -1.38,8.91 -3.22,12.36 -1.85,3.38 -4.3,5.99 -7.45,7.76 -3.15,1.76 -6.91,2.68 -11.21,2.68z"/>
  <path id="_7_36" class="fil1" d="M1436.53 314.95l12.98 0 0 39.47c0,3.68 0.84,6.52 2.53,8.52 1.69,2.07 4.07,3.07 7.07,3.07 2.99,0 5.37,-1.07 7.06,-3.15 1.61,-2.07 2.46,-4.99 2.46,-8.75l0 -39.16 12.43 0 0 39.85c0,7.37 -1.92,13.05 -5.75,17.04 -3.77,4 -9.29,5.99 -16.51,5.99 -7.22,0 -12.75,-1.99 -16.51,-5.99 -3.84,-3.99 -5.76,-9.67 -5.76,-17.04l0 -39.85z"/>
  <polygon id="_8_37" class="fil1" points="1496.65,376.38 1496.65,314.95 1509.62,314.95 1509.62,364.09 1535.04,364.09 1535.04,376.38 "/>
  <path id="_9_38" class="fil1" d="M1566.28 377.83c-7.9,0 -13.97,-2.68 -18.04,-8.13 -4.07,-5.46 -6.14,-13.52 -6.14,-24.04 0,-10.59 2.07,-18.57 6.14,-24.03 4.07,-5.45 10.14,-8.13 18.04,-8.13 7.91,0 13.98,2.68 18.05,8.13 4.07,5.46 6.14,13.44 6.14,24.03 0,10.52 -2.07,18.58 -6.14,24.04 -4.07,5.45 -10.14,8.13 -18.05,8.13zm0 -11.82c3.77,0 6.61,-1.69 8.45,-4.99 1.84,-3.38 2.76,-8.52 2.76,-15.36 0,-6.83 -0.92,-11.97 -2.76,-15.27 -1.84,-3.38 -4.68,-5.07 -8.45,-5.07 -3.76,0 -6.6,1.69 -8.44,5.07 -1.84,3.3 -2.76,8.44 -2.76,15.27 0,6.84 0.92,11.98 2.76,15.36 1.84,3.3 4.68,4.99 8.44,4.99z"/>
  <polygon id="_10_39" class="fil1" points="1667.32,376.38 1667.32,327.24 1649.89,327.24 1649.89,314.95 1697.65,314.95 1697.65,327.24 1680.3,327.24 1680.3,376.38 "/>
  <polygon id="_11_40" class="fil1" points="1708.93,376.38 1708.93,314.95 1749.09,314.95 1749.09,326.16 1721.91,326.16 1721.91,340.37 1745.25,340.37 1745.25,351.19 1721.91,351.19 1721.91,365.17 1748.32,365.17 1748.32,376.38 "/>
  <path id="_12_41" class="fil1" d="M1756.61 376.38l13.82 -61.43 21.65 0 13.82 61.43 -13.05 0 -11.29 -51.98 -1.3 0 -11.44 51.98 -12.21 0zm10.21 -17.97l0 -12.28 28.87 0 0 12.28 -28.87 0z"/>
  <polygon id="_13_42" class="fil1" points="1828.55,376.38 1828.55,327.24 1811.12,327.24 1811.12,314.95 1858.88,314.95 1858.88,327.24 1841.52,327.24 1841.52,376.38 "/>
  <path id="_14_43" class="fil1" d="M1868.01 376.38l0 -61.43 23.73 0c4.14,0 7.75,0.77 10.82,2.38 3.07,1.54 5.45,3.77 7.22,6.61 1.69,2.92 2.53,6.29 2.53,10.13 0,3.61 -0.84,6.68 -2.61,9.37 -1.76,2.69 -4.14,4.83 -7.22,6.29 -3.14,1.46 -6.68,2.23 -10.74,2.23l-10.75 0 0 24.42 -12.98 0zm31.25 0l-15.28 -26.49 13.82 0 16.05 26.49 -14.59 0zm-18.27 -35.25l10.44 0c2.46,0 4.37,-0.61 5.76,-1.84 1.46,-1.3 2.15,-2.99 2.15,-5.14 0,-2.15 -0.69,-3.84 -2.15,-5.07 -1.39,-1.3 -3.3,-1.92 -5.76,-1.92l-10.44 0 0 13.97z"/>
  <path id="_15_44" class="fil1" d="M1917.84 376.38l13.82 -61.43 21.65 0 13.82 61.43 -13.05 0 -11.29 -51.98 -1.3 0 -11.44 51.98 -12.21 0zm10.21 -17.97l0 -12.28 28.87 0 0 12.28 -28.87 0z"/>
  <polygon id="_16" class="fil1" points="1980.33,376.38 1980.33,314.95 1993.31,314.95 1993.31,364.09 2018.72,364.09 2018.72,376.38 "/>
  <polygon id="_17" class="fil1" points="2082.14,376.38 2082.14,364.09 2097.26,364.09 2097.26,327.24 2082.14,327.24 2082.14,314.95 2125.29,314.95 2125.29,327.24 2110.24,327.24 2110.24,364.09 2125.29,364.09 2125.29,376.38 "/>
  <polygon id="_18" class="fil1" points="2135.42,376.38 2135.42,314.95 2155.77,314.95 2167.67,366.55 2168.97,366.55 2168.21,343.21 2168.21,314.95 2179.49,314.95 2179.49,376.38 2159.15,376.38 2147.25,324.78 2145.86,324.78 2146.63,348.12 2146.63,376.38 "/>
  <polygon id="_19" class="fil1" points="2193.54,376.38 2193.54,314.95 2233.69,314.95 2233.69,327.24 2206.52,327.24 2206.52,341.6 2229.86,341.6 2229.86,352.81 2206.52,352.81 2206.52,376.38 "/>
  <path id="_20" class="fil1" d="M2240.3 376.38l13.82 -61.43 21.65 0 13.82 61.43 -13.05 0 -11.29 -51.98 -1.31 0 -11.44 51.98 -12.2 0zm10.21 -17.97l0 -12.28 28.87 0 0 12.28 -28.87 0z"/>
  <polygon id="_21" class="fil1" points="2296.65,376.38 2296.65,314.95 2317,314.95 2328.9,366.55 2330.2,366.55 2329.43,343.21 2329.43,314.95 2340.72,314.95 2340.72,376.38 2320.37,376.38 2308.47,324.78 2307.09,324.78 2307.86,348.12 2307.86,376.38 "/>
  <polygon id="_22" class="fil1" points="2365.98,376.38 2365.98,327.24 2348.55,327.24 2348.55,314.95 2396.31,314.95 2396.31,327.24 2378.95,327.24 2378.95,376.38 "/>
  <polygon id="_23" class="fil1" points="2404.6,376.38 2404.6,364.09 2419.72,364.09 2419.72,327.24 2404.6,327.24 2404.6,314.95 2447.74,314.95 2447.74,327.24 2432.7,327.24 2432.7,364.09 2447.74,364.09 2447.74,376.38 "/>
  <polygon id="_24" class="fil1" points="2464.02,376.38 2464.02,314.95 2477,314.95 2477,364.09 2502.41,364.09 2502.41,376.38 "/>
 </g>
</svg>
